<mxfile host="app.diagrams.net" agent="Mozilla/5.0 (Macintosh; Intel Mac OS X 10_15_7) AppleWebKit/537.36 (KHTML, like Gecko) Chrome/130.0.0.0 Safari/537.36" version="24.8.4" pages="2">
  <diagram name="Page-1" id="bpIPnr9Y0urkzFZfR_wy">
    <mxGraphModel dx="40" dy="1214" grid="0" gridSize="10" guides="1" tooltips="1" connect="1" arrows="1" fold="1" page="0" pageScale="1" pageWidth="850" pageHeight="1100" math="0" shadow="0">
      <root>
        <mxCell id="0" />
        <mxCell id="1" parent="0" />
        <mxCell id="J9Wh1ZANeh-PTkgw2Zvx-1" value="" style="rounded=1;whiteSpace=wrap;html=1;align=center;dashed=1;" parent="1" vertex="1">
          <mxGeometry x="2988" y="638" width="222" height="383" as="geometry" />
        </mxCell>
        <mxCell id="J9Wh1ZANeh-PTkgw2Zvx-2" style="edgeStyle=orthogonalEdgeStyle;rounded=0;orthogonalLoop=1;jettySize=auto;html=1;" parent="1" source="J9Wh1ZANeh-PTkgw2Zvx-3" target="J9Wh1ZANeh-PTkgw2Zvx-20" edge="1">
          <mxGeometry relative="1" as="geometry" />
        </mxCell>
        <mxCell id="J9Wh1ZANeh-PTkgw2Zvx-3" value="Amazon BedrockÂ &#xa;Studio" style="shape=image;verticalLabelPosition=bottom;labelBackgroundColor=default;verticalAlign=top;aspect=fixed;imageAspect=0;image=data:image/png,iVBORw0KGgoAAAANSUhEUgAAAHoAAAB4CAYAAAA9kebvAAAAAXNSR0IArs4c6QAAAIRlWElmTU0AKgAAAAgABQESAAMAAAABAAEAAAEaAAUAAAABAAAASgEbAAUAAAABAAAAUgEoAAMAAAABAAIAAIdpAAQAAAABAAAAWgAAAAAAAACQAAAAAQAAAJAAAAABAAOgAQADAAAAAQABAACgAgAEAAAAAQAAAHqgAwAEAAAAAQAAAHgAAAAAzuYkvAAAAAlwSFlzAAAWJQAAFiUBSVIk8AAAEJNJREFUeAHtXQe4FcUVPtQnRXq30dujIyAKCA9BUEyiWCkhxBg1FgRiYvkUMIl+xqCAosZEbGAjYgldOkYU6YKAVJVepEiH98j5F2adO++W3Xtn785d9nzfe7uzOzt75vw77cw55xYgpgLvDj+NY0jBlMDpWwcXKBjMqoW1UiUQAq1KJKDpEOiAAqtWKwRalUhA0yHQAQVWrVYItCqRgKZDoAMKrFqtEGhVIgFNh0AHFFi1WiHQqkQCmg6BDiiwarVCoFWJBDQdAh1QYNVqhUCrEgloOgQ6oMCq1QqBViUS0HQIdECBVatVWL2QSenelzSgYY3aUtGChejjrRto/A/f0vzdWyg0l8mPYkYC3bJsZRrVohO1rVDNrtE9dZoR/nYcPUwfbFkXgm5L5sxJARwyxWasYlYxerJJO+pfoxEVLGCxrlQnMhmCfkYesBnLCKALs2nbvdxah2S3pdJFs2w0j+eeoue+XUIzdnxHN1xYx/qrUqyEfV8+OZdBzwigu1a5hEY070T1S5WTcaNPeEwetHQObTx8wL6Or7Z9xQvppovqUk8GPhHoI/gj2XBov/18UE+MBrpmidL0XPOOdN0FtSLkv+bgj/TA0tk0nVtxPHIC+qZDB6jWpFfjFROIewDauMlYicJF6NGGbWhg3RaUVSiSPbTgF9Yto1On8xICgJn3PJ6B4+/+JbOitvQaJUsnLCdahkalK9Dgei2pc+WLqVJWcdp1/AjN3Pk9DV+7mFYe2BPtEd+vGTVGY7n0dNP2VK1YyaiCKfjes1Gvu7mICufeMsh+xG2ZmCs816wjFSqYXwWRm5dHA5ed+RjtFxhwYkyLjrZcgnwW7NkWsYTSIbNU1tgY+0e1yInJBsDH/Z3HjljLu5gZfbiR/7NMIxNYLv2rVRda2KVXBKDbjh6ivl9MoStmvptGbuK/CkoZzBkEfbZ7K7WcPpayxo+wjkgLQr4iUVq8uO/HMXIQTCMH99dpzlqty6Mul/72zZd0+NTJNHKT+FWdKl1kDylbjvxE3edNsHlcum+XlV7d/Td0YfHzrXw5lS6maTs2Jy44TTl8adF9eCwewZoteU2M5VL2lDfokRWf2QJMkwwcvSa7dHk73wTWvKkfItK4LkjOL675efSlRdcqWcau8/qf9tG9PCtOtFyyH/DppCBZ81bHb3eX23GxSWf0pUXL3I77bo3xIINfedkELRyWgTIhjeuCVh3YK06NOPoOtBFScMDEzF3f03aeJIIwDk/pcAM1L1vJmnThiDSug5AP+U0iX7pukwTglJeTvEYewAqb9y/vYT3SruIFtLhrn6iPIx/ym0SBABqbHYKGrVogTrUf/8P73fcsnkkjWfdeOMry6ZT1Mcwm5DONggE0Gx8I8hJovOOl9ctpzq4faBCrQG+v2Vi8ll7d+DU9yyrQ1ayLN5HCMToJVADmHV99GvEk0qaCDEZDoCPgCm4iBDq42EbUzPgx2u3uUkTtwoQtgbBF26II9kkIdLDxtWsXAm2LItgnxo/RXotfVrZ4/S4/y0870NdWrUF9qzew64zzRT/uoEnbN9nXnJ7AtvvBepc6zR413xBJ2RI1Q0Aupg3ohqXKWxYaXdh8V6aavGX53w7X06ds1TmQdcTfHHS269OAzX9fa301tS5f1S5urU9aKWy1mk6eA12u6Hn0BFuS3FmrSYRB3f4TxyzZlOH7IHwAy6/uS//csIKGrPyc9p69b92U/olWPJRbomwlunDvdurD5kduaSi/KxU6wfrt979fm0oRaXnWM6DhXQFfqCHZl5EAEzWCpaQAE2mYE4mPAMZ1f+Bnel1Sn55Y9UU+01604tdbd6NW5avgUYvgrTF05QJ6Zu0iyjvt3vQP7zkXyBOgMQ4PZwO5uueXjZBhtO4Z1iUv8kYBDOpEt44P41lO31W7KQ3m7nwK215hLI7WivsvnGa0jjlCAD4mtAIN74qXLr3KBkzU61sewwBYrAkXxuWr535A6geCDwXj985jh6nyeT/7VKXaigVffh5hJdqZDQjhDJDHjr6wSJnNu2In8nI9YUsr0NM79iRMrgRhHI7WBYv76hEfwjSelMFI/nGpy5dBxlic6a34RrYPH8k9VlXFUQFmzpiQws9bN2lVmMggv8iuM7UnjSE4sjlxoREVQ148U4efRRkyPbx8Pl3Ott4mbwfK/EY7v5uHI1ipqCAjLzxU3uN7+NB1k1agZeYw9v4YY+aMiVoFNt6PR5h1owyZnl7zVVITLrkMP88xmYR1iiDYh4/ijxp/OBcElx906TrJM6BjMYlxeGX3fvRGm26xsgT2OqxShAkSPDsaTHmdPUPnWH84F94eWH3AiU8naR2j4zGmKkww0epWpTpN9dmbIU9yuIvHv+57A9j1V3YCwDmuCYNDeGrqJM+BLs9LJXmtLJjHRK1c1hllibh2Lh1lO3FRb/ka3HF1kmdAi3AU8uwZjAuFyeOskYo1huusoKllYQyGz5ZM8rgMn2ud5BnQGIedKEziVaaqtHZGPqS385paJ6XTggWeo8JyFJMy2VEPnh7yRA2O9TrJM6BlkBMpTNQKFeJdqQEc8UDdQlxzTX+COe9InqXmJqHuVN+T7jTMgftVz7YmZHAAgPelcMyDO4/w9ECvh+gJOskzoMEkxuFhrEse7TAcBZ65koPNvNAyh7KjLC/OL1KU/tHsSg4/lU33Lp5FczlsRSYR1v+YcI1u2dliG8Dezx+0SoiaII/X6v1k0p4tr4TCBK3PicIE3fK4y66h2Tk3R4C8imOC3Mk20zgKwkeAfMhfReneRR5Tj3AAuPnzibYfl8wnNGO38D3EadFNnrVoVdkRj/F+1RtaISHQYgX9dPIE70p9TqPWLbW66TGbVhKc54fybpfIdxvvcvWoVtMKRvPG5m/Eo8Yf4bLz8db1+XTds9gxzyufLc+AdiPtPceP2uDhuXfYlXbwsrm0Q5p4YUxG8Lh3eO93OHffABkE0PF8phEAhQ4hXXoEI4DGZsbEbRupRolSCcdegN/7i8n0ChsoYCzfdPhgzF2xTAPfS36NABoV7PflVDp48rjj2TQmYs2mvUWlivwcMjIZQakz+2TKEM8cYyOI935YS5v54zONjAF6X4wNkHgCQ3eezHNymbqNA7EsxAeoW+Eh85zMuWez7mSYCcIziD/6dttrXEY88b7mxrRotaowAizOISIPeRyGKlXjQME3NFuD2dwJfOfwhsRjbDhhkj2aZ0C/wBH0ktVnCyPAzUcOWutKIcxUjyUZDHVM1gkGdqCw/AM9zlEY5vNWJMyDTCCtQG/kkMjCyiSeNWesiqumvLD2HM9mNzpCRdx6cT1LqxYrzmgsntxc/wtrATuwZg8tGnVBF45rvTiuWvMyFa2J5iq2jxu7eTW9snGFZ2vmaDxb4bB0ReBP1jgQjIlWrJryDuL1NLRJyRL2wbEM68iR/6KR7k2NyucVp6Vd+8aMFS54WMY7Vz3mf0TQhnlNCPqqdTKGIOmw5rxu3oeEjQxBwppz2pU9CYKXCV/+n+u3oiUc4UcGGUaALTjWZrIgo5t+pmkHWsZOATLIXgsWAV9hvJiImnHIqontf5W2mKFagRaVgwKkEYd7RHxt4ZGBe8IbA+M3DBLQihd0vo2e4tDNwusCprypGgGim8ZO1+D6l9qmO4gYNHzNIqo/+TXBpmfH2pIl7IncXHpgyWwqN2G09YdzXAMB7N/XbOIZH3LBWsdouWBhzfkW66BlCxPZG6MYz6oFwHg2VVPeWN00ogghbFS6rEdlJ8I/LZ9n6euFbKC7ByEWKqgPOxmOXq9/E8MqXPrnSYuWyrd8qLDB0ZSVCPDUEARvDAFyqq04Xjfda8Ekypk9Pm0go36NpS3WN6NstsjXspWhTMhH99GzFq0yKntjjOSvWczOV+zfTbcxGMm2tmizaXTT2B6FkUKidbhb40B4TnabOyHiR1vUuroxinDvLaa+zVna8xatsoHx+y1eXgj6cMv6pEBGNz2r0028hLnWjqONMtFNN532Jj3IXWYikAUPbo612Xr1Zp4DxCMsoQT9mrdgVZKvOXUTVstwm05bi3bLWKz8QukBnbKwkUZezKb/yEuxd9PgwprF0fjjEdbJbc76bf+dZ/4g0V0DZHEN15E3HZRRQKfaTUcTqNN1NDRqTjdAoAy5vWYja1ZdtFAha+IlJl8yD1hLI286KCOANmU27RQQGBVAGYJ1MpZQ0UgoTLyyKFHfaTTQJnTTqsCcpjGUtJnxtrVOxhJKzK79UoEaDTS6Syg9BLmZTYtn/DyitWKNnI51cqJ6pn3WnYgh+f5TqxfS3rP2YF7PpuX3BvHc6BYNl537zrrOpmM2HUSARZ2MBhpM+g0wfMh+yzNoYXUKnnAO16AxG1c6slnHM36T8UD7KSBsOU5sfz21LFc5gg3sxr3MsVru4Aj8PeZ/aP1EYUQGAxNGj9F+ygsteTL/8o0KsswT7iEP8ppO5nPoQoL4rUvsQeN3JFOlu2o3sX7uCOXE22rETyEhr+kUGKB/x92o2IN+uEHrlOWOn1UUJLYa97PdOf6w1YhrguS84pppR9+B7s0Tm65VIuODuhESjBfm5dxCr7DvcVne+gQ91KAVxyVLLWKA7JQu9NQyX/I1Oa+cx6RzX4DewEaEgrAbNJVNjD5q90uCzZlTwsbCXxtfYZkKwddYELYRr2P1I0x6UiE34SbdbEumwlMqz/oC9NjvVtMANqk5cOK4zfsvLqhFqzhKwpNN2uX73Uc709mTq9jKEhEVHmnYhm2uzozHJzniHn6OuPHUN2mGhmgBJm41qnJwk/YFaDD4PI9zdSePsX4YTLQeWJw8xOPrWrb36i2NkaJCmGyNvaw7Te94I8m/WIuwTXCDeezr/9FxTSEW5e1DbCvCZbcM+3nhD+d+bDUKOSRz1GrumwwDeKYFz1yfZ4PBthWqRRSxYM82SzO2hLfzsO0H4YpxGBnhd4VJ0ausuHBDslVJrG1KxOr88qpeMXefxPuwC4XNi3TtQon3ujnC3NcIhQmAvIJDP6IVP80WocLIHsAv7NKb1vG4W48nXTKN4w37Qcvm0G6XvtHWly0XFOPcxK3GGKw6umwE0ILTcTx2f8SRAB7lsXcgW5CgK4fdtwwyJnJ3L5rhahwGuO3Zg+Im9vroKf3Gs3hvrKNpW42x+HRy3SigwTD8lx5Z8Rn9ewP/qCdHwMUkTSa0NICfiFRw4eWoElyIEpFJW42JeI1335KYLpeceC9K9h7W2CM4Jld9pev+ZOsGy0EA3iGCnICLvDuOHqYPtqyzogjLSz1RTtCOGKONBxpChy75PiuGd1sqXfTnCAewB0dcE9iLI04XuuVoLRdlAFzE9HqfA8XM52gJ6TKzxbv9powBWggKyyuss/vXaOSo+z6XwRUyw9GYWbfMVLxzzLDxO80vr1/B4ao65VuO4VnRLSOK/bnWcuPJzrjJWDxmxb3F+3bayzGoQbHmhSNACK6QUP5jRgItqoHlGP5CSiwB31SgiVkLc+iUQAi0TmkaXFYItMHg6GQtBFqnNA0uKwTaYHB0shYCrVOaBpcVAm0wODpZC4HWKU2DywqBNhgcnayFQOuUpsFlhUAbDI5O1kKgdUrT4LJCoA0GRydrIdA6pWlwWSHQBoOjk7UQaJ3SNLisEGiDwdHJ2v8BpSjY9PomFG4AAAAASUVORK5CYII=;" parent="1" vertex="1">
          <mxGeometry x="2886" y="360" width="50" height="49.18" as="geometry" />
        </mxCell>
        <mxCell id="J9Wh1ZANeh-PTkgw2Zvx-5" style="edgeStyle=orthogonalEdgeStyle;rounded=0;orthogonalLoop=1;jettySize=auto;html=1;" parent="1" source="J9Wh1ZANeh-PTkgw2Zvx-6" target="J9Wh1ZANeh-PTkgw2Zvx-8" edge="1">
          <mxGeometry relative="1" as="geometry" />
        </mxCell>
        <mxCell id="J9Wh1ZANeh-PTkgw2Zvx-7" style="edgeStyle=orthogonalEdgeStyle;rounded=0;orthogonalLoop=1;jettySize=auto;html=1;" parent="1" source="J9Wh1ZANeh-PTkgw2Zvx-8" target="J9Wh1ZANeh-PTkgw2Zvx-9" edge="1">
          <mxGeometry relative="1" as="geometry" />
        </mxCell>
        <mxCell id="J9Wh1ZANeh-PTkgw2Zvx-8" value="Amazon Lambda" style="shape=image;verticalLabelPosition=bottom;verticalAlign=top;imageAspect=0;aspect=fixed;image=data:image/svg+xml,PD94bWwgdmVyc2lvbj0iMS4wIiBlbmNvZGluZz0iVVRGLTgiPz4KPHN2ZyB3aWR0aD0iNjRweCIgaGVpZ2h0PSI2NHB4IiB2aWV3Qm94PSIwIDAgNjQgNjQiIHZlcnNpb249IjEuMSIgeG1sbnM9Imh0dHA6Ly93d3cudzMub3JnLzIwMDAvc3ZnIiB4bWxuczp4bGluaz0iaHR0cDovL3d3dy53My5vcmcvMTk5OS94bGluayI+CiAgICA8dGl0bGU+SWNvbi1BcmNoaXRlY3R1cmUvNDgvQXJjaF9BV1MtTGFtYmRhXzQ4PC90aXRsZT4KICAgIDxnIGlkPSJJY29uLUFyY2hpdGVjdHVyZS80OC9BcmNoX0FXUy1MYW1iZGFfNDgiIHN0cm9rZT0ibm9uZSIgc3Ryb2tlLXdpZHRoPSIxIiBmaWxsPSJub25lIiBmaWxsLXJ1bGU9ImV2ZW5vZGQiPgogICAgICAgIDxnIGlkPSJJY29uLUFyY2hpdGVjdHVyZS1CRy80OC9Db21wdXRlIiBmaWxsPSIjRUQ3MTAwIj4KICAgICAgICAgICAgPHJlY3QgaWQ9IlJlY3RhbmdsZSIgeD0iMCIgeT0iMCIgd2lkdGg9IjY0IiBoZWlnaHQ9IjY0Ij48L3JlY3Q+CiAgICAgICAgPC9nPgogICAgICAgIDxwYXRoIGQ9Ik0yMi42Nzk0MDk0LDUyIEwxMy41NzQwNzAxLDUyIEwyMy44Mzc2MTg5LDMwLjQxIEwyOC4zOTk3NDk0LDM5Ljg2MSBMMjIuNjc5NDA5NCw1MiBaIE0yNC43MjY5NDA2LDI3LjY2NyBDMjQuNTYwNjI4NSwyNy4zMjEgMjQuMjEyMDcwMiwyNy4xMDMgMjMuODMwNjQ3OCwyNy4xMDMgTDIzLjgyNzY2MDEsMjcuMTAzIEMyMy40NDUyNDE4LDI3LjEwNCAyMy4wOTY2ODM1LDI3LjMyNSAyMi45MzIzNjMyLDI3LjY3MiBMMTEuMDk3MzE0Myw1Mi41NjkgQzEwLjk0OTkyMzksNTIuODc5IDEwLjk3MDgzNzQsNTMuMjQzIDExLjE1NDA3OTUsNTMuNTM0IEMxMS4zMzUzMjk4LDUzLjgyNCAxMS42NTQwMTE3LDU0IDExLjk5NTU5ODksNTQgTDIzLjMwOTgwMiw1NCBDMjMuNjk1MjA4LDU0IDI0LjA0NDc2MjIsNTMuNzc3IDI0LjIxMDA3ODQsNTMuNDI4IEwzMC40MDQ0NTc3LDQwLjI4NCBDMzAuNTMyOTI2NCw0MC4wMSAzMC41MzE5MzA1LDM5LjY5MiAzMC4zOTk0NzgzLDM5LjQyIEwyNC43MjY5NDA2LDI3LjY2NyBaIE01MS4wMDgyMzgyLDUyIEw0MS45ODU1NTcsNTIgTDI2Ljk1NDcyNjIsMTkuNTc4IEMyNi43OTE0MDE3LDE5LjIyNiAyNi40Mzg4NTk5LDE5IDI2LjA1MjQ1ODEsMTkgTDIwLjEyNzk2MjUsMTkgTDIwLjEzNDkzMzcsMTIgTDMxLjgxNDYyNTEsMTIgTDQ2Ljc3NDc0ODMsNDQuNDIgQzQ2LjkzODA3MjgsNDQuNzc0IDQ3LjI5MDYxNDcsNDUgNDcuNjc5MDA4Miw0NSBMNTEuMDA4MjM4Miw0NSBMNTEuMDA4MjM4Miw1MiBaIE01Mi4wMDQxMTkxLDQzIEw0OC4zMTQzODAzLDQzIEwzMy4zNTQyNTcsMTAuNTggQzMzLjE5MDkzMjYsMTAuMjI2IDMyLjgzODM5MDcsMTAgMzIuNDUwOTkzLDEwIEwxOS4xNDAwNDg2LDEwIEMxOC41OTEzMTgyLDEwIDE4LjE0NTE2MzYsMTAuNDQ3IDE4LjE0NDE2NzcsMTAuOTk5IEwxOC4xMzYyMDA2LDE5Ljk5OSBDMTguMTM2MjAwNiwyMC4yNjUgMTguMjQwNzY4MSwyMC41MTkgMTguNDI2OTk3OSwyMC43MDcgQzE4LjYxNDIyMzUsMjAuODk1IDE4Ljg2NzE3NzIsMjEgMTkuMTMxMDg1NywyMSBMMjUuNDE3MDg2MSwyMSBMNDAuNDQ3OTE2OCw1My40MjIgQzQwLjYxMTI0MTMsNTMuNzc0IDQwLjk2Mjc4NzMsNTQgNDEuMzUwMTg1LDU0IEw1Mi4wMDQxMTkxLDU0IEM1Mi41NTQ4NDEyLDU0IDUzLDUzLjU1MiA1Myw1MyBMNTMsNDQgQzUzLDQzLjQ0OCA1Mi41NTQ4NDEyLDQzIDUyLjAwNDExOTEsNDMgTDUyLjAwNDExOTEsNDMgWiIgaWQ9IkFXUy1MYW1iZGFfSWNvbl80OF9TcXVpZCIgZmlsbD0iI0ZGRkZGRiI+PC9wYXRoPgogICAgPC9nPgo8L3N2Zz4=;points=[[0,0],[1,0],[1,1],[0,1],[0,0.167],[0.167,0],[1,0.167],[0.167,1],[0,0.333],[0.333,0],[1,0.333],[0.333,1],[0,0.5],[0.5,0],[1,0.5],[0.5,1],[0,0.667],[0.667,0],[1,0.667],[0.667,1],[0,0.833],[0.833,0],[1,0.833],[0.833,1]]" parent="1" vertex="1">
          <mxGeometry x="3119.5" y="845" width="50" height="50" as="geometry" />
        </mxCell>
        <mxCell id="J9Wh1ZANeh-PTkgw2Zvx-9" value="Amazon Athena" style="shape=image;verticalLabelPosition=bottom;verticalAlign=top;imageAspect=0;aspect=fixed;image=data:image/svg+xml,PD94bWwgdmVyc2lvbj0iMS4wIiBlbmNvZGluZz0iVVRGLTgiPz4KPHN2ZyB3aWR0aD0iNjRweCIgaGVpZ2h0PSI2NHB4IiB2aWV3Qm94PSIwIDAgNjQgNjQiIHZlcnNpb249IjEuMSIgeG1sbnM9Imh0dHA6Ly93d3cudzMub3JnLzIwMDAvc3ZnIiB4bWxuczp4bGluaz0iaHR0cDovL3d3dy53My5vcmcvMTk5OS94bGluayI+CiAgICA8dGl0bGU+SWNvbi1BcmNoaXRlY3R1cmUvNDgvQXJjaF9BbWF6b24tQXRoZW5hXzQ4PC90aXRsZT4KICAgIDxnIGlkPSJJY29uLUFyY2hpdGVjdHVyZS80OC9BcmNoX0FtYXpvbi1BdGhlbmFfNDgiIHN0cm9rZT0ibm9uZSIgc3Ryb2tlLXdpZHRoPSIxIiBmaWxsPSJub25lIiBmaWxsLXJ1bGU9ImV2ZW5vZGQiPgogICAgICAgIDxnIGlkPSJJY29uLUFyY2hpdGVjdHVyZS1CRy80OC9BbmFseXRpY3MiIGZpbGw9IiM4QzRGRkYiPgogICAgICAgICAgICA8cmVjdCBpZD0iUmVjdGFuZ2xlIiB4PSIwIiB5PSIwIiB3aWR0aD0iNjQiIGhlaWdodD0iNjQiPjwvcmVjdD4KICAgICAgICA8L2c+CiAgICAgICAgPHBhdGggZD0iTTMwLjY5MTkyMzEsMjMuMTU2MTU1OSBDMzMuNjU1MTQwNywyMy4xNTYxNTU5IDM1LjUzMzc2MjEsMjMuNzQ2NDkyNiAzNi4xMTM4OTQ5LDI0LjE1MTY2NDYgQzM1LjUzMzc2MjEsMjQuNTU2ODM2NiAzMy42NTUxNDA3LDI1LjE0NzE3MzIgMzAuNjkxOTIzMSwyNS4xNDcxNzMyIEMyNy43Mjg3MDU1LDI1LjE0NzE3MzIgMjUuODUwMDg0MSwyNC41NTY4MzY2IDI1LjI2OTk1MTIsMjQuMTUxNjY0NiBDMjUuODUwMDg0MSwyMy43NDY0OTI2IDI3LjcyODcwNTUsMjMuMTU2MTU1OSAzMC42OTE5MjMxLDIzLjE1NjE1NTkgTDMwLjY5MTkyMzEsMjMuMTU2MTU1OSBaIE0yOS45NjI0NjkxLDI4LjY2NzI5MTggQzI5Ljk2MjQ2OTEsMjguMzIwODU0NyAzMC4yNDc5OTU0LDI4LjA0MDEyMTMgMzAuNTk3MDg0LDI4LjA0MDEyMTMgQzMwLjY5OTk5NDUsMjguMDQwMTIxMyAzMC43OTI4MTU4LDI4LjA2OTk4NjYgMzAuODc4NTc0NSwyOC4xMTE3OTc5IEwzMC4zMTY2MDI0LDI5LjIyMTc5MDEgQzMwLjEwOTc3MjQsMjkuMTE4MjU3MiAyOS45NjI0NjkxLDI4LjkxMTE5MTQgMjkuOTYyNDY5MSwyOC42NjcyOTE4IEwyOS45NjI0NjkxLDI4LjY2NzI5MTggWiBNMzQuNzY4OTk1NywzNS4yMjM3MTE2IEMzNC40MDQ3NzMyLDM1LjQ5NjQ4MSAzMy4yMzY0MzYxLDM2LjA5Nzc2ODIgMzEuMTk2Mzg2NCwzNi4wOTc3NjgyIEMyOC43Mzg2NDExLDM2LjA5Nzc2ODIgMjcuMDg3MDI4MSwzNS42MTc5MzMgMjYuNjI3OTY2NSwzNS4zMjAyNzYgTDI1LjQ1MDU0OTEsMjYuNDE3NDQyMiBDMjYuOTI0NTkxLDI2LjkyNjE0NzIgMjguODg0OTM1NCwyNy4xMzgxOTA1IDMwLjY5MTkyMzEsMjcuMTM4MTkwNSBDMzIuNDk4OTEwNywyNy4xMzgxOTA1IDM0LjQ1OTI1NTIsMjYuOTI2MTQ3MiAzNS45MzMyOTcxLDI2LjQxNzQ0MjIgTDM1LjQ5NzQ0MDcsMjkuNzE4NTQ4OSBDMzQuNDE5OTA3MSwyOS4zMTQzNzI0IDMzLjEzMDQ5ODgsMjguNzYwODY5NiAzMS44ODQ0NzQ0LDI4LjE3NDUxNSBDMzEuNjgxNjgwMSwyNy42NjQ4MTQ2IDMxLjE4MzI3MDQsMjcuMzAyNDQ5NCAzMC41OTcwODQsMjcuMzAyNDQ5NCBDMjkuODM0MzM1NCwyNy4zMDI0NDk0IDI5LjIxNDg1NDUsMjcuOTE0Njg3MiAyOS4yMTQ4NTQ1LDI4LjY2NzI5MTggQzI5LjIxNDg1NDUsMjkuNDE5ODk2MyAyOS44MzQzMzU0LDMwLjAzMTEzODYgMzAuNTk3MDg0LDMwLjAzMTEzODYgQzMwLjczNzMyNDgsMzAuMDMxMTM4NiAzMC44NzE1MTIsMzAuMDA0MjU5OSAzMC45OTg2MzY4LDI5Ljk2NTQzNSBDMzIuNzg2NDU0OCwzMC44MjA1NzY5IDM0LjE3NTc0NjgsMzEuNDAyOTQ5NSAzNS4yMjYwMzk1LDMxLjc2NDMxOTEgTDM0Ljc2ODk5NTcsMzUuMjIzNzExNiBaIE0yMy4xMzQwNTM1LDI0LjI4MDA4NTIgTDI0LjY0MDM4MSwzNS42ODI2NDExIEMyNC43NzI1NTA0LDM4LjAyMTA5MDkgMzAuNTMzNTIxNiwzOC4wODg3ODU1IDMxLjE5NjM4NjQsMzguMDg4Nzg1NSBDMzQuMzQ3MjY0NCwzOC4wODg3ODU1IDM2LjU3OTAxMDEsMzYuODcwMjgyOSAzNi43MzY0MDI3LDM1LjcyODQzNDUgTDM3LjE5MjQzNzUsMzIuMjc3MDA2MSBDMzcuMzk0MjIyOSwzMi4zMDM4ODQ4IDM3LjU3Nzg0NzUsMzIuMzIxODA0IDM3LjczMzIyMjIsMzIuMzIxODA0IEMzOC41NDMzOTAzLDMyLjMyMTgwNCAzOC43NjgzODEsMzEuOTgyMzM1NSAzOC45NDI5MjUzLDMxLjcxODUyNTcgQzM5LjExNzQ2OTYsMzEuNDU0NzE1OSAzOS4xNjg5MjQ4LDMxLjEzMjE3MTEgMzkuMDg4MjEwNywzMC44MDg2MzA4IEMzOC45NDA5MDc0LDMwLjIxNjMwMzIgMzguMjA2NDA4OCwyOS40OTk1MzcgMzcuNjI0MjU4MSwyOS4wMTA3NDIyIEwzOC4yNDk3OTI3LDI0LjI4MDA4NTIgTDM4LjI0MzczOTEsMjQuMjc5MDg5NyBDMzguMjQ2NzY1OSwyNC4yMzYyODI4IDM4LjI1ODg3MywyNC4xOTY0NjI1IDM4LjI1ODg3MywyNC4xNTE2NjQ2IEMzOC4yNTg4NzMsMjEuOTQ3NjA4NSAzNC4xODI4MDkzLDIxLjE2NTEzODcgMzAuNjkxOTIzMSwyMS4xNjUxMzg3IEMyNy4yMDEwMzY5LDIxLjE2NTEzODcgMjMuMTI0OTczMiwyMS45NDc2MDg1IDIzLjEyNDk3MzIsMjQuMTUxNjY0NiBDMjMuMTI0OTczMiwyNC4xOTY0NjI1IDIzLjEzNzA4MDMsMjQuMjM2MjgyOCAyMy4xNDAxMDcxLDI0LjI3OTA4OTcgTDIzLjEzNDA1MzUsMjQuMjgwMDg1MiBaIE0zMC40NjY5MzI0LDE3LjA3ODU3NTcgQzM3LjQyMTQ2MzksMTcuMDc4NTc1NyA0My4wNzg1MTU2LDIyLjY2MDM5MjYgNDMuMDc4NTE1NiwyOS41MjI0MzM3IEM0My4wNzg1MTU2LDM2LjM4MzQ3OTIgMzcuNDIxNDYzOSw0MS45NjYyOTE2IDMwLjQ2NjkzMjQsNDEuOTY2MjkxNiBDMjMuNTEzNDA5OSw0MS45NjYyOTE2IDE3Ljg1NTM0OTMsMzYuMzgzNDc5MiAxNy44NTUzNDkzLDI5LjUyMjQzMzcgQzE3Ljg1NTM0OTMsMjIuNjYwMzkyNiAyMy41MTM0MDk5LDE3LjA3ODU3NTcgMzAuNDY2OTMyNCwxNy4wNzg1NzU3IEwzMC40NjY5MzI0LDE3LjA3ODU3NTcgWiBNMTIuMDI2NzgsMzMuMTExMjQyMyBMMTIuMDI2NzgsMzUuMTAyMjU5NiBMMTYuOTc2NTc0MSwzNS4xMDIyNTk2IEMxOS4xOTQxOTQ5LDQwLjI5ODgxNDcgMjQuNDA1MzAxMSw0My45NTczMDg5IDMwLjQ2NjkzMjQsNDMuOTU3MzA4OSBDMzguNTMzMzAxMSw0My45NTczMDg5IDQ1LjA5NjM2ODksMzcuNDgxNTI1MiA0NS4wOTYzNjg5LDI5LjUyMjQzMzcgQzQ1LjA5NjM2ODksMjEuNTYyMzQ2NiAzOC41MzMzMDExLDE1LjA4NzU1ODUgMzAuNDY2OTMyNCwxNS4wODc1NTg1IEMyMy45NDYyMzk1LDE1LjA4NzU1ODUgMTguNDEyMjc2OCwxOS4zMjA0NjEyIDE2LjUyOTYxOTYsMjUuMTQ3MTczMiBMMTIuMDI2NzgsMjUuMTQ3MTczMiBMMTIuMDI2NzgsMjcuMTM4MTkwNSBMMTYuMDU0NDE1MiwyNy4xMzgxOTA1IEMxNS45NDQ0NDIyLDI3Ljc4OTI1MzEgMTUuODc1ODM1MiwyOC40NTIyNjE5IDE1Ljg1NzY3NDUsMjkuMTI5MjA3OCBMOSwyOS4xMjkyMDc4IEw5LDMxLjEyMDIyNSBMMTUuOTMyMzM1LDMxLjEyMDIyNSBDMTYuMDA5MDEzNSwzMS44MDExNTI5IDE2LjE0NTIxODYsMzIuNDYyMTcwNyAxNi4zMTQ3MTgzLDMzLjExMTI0MjMgTDEyLjAyNjc4LDMzLjExMTI0MjMgWiBNNTIuMzQyNDgwMiw1MS4zNzg4MjU4IEM1MS41MjIyMjI4LDUyLjE4ODE3NDMgNTAuMTAwNjQ1Miw1Mi4xOTQxNDczIDQ5LjI4MTM5NjcsNTEuMzg1Nzk0MyBMNDEuOTQzNDczMSw0NC4xNDU0NiBDNDMuMDk4Njk0Miw0My4yNjI0NDM5IDQ0LjE1MTAwNDcsNDIuMjU2OTgwMSA0NS4wNjgxMTksNDEuMTM3MDMyOSBMNTIuMzUxNTYwNSw0OC4zNTg0NTI2IEM1Mi43NTkxNjY5LDQ4Ljc2MDYzODEgNTIuOTgzMTQ4Niw0OS4yOTcyMTcyIDUyLjk4MjE0MzEsNDkuODY3NjQzNyBDNTIuOTgxMTMwOCw1MC40MzkwNjU2IDUyLjc1NDEyMjMsNTAuOTc0NjQ5MyA1Mi4zNDI0ODAyLDUxLjM3ODgyNTggTDUyLjM0MjQ4MDIsNTEuMzc4ODI1OCBaIE01My43ODAyMDA3LDQ2Ljk1MTc5ODkgTDQ2LjI2MDY3MDMsMzkuNDk1NDM5MiBDNDguMTM2MjY1LDM2LjYxMjQ0NjIgNDkuMjM5MDIxOCwzMy4xOTQ4NjUgNDkuMjM5MDIxOCwyOS41MjI0MzM3IEM0OS4yMzkwMjE4LDE5LjMwODUxNTEgNDAuODE3NTExLDExIDMwLjQ2NjkzMjQsMTEgQzIzLjE1NTI0MSwxMSAxNi40NTc5ODU4LDE1LjIzNzg4MDMgMTMuNDAyOTU1OSwyMS43OTYyOTEyIEwxNS4yMzYxNzU3LDIyLjYyNzU0MDkgQzE3Ljk2MjI5NTUsMTYuNzcyOTU0NiAyMy45NDExOTQ4LDEyLjk5MTAxNzMgMzAuNDY2OTMyNCwxMi45OTEwMTczIEMzOS43MDU2NzM4LDEyLjk5MTAxNzMgNDcuMjIxMTY4NSwyMC40MDY1NjExIDQ3LjIyMTE2ODUsMjkuNTIyNDMzNyBDNDcuMjIxMTY4NSwzOC42MzczMTA3IDM5LjcwNTY3MzgsNDYuMDUyODU0NiAzMC40NjY5MzI0LDQ2LjA1Mjg1NDYgQzI0LjQxNDM4MTQsNDYuMDUyODU0NiAxOC44MTI4MjA2LDQyLjgxNDQ2NSAxNS44NDY1NzYzLDM3LjU5OTk5MDcgTDE0LjA4NzAwODIsMzguNTc0NTkzNyBDMTcuNDA5NDAzNyw0NC40MTUyNDI5IDIzLjY4NTkzNjQsNDguMDQzODcxOCAzMC40NjY5MzI0LDQ4LjA0Mzg3MTggQzM0LjA1NjY5MzUsNDguMDQzODcxOCAzNy40MDEyODUzLDQ3LjAyNzQ1NzUgNDAuMjU1NTM4OSw0NS4yOTYyNjggTDQ3Ljg1NTc4MzMsNTIuNzk0NDM5IEM0OC42NDM3NTUxLDUzLjU3MTkzMTMgNDkuNjkxMDIwOSw1NCA1MC44MDQ4NzYsNTQgQzUxLjkyMzc3NTYsNTQgNTIuOTc3MDk1LDUzLjU2ODk0NDggNTMuNzY2MDc1Nyw1Mi43ODg0NjYgQzU0LjU1OTA5Miw1Mi4wMTE5NjkzIDU0Ljk5Nzk3NTEsNTAuOTc1NjQ0OCA1NSw0OS44NzA2MzAyIEM1NS4wMDIwMTA4LDQ4Ljc2NzYwNjYgNTQuNTY4MTcyNCw0Ny43MzAyODY2IDUzLjc4MDIwMDcsNDYuOTUxNzk4OSBMNTMuNzgwMjAwNyw0Ni45NTE3OTg5IFoiIGlkPSJBbWF6b24tQXRoZW5hX0ljb25fNDhfU3F1aWQiIGZpbGw9IiNGRkZGRkYiPjwvcGF0aD4KICAgIDwvZz4KPC9zdmc+;points=[[0,0],[1,0],[1,1],[0,1],[0,0.167],[0.167,0],[1,0.167],[0.167,1],[0,0.333],[0.333,0],[1,0.333],[0.333,1],[0,0.5],[0.5,0],[1,0.5],[0.5,1],[0,0.667],[0.667,0],[1,0.667],[0.667,1],[0,0.833],[0.833,0],[1,0.833],[0.833,1]]" parent="1" vertex="1">
          <mxGeometry x="3119.5" y="943" width="50" height="50" as="geometry" />
        </mxCell>
        <mxCell id="J9Wh1ZANeh-PTkgw2Zvx-10" value="Action Groups" style="swimlane;fontStyle=0;childLayout=stackLayout;horizontal=1;startSize=30;horizontalStack=0;resizeParent=1;resizeParentMax=0;resizeLast=0;collapsible=1;marginBottom=0;whiteSpace=wrap;html=1;align=center;" parent="1" vertex="1">
          <mxGeometry x="3006" y="659" width="175" height="70" as="geometry" />
        </mxCell>
        <mxCell id="J9Wh1ZANeh-PTkgw2Zvx-11" value="&lt;div&gt;&amp;nbsp;Query the sales database&lt;/div&gt;" style="text;strokeColor=none;fillColor=none;align=left;verticalAlign=middle;spacingLeft=4;spacingRight=4;overflow=hidden;points=[[0,0.5],[1,0.5]];portConstraint=eastwest;rotatable=0;whiteSpace=wrap;html=1;" parent="J9Wh1ZANeh-PTkgw2Zvx-10" vertex="1">
          <mxGeometry y="30" width="175" height="40" as="geometry" />
        </mxCell>
        <mxCell id="J9Wh1ZANeh-PTkgw2Zvx-12" value="" style="rounded=1;whiteSpace=wrap;html=1;align=center;dashed=1;" parent="1" vertex="1">
          <mxGeometry x="3292" y="636" width="287" height="387" as="geometry" />
        </mxCell>
        <mxCell id="J9Wh1ZANeh-PTkgw2Zvx-13" value="Knowledge Base" style="swimlane;fontStyle=0;childLayout=stackLayout;horizontal=1;startSize=30;horizontalStack=0;resizeParent=1;resizeParentMax=0;resizeLast=0;collapsible=1;marginBottom=0;whiteSpace=wrap;html=1;" parent="1" vertex="1">
          <mxGeometry x="3319" y="673" width="140" height="60" as="geometry" />
        </mxCell>
        <mxCell id="J9Wh1ZANeh-PTkgw2Zvx-14" value="Products details" style="text;strokeColor=none;fillColor=none;align=center;verticalAlign=middle;spacingLeft=4;spacingRight=4;overflow=hidden;points=[[0,0.5],[1,0.5]];portConstraint=eastwest;rotatable=0;whiteSpace=wrap;html=1;" parent="J9Wh1ZANeh-PTkgw2Zvx-13" vertex="1">
          <mxGeometry y="30" width="140" height="30" as="geometry" />
        </mxCell>
        <mxCell id="J9Wh1ZANeh-PTkgw2Zvx-15" value="Amazon OpenSearch&#xa;Service" style="shape=image;verticalLabelPosition=bottom;verticalAlign=top;imageAspect=0;aspect=fixed;image=data:image/svg+xml,PD94bWwgdmVyc2lvbj0iMS4wIiBlbmNvZGluZz0iVVRGLTgiPz4KPHN2ZyB3aWR0aD0iNjRweCIgaGVpZ2h0PSI2NHB4IiB2aWV3Qm94PSIwIDAgNjQgNjQiIHZlcnNpb249IjEuMSIgeG1sbnM9Imh0dHA6Ly93d3cudzMub3JnLzIwMDAvc3ZnIiB4bWxuczp4bGluaz0iaHR0cDovL3d3dy53My5vcmcvMTk5OS94bGluayI+CiAgICA8IS0tIEdlbmVyYXRvcjogU2tldGNoIDY0ICg5MzUzNykgLSBodHRwczovL3NrZXRjaC5jb20gLS0+CiAgICA8dGl0bGU+SWNvbi1BcmNoaXRlY3R1cmUvNDgvQXJjaF9BbWF6b24tRWxhc3RpY3NlYXJjaC1TZXJ2aWNlXzQ4PC90aXRsZT4KICAgIDxkZXNjPkNyZWF0ZWQgd2l0aCBTa2V0Y2guPC9kZXNjPgogICAgPGRlZnM+CiAgICAgICAgPGxpbmVhckdyYWRpZW50IHgxPSIwJSIgeTE9IjEwMCUiIHgyPSIxMDAlIiB5Mj0iMCUiIGlkPSJsaW5lYXJHcmFkaWVudC0xIj4KICAgICAgICAgICAgPHN0b3Agc3RvcC1jb2xvcj0iIzREMjdBOCIgb2Zmc2V0PSIwJSI+PC9zdG9wPgogICAgICAgICAgICA8c3RvcCBzdG9wLWNvbG9yPSIjQTE2NkZGIiBvZmZzZXQ9IjEwMCUiPjwvc3RvcD4KICAgICAgICA8L2xpbmVhckdyYWRpZW50PgogICAgPC9kZWZzPgogICAgPGcgaWQ9Ikljb24tQXJjaGl0ZWN0dXJlLzQ4L0FyY2hfQW1hem9uLUVsYXN0aWNzZWFyY2gtU2VydmljZV80OCIgc3Ryb2tlPSJub25lIiBzdHJva2Utd2lkdGg9IjEiIGZpbGw9Im5vbmUiIGZpbGwtcnVsZT0iZXZlbm9kZCI+CiAgICAgICAgPGcgaWQ9Ikljb24tQXJjaGl0ZWN0dXJlLUJHLzQ4L0FuYWx5dGljcyIgZmlsbD0idXJsKCNsaW5lYXJHcmFkaWVudC0xKSI+CiAgICAgICAgICAgIDxyZWN0IGlkPSJSZWN0YW5nbGUiIHg9IjAiIHk9IjAiIHdpZHRoPSI2NCIgaGVpZ2h0PSI2NCI+PC9yZWN0PgogICAgICAgIDwvZz4KICAgICAgICA8cGF0aCBkPSJNMzUsNDEgQzMyLjI0Myw0MSAzMCwzOC43NTcgMzAsMzYgQzMwLDMzLjI0MyAzMi4yNDMsMzEgMzUsMzEgQzM3Ljc1NywzMSA0MCwzMy4yNDMgNDAsMzYgQzQwLDM4Ljc1NyAzNy43NTcsNDEgMzUsNDEgTDM1LDQxIFogTTM1LDI5IEMzMS4xNDEsMjkgMjgsMzIuMTQgMjgsMzYgQzI4LDM5Ljg2IDMxLjE0MSw0MyAzNSw0MyBDMzguODU5LDQzIDQyLDM5Ljg2IDQyLDM2IEM0MiwzMi4xNCAzOC44NTksMjkgMzUsMjkgTDM1LDI5IFogTTQ5LjcxLDQ4LjkxOSBDNDkuMjkxLDQ5LjM4NCA0OC41NjksNDkuNDIgNDguMTA2LDQ5LjAwNCBMNDIuNTQzLDQzLjk4NSBDNDMuMDkzLDQzLjQ2NiA0My41OTEsNDIuODk0IDQ0LjAyNCw0Mi4yNzEgTDQ5LjYyNSw0Ny4zMTYgQzUwLjA4OSw0Ny43MzYgNTAuMTI3LDQ4LjQ1NyA0OS43MSw0OC45MTkgTDQ5LjcxLDQ4LjkxOSBaIE0yNiwzNiBDMjYsMzEuMDM4IDMwLjAzNywyNyAzNSwyNyBDMzkuOTYzLDI3IDQ0LDMxLjAzOCA0NCwzNiBDNDQsNDAuOTYyIDM5Ljk2Myw0NSAzNSw0NSBDMzAuMDM3LDQ1IDI2LDQwLjk2MiAyNiwzNiBMMjYsMzYgWiBNNDUuMDMzLDQwLjQ4OCBDNDUuNjQ5LDM5LjExNiA0NiwzNy42IDQ2LDM2IEM0NiwyOS45MzUgNDEuMDY1LDI1IDM1LDI1IEMyOC45MzUsMjUgMjQsMjkuOTM1IDI0LDM2IEMyNCw0Mi4wNjUgMjguOTM1LDQ3IDM1LDQ3IEMzNy4xOTEsNDcgMzkuMjMsNDYuMzQ5IDQwLjk0Nyw0NS4yNCBMNDYuNzY5LDUwLjQ5MSBDNDcuMzY2LDUxLjAyNyA0OC4xMTYsNTEuMjkyIDQ4Ljg2Myw1MS4yOTIgQzQ5LjcyMiw1MS4yOTIgNTAuNTc3LDUwLjk0MyA1MS4xOTYsNTAuMjU5IEM1Mi4zNDksNDguOTc1IDUyLjI0Niw0Ni45OSA1MC45NjUsNDUuODMyIEw0NS4wMzMsNDAuNDg4IFogTTUzLDE3IEw1Myw0MyBMNTEsNDMgTDUxLDE4IEw0NiwxOCBMNDYsMjYgTDQ0LDI2IEw0NCwxNyBDNDQsMTYuNDQ4IDQ0LjQ0NywxNiA0NSwxNiBMNTIsMTYgQzUyLjU1MywxNiA1MywxNi40NDggNTMsMTcgTDUzLDE3IFogTTQwLDUwIEw0Miw1MCBMNDIsNTMgQzQyLDUzLjU1MiA0MS41NTMsNTQgNDEsNTQgTDM0LDU0IEMzMy40NDcsNTQgMzMsNTMuNTUyIDMzLDUzIEwzMyw0OSBMMzUsNDkgTDM1LDUyIEw0MCw1MiBMNDAsNTAgWiBNMzUsMjIgTDMzLDIyIEwzMywxMiBDMzMsMTEuNDQ4IDMzLjQ0NywxMSAzNCwxMSBMNDEsMTEgQzQxLjU1MywxMSA0MiwxMS40NDggNDIsMTIgTDQyLDIzIEw0MCwyMyBMNDAsMTMgTDM1LDEzIEwzNSwyMiBaIE0yOSw0OCBMMzEsNDggTDMxLDUzIEMzMSw1My41NTIgMzAuNTUzLDU0IDMwLDU0IEwyMyw1NCBDMjIuNDQ3LDU0IDIyLDUzLjU1MiAyMiw1MyBMMjIsNDMgTDI0LDQzIEwyNCw1MiBMMjksNTIgTDI5LDQ4IFogTTI0LDI4IEwyMiwyOCBMMjIsMTkgQzIyLDE4LjQ0OCAyMi40NDcsMTggMjMsMTggTDMwLDE4IEMzMC41NTMsMTggMzEsMTguNDQ4IDMxLDE5IEwzMSwyMyBMMjksMjMgTDI5LDIwIEwyNCwyMCBMMjQsMjggWiBNMTMsNTIgTDE4LDUyIEwxOCwyNiBMMTMsMjYgTDEzLDUyIFogTTE5LDI0IEwxMiwyNCBDMTEuNDQ3LDI0IDExLDI0LjQ0OCAxMSwyNSBMMTEsNTMgQzExLDUzLjU1MiAxMS40NDcsNTQgMTIsNTQgTDE5LDU0IEMxOS41NTMsNTQgMjAsNTMuNTUyIDIwLDUzIEwyMCwyNSBDMjAsMjQuNDQ4IDE5LjU1MywyNCAxOSwyNCBMMTksMjQgWiIgaWQ9IkFtYXpvbi1FbGFzdGljc2VhcmNoLVNlcnZpY2VfSWNvbl80OF9TcXVpZCIgZmlsbD0iI0ZGRkZGRiI+PC9wYXRoPgogICAgPC9nPgo8L3N2Zz4=;points=[[0,0],[1,0],[1,1],[0,1],[0,0.167],[0.167,0],[1,0.167],[0.167,1],[0,0.333],[0.333,0],[1,0.333],[0.333,1],[0,0.5],[0.5,0],[1,0.5],[0.5,1],[0,0.667],[0.667,0],[1,0.667],[0.667,1],[0,0.833],[0.833,0],[1,0.833],[0.833,1]]" parent="1" vertex="1">
          <mxGeometry x="3358" y="889" width="50" height="50" as="geometry" />
        </mxCell>
        <mxCell id="J9Wh1ZANeh-PTkgw2Zvx-16" value="Amazon S3" style="sketch=0;points=[[0,0,0],[0.25,0,0],[0.5,0,0],[0.75,0,0],[1,0,0],[0,1,0],[0.25,1,0],[0.5,1,0],[0.75,1,0],[1,1,0],[0,0.25,0],[0,0.5,0],[0,0.75,0],[1,0.25,0],[1,0.5,0],[1,0.75,0]];outlineConnect=0;fontColor=#232F3E;fillColor=#7AA116;strokeColor=#ffffff;dashed=0;verticalLabelPosition=bottom;verticalAlign=top;align=center;html=1;fontSize=12;fontStyle=0;aspect=fixed;shape=mxgraph.aws4.resourceIcon;resIcon=mxgraph.aws4.s3;" parent="1" vertex="1">
          <mxGeometry x="3463" y="889" width="50" height="50" as="geometry" />
        </mxCell>
        <mxCell id="J9Wh1ZANeh-PTkgw2Zvx-17" value="Amazon Titan&amp;nbsp;&lt;br&gt;embedding model" style="sketch=0;outlineConnect=0;fontColor=#232F3E;gradientColor=none;fillColor=#01A88D;strokeColor=none;dashed=0;verticalLabelPosition=bottom;verticalAlign=top;align=center;html=1;fontSize=12;fontStyle=0;aspect=fixed;pointerEvents=1;shape=mxgraph.aws4.sagemaker_model;" parent="1" vertex="1">
          <mxGeometry x="3494" y="661" width="50" height="50" as="geometry" />
        </mxCell>
        <mxCell id="J9Wh1ZANeh-PTkgw2Zvx-18" value="Knowledge base instructions" style="swimlane;fontStyle=0;childLayout=stackLayout;horizontal=1;startSize=30;horizontalStack=0;resizeParent=1;resizeParentMax=0;resizeLast=0;collapsible=1;marginBottom=0;whiteSpace=wrap;html=1;" parent="1" vertex="1">
          <mxGeometry x="3319" y="751" width="240" height="71" as="geometry" />
        </mxCell>
        <mxCell id="J9Wh1ZANeh-PTkgw2Zvx-19" value="Use this knowledge base &lt;br&gt;to access movie details" style="text;html=1;align=center;verticalAlign=middle;resizable=0;points=[];autosize=1;strokeColor=none;fillColor=none;" parent="J9Wh1ZANeh-PTkgw2Zvx-18" vertex="1">
          <mxGeometry y="30" width="240" height="41" as="geometry" />
        </mxCell>
        <mxCell id="J9Wh1ZANeh-PTkgw2Zvx-20" value="Amazon BedrockÂ &#xa;Agent" style="shape=image;verticalLabelPosition=bottom;labelBackgroundColor=default;verticalAlign=top;aspect=fixed;imageAspect=0;image=data:image/png,iVBORw0KGgoAAAANSUhEUgAAAHoAAAB4CAYAAAA9kebvAAAAAXNSR0IArs4c6QAAAIRlWElmTU0AKgAAAAgABQESAAMAAAABAAEAAAEaAAUAAAABAAAASgEbAAUAAAABAAAAUgEoAAMAAAABAAIAAIdpAAQAAAABAAAAWgAAAAAAAACQAAAAAQAAAJAAAAABAAOgAQADAAAAAQABAACgAgAEAAAAAQAAAHqgAwAEAAAAAQAAAHgAAAAAzuYkvAAAAAlwSFlzAAAWJQAAFiUBSVIk8AAAEJNJREFUeAHtXQe4FcUVPtQnRXq30dujIyAKCA9BUEyiWCkhxBg1FgRiYvkUMIl+xqCAosZEbGAjYgldOkYU6YKAVJVepEiH98j5F2adO++W3Xtn785d9nzfe7uzOzt75vw77cw55xYgpgLvDj+NY0jBlMDpWwcXKBjMqoW1UiUQAq1KJKDpEOiAAqtWKwRalUhA0yHQAQVWrVYItCqRgKZDoAMKrFqtEGhVIgFNh0AHFFi1WiHQqkQCmg6BDiiwarVCoFWJBDQdAh1QYNVqhUCrEgloOgQ6oMCq1QqBViUS0HQIdECBVatVWL2QSenelzSgYY3aUtGChejjrRto/A/f0vzdWyg0l8mPYkYC3bJsZRrVohO1rVDNrtE9dZoR/nYcPUwfbFkXgm5L5sxJARwyxWasYlYxerJJO+pfoxEVLGCxrlQnMhmCfkYesBnLCKALs2nbvdxah2S3pdJFs2w0j+eeoue+XUIzdnxHN1xYx/qrUqyEfV8+OZdBzwigu1a5hEY070T1S5WTcaNPeEwetHQObTx8wL6Or7Z9xQvppovqUk8GPhHoI/gj2XBov/18UE+MBrpmidL0XPOOdN0FtSLkv+bgj/TA0tk0nVtxPHIC+qZDB6jWpFfjFROIewDauMlYicJF6NGGbWhg3RaUVSiSPbTgF9Yto1On8xICgJn3PJ6B4+/+JbOitvQaJUsnLCdahkalK9Dgei2pc+WLqVJWcdp1/AjN3Pk9DV+7mFYe2BPtEd+vGTVGY7n0dNP2VK1YyaiCKfjes1Gvu7mICufeMsh+xG2ZmCs816wjFSqYXwWRm5dHA5ed+RjtFxhwYkyLjrZcgnwW7NkWsYTSIbNU1tgY+0e1yInJBsDH/Z3HjljLu5gZfbiR/7NMIxNYLv2rVRda2KVXBKDbjh6ivl9MoStmvptGbuK/CkoZzBkEfbZ7K7WcPpayxo+wjkgLQr4iUVq8uO/HMXIQTCMH99dpzlqty6Mul/72zZd0+NTJNHKT+FWdKl1kDylbjvxE3edNsHlcum+XlV7d/Td0YfHzrXw5lS6maTs2Jy44TTl8adF9eCwewZoteU2M5VL2lDfokRWf2QJMkwwcvSa7dHk73wTWvKkfItK4LkjOL675efSlRdcqWcau8/qf9tG9PCtOtFyyH/DppCBZ81bHb3eX23GxSWf0pUXL3I77bo3xIINfedkELRyWgTIhjeuCVh3YK06NOPoOtBFScMDEzF3f03aeJIIwDk/pcAM1L1vJmnThiDSug5AP+U0iX7pukwTglJeTvEYewAqb9y/vYT3SruIFtLhrn6iPIx/ym0SBABqbHYKGrVogTrUf/8P73fcsnkkjWfdeOMry6ZT1Mcwm5DONggE0Gx8I8hJovOOl9ctpzq4faBCrQG+v2Vi8ll7d+DU9yyrQ1ayLN5HCMToJVADmHV99GvEk0qaCDEZDoCPgCm4iBDq42EbUzPgx2u3uUkTtwoQtgbBF26II9kkIdLDxtWsXAm2LItgnxo/RXotfVrZ4/S4/y0870NdWrUF9qzew64zzRT/uoEnbN9nXnJ7AtvvBepc6zR413xBJ2RI1Q0Aupg3ohqXKWxYaXdh8V6aavGX53w7X06ds1TmQdcTfHHS269OAzX9fa301tS5f1S5urU9aKWy1mk6eA12u6Hn0BFuS3FmrSYRB3f4TxyzZlOH7IHwAy6/uS//csIKGrPyc9p69b92U/olWPJRbomwlunDvdurD5kduaSi/KxU6wfrt979fm0oRaXnWM6DhXQFfqCHZl5EAEzWCpaQAE2mYE4mPAMZ1f+Bnel1Sn55Y9UU+01604tdbd6NW5avgUYvgrTF05QJ6Zu0iyjvt3vQP7zkXyBOgMQ4PZwO5uueXjZBhtO4Z1iUv8kYBDOpEt44P41lO31W7KQ3m7nwK215hLI7WivsvnGa0jjlCAD4mtAIN74qXLr3KBkzU61sewwBYrAkXxuWr535A6geCDwXj985jh6nyeT/7VKXaigVffh5hJdqZDQjhDJDHjr6wSJnNu2In8nI9YUsr0NM79iRMrgRhHI7WBYv76hEfwjSelMFI/nGpy5dBxlic6a34RrYPH8k9VlXFUQFmzpiQws9bN2lVmMggv8iuM7UnjSE4sjlxoREVQ148U4efRRkyPbx8Pl3Ott4mbwfK/EY7v5uHI1ipqCAjLzxU3uN7+NB1k1agZeYw9v4YY+aMiVoFNt6PR5h1owyZnl7zVVITLrkMP88xmYR1iiDYh4/ijxp/OBcElx906TrJM6BjMYlxeGX3fvRGm26xsgT2OqxShAkSPDsaTHmdPUPnWH84F94eWH3AiU8naR2j4zGmKkww0epWpTpN9dmbIU9yuIvHv+57A9j1V3YCwDmuCYNDeGrqJM+BLs9LJXmtLJjHRK1c1hllibh2Lh1lO3FRb/ka3HF1kmdAi3AU8uwZjAuFyeOskYo1huusoKllYQyGz5ZM8rgMn2ud5BnQGIedKEziVaaqtHZGPqS385paJ6XTggWeo8JyFJMy2VEPnh7yRA2O9TrJM6BlkBMpTNQKFeJdqQEc8UDdQlxzTX+COe9InqXmJqHuVN+T7jTMgftVz7YmZHAAgPelcMyDO4/w9ECvh+gJOskzoMEkxuFhrEse7TAcBZ65koPNvNAyh7KjLC/OL1KU/tHsSg4/lU33Lp5FczlsRSYR1v+YcI1u2dliG8Dezx+0SoiaII/X6v1k0p4tr4TCBK3PicIE3fK4y66h2Tk3R4C8imOC3Mk20zgKwkeAfMhfReneRR5Tj3AAuPnzibYfl8wnNGO38D3EadFNnrVoVdkRj/F+1RtaISHQYgX9dPIE70p9TqPWLbW66TGbVhKc54fybpfIdxvvcvWoVtMKRvPG5m/Eo8Yf4bLz8db1+XTds9gxzyufLc+AdiPtPceP2uDhuXfYlXbwsrm0Q5p4YUxG8Lh3eO93OHffABkE0PF8phEAhQ4hXXoEI4DGZsbEbRupRolSCcdegN/7i8n0ChsoYCzfdPhgzF2xTAPfS36NABoV7PflVDp48rjj2TQmYs2mvUWlivwcMjIZQakz+2TKEM8cYyOI935YS5v54zONjAF6X4wNkHgCQ3eezHNymbqNA7EsxAeoW+Eh85zMuWez7mSYCcIziD/6dttrXEY88b7mxrRotaowAizOISIPeRyGKlXjQME3NFuD2dwJfOfwhsRjbDhhkj2aZ0C/wBH0ktVnCyPAzUcOWutKIcxUjyUZDHVM1gkGdqCw/AM9zlEY5vNWJMyDTCCtQG/kkMjCyiSeNWesiqumvLD2HM9mNzpCRdx6cT1LqxYrzmgsntxc/wtrATuwZg8tGnVBF45rvTiuWvMyFa2J5iq2jxu7eTW9snGFZ2vmaDxb4bB0ReBP1jgQjIlWrJryDuL1NLRJyRL2wbEM68iR/6KR7k2NyucVp6Vd+8aMFS54WMY7Vz3mf0TQhnlNCPqqdTKGIOmw5rxu3oeEjQxBwppz2pU9CYKXCV/+n+u3oiUc4UcGGUaALTjWZrIgo5t+pmkHWsZOATLIXgsWAV9hvJiImnHIqontf5W2mKFagRaVgwKkEYd7RHxt4ZGBe8IbA+M3DBLQihd0vo2e4tDNwusCprypGgGim8ZO1+D6l9qmO4gYNHzNIqo/+TXBpmfH2pIl7IncXHpgyWwqN2G09YdzXAMB7N/XbOIZH3LBWsdouWBhzfkW66BlCxPZG6MYz6oFwHg2VVPeWN00ogghbFS6rEdlJ8I/LZ9n6euFbKC7ByEWKqgPOxmOXq9/E8MqXPrnSYuWyrd8qLDB0ZSVCPDUEARvDAFyqq04Xjfda8Ekypk9Pm0go36NpS3WN6NstsjXspWhTMhH99GzFq0yKntjjOSvWczOV+zfTbcxGMm2tmizaXTT2B6FkUKidbhb40B4TnabOyHiR1vUuroxinDvLaa+zVna8xatsoHx+y1eXgj6cMv6pEBGNz2r0028hLnWjqONMtFNN532Jj3IXWYikAUPbo612Xr1Zp4DxCMsoQT9mrdgVZKvOXUTVstwm05bi3bLWKz8QukBnbKwkUZezKb/yEuxd9PgwprF0fjjEdbJbc76bf+dZ/4g0V0DZHEN15E3HZRRQKfaTUcTqNN1NDRqTjdAoAy5vWYja1ZdtFAha+IlJl8yD1hLI286KCOANmU27RQQGBVAGYJ1MpZQ0UgoTLyyKFHfaTTQJnTTqsCcpjGUtJnxtrVOxhJKzK79UoEaDTS6Syg9BLmZTYtn/DyitWKNnI51cqJ6pn3WnYgh+f5TqxfS3rP2YF7PpuX3BvHc6BYNl537zrrOpmM2HUSARZ2MBhpM+g0wfMh+yzNoYXUKnnAO16AxG1c6slnHM36T8UD7KSBsOU5sfz21LFc5gg3sxr3MsVru4Aj8PeZ/aP1EYUQGAxNGj9F+ygsteTL/8o0KsswT7iEP8ppO5nPoQoL4rUvsQeN3JFOlu2o3sX7uCOXE22rETyEhr+kUGKB/x92o2IN+uEHrlOWOn1UUJLYa97PdOf6w1YhrguS84pppR9+B7s0Tm65VIuODuhESjBfm5dxCr7DvcVne+gQ91KAVxyVLLWKA7JQu9NQyX/I1Oa+cx6RzX4DewEaEgrAbNJVNjD5q90uCzZlTwsbCXxtfYZkKwddYELYRr2P1I0x6UiE34SbdbEumwlMqz/oC9NjvVtMANqk5cOK4zfsvLqhFqzhKwpNN2uX73Uc709mTq9jKEhEVHmnYhm2uzozHJzniHn6OuPHUN2mGhmgBJm41qnJwk/YFaDD4PI9zdSePsX4YTLQeWJw8xOPrWrb36i2NkaJCmGyNvaw7Te94I8m/WIuwTXCDeezr/9FxTSEW5e1DbCvCZbcM+3nhD+d+bDUKOSRz1GrumwwDeKYFz1yfZ4PBthWqRRSxYM82SzO2hLfzsO0H4YpxGBnhd4VJ0ausuHBDslVJrG1KxOr88qpeMXefxPuwC4XNi3TtQon3ujnC3NcIhQmAvIJDP6IVP80WocLIHsAv7NKb1vG4W48nXTKN4w37Qcvm0G6XvtHWly0XFOPcxK3GGKw6umwE0ILTcTx2f8SRAB7lsXcgW5CgK4fdtwwyJnJ3L5rhahwGuO3Zg+Im9vroKf3Gs3hvrKNpW42x+HRy3SigwTD8lx5Z8Rn9ewP/qCdHwMUkTSa0NICfiFRw4eWoElyIEpFJW42JeI1335KYLpeceC9K9h7W2CM4Jld9pev+ZOsGy0EA3iGCnICLvDuOHqYPtqyzogjLSz1RTtCOGKONBxpChy75PiuGd1sqXfTnCAewB0dcE9iLI04XuuVoLRdlAFzE9HqfA8XM52gJ6TKzxbv9powBWggKyyuss/vXaOSo+z6XwRUyw9GYWbfMVLxzzLDxO80vr1/B4ao65VuO4VnRLSOK/bnWcuPJzrjJWDxmxb3F+3bayzGoQbHmhSNACK6QUP5jRgItqoHlGP5CSiwB31SgiVkLc+iUQAi0TmkaXFYItMHg6GQtBFqnNA0uKwTaYHB0shYCrVOaBpcVAm0wODpZC4HWKU2DywqBNhgcnayFQOuUpsFlhUAbDI5O1kKgdUrT4LJCoA0GRydrIdA6pWlwWSHQBoOjk7UQaJ3SNLisEGiDwdHJ2v8BpSjY9PomFG4AAAAASUVORK5CYII=;" parent="1" vertex="1">
          <mxGeometry x="2993" y="360" width="50" height="49.18" as="geometry" />
        </mxCell>
        <mxCell id="J9Wh1ZANeh-PTkgw2Zvx-21" value="Prompt" style="swimlane;fontStyle=0;childLayout=stackLayout;horizontal=1;startSize=30;horizontalStack=0;resizeParent=1;resizeParentMax=0;resizeLast=0;collapsible=1;marginBottom=0;whiteSpace=wrap;html=1;" parent="1" vertex="1">
          <mxGeometry x="3076.5" y="210" width="149" height="158" as="geometry">
            <mxRectangle x="320" y="80" width="80" height="30" as="alternateBounds" />
          </mxGeometry>
        </mxCell>
        <mxCell id="J9Wh1ZANeh-PTkgw2Zvx-22" value="Conversation History" style="text;strokeColor=default;fillColor=none;align=left;verticalAlign=middle;spacingLeft=4;spacingRight=4;overflow=hidden;points=[[0,0.5],[1,0.5]];portConstraint=eastwest;rotatable=0;whiteSpace=wrap;html=1;" parent="J9Wh1ZANeh-PTkgw2Zvx-21" vertex="1">
          <mxGeometry y="30" width="149" height="30" as="geometry" />
        </mxCell>
        <mxCell id="J9Wh1ZANeh-PTkgw2Zvx-23" value="Action Groups, Knowledge Bases" style="text;strokeColor=default;fillColor=none;align=left;verticalAlign=middle;spacingLeft=4;spacingRight=4;overflow=hidden;points=[[0,0.5],[1,0.5]];portConstraint=eastwest;rotatable=0;whiteSpace=wrap;html=1;" parent="J9Wh1ZANeh-PTkgw2Zvx-21" vertex="1">
          <mxGeometry y="60" width="149" height="30" as="geometry" />
        </mxCell>
        <mxCell id="J9Wh1ZANeh-PTkgw2Zvx-24" value="User Input" style="text;strokeColor=default;fillColor=none;align=left;verticalAlign=middle;spacingLeft=4;spacingRight=4;overflow=hidden;points=[[0,0.5],[1,0.5]];portConstraint=eastwest;rotatable=0;whiteSpace=wrap;html=1;" parent="J9Wh1ZANeh-PTkgw2Zvx-21" vertex="1">
          <mxGeometry y="90" width="149" height="30" as="geometry" />
        </mxCell>
        <mxCell id="J9Wh1ZANeh-PTkgw2Zvx-25" value="Instructions (You are an agent ... )" style="text;strokeColor=default;fillColor=none;align=left;verticalAlign=middle;spacingLeft=4;spacingRight=4;overflow=hidden;points=[[0,0.5],[1,0.5]];portConstraint=eastwest;rotatable=0;whiteSpace=wrap;html=1;" parent="J9Wh1ZANeh-PTkgw2Zvx-21" vertex="1">
          <mxGeometry y="120" width="149" height="38" as="geometry" />
        </mxCell>
        <mxCell id="J9Wh1ZANeh-PTkgw2Zvx-26" value="Chain-of-Thoughts&amp;nbsp;&lt;div&gt;(CoT)&lt;/div&gt;" style="swimlane;fontStyle=0;childLayout=stackLayout;horizontal=1;startSize=30;horizontalStack=0;resizeParent=1;resizeParentMax=0;resizeLast=0;collapsible=1;marginBottom=0;whiteSpace=wrap;html=1;" parent="1" vertex="1">
          <mxGeometry x="3482" y="371" width="140" height="150" as="geometry" />
        </mxCell>
        <mxCell id="J9Wh1ZANeh-PTkgw2Zvx-27" value="Step 1" style="text;strokeColor=none;fillColor=none;align=left;verticalAlign=middle;spacingLeft=4;spacingRight=4;overflow=hidden;points=[[0,0.5],[1,0.5]];portConstraint=eastwest;rotatable=0;whiteSpace=wrap;html=1;" parent="J9Wh1ZANeh-PTkgw2Zvx-26" vertex="1">
          <mxGeometry y="30" width="140" height="30" as="geometry" />
        </mxCell>
        <mxCell id="J9Wh1ZANeh-PTkgw2Zvx-28" value="Step 2" style="text;strokeColor=none;fillColor=none;align=left;verticalAlign=middle;spacingLeft=4;spacingRight=4;overflow=hidden;points=[[0,0.5],[1,0.5]];portConstraint=eastwest;rotatable=0;whiteSpace=wrap;html=1;" parent="J9Wh1ZANeh-PTkgw2Zvx-26" vertex="1">
          <mxGeometry y="60" width="140" height="30" as="geometry" />
        </mxCell>
        <mxCell id="J9Wh1ZANeh-PTkgw2Zvx-29" value="..." style="text;strokeColor=none;fillColor=none;align=left;verticalAlign=middle;spacingLeft=4;spacingRight=4;overflow=hidden;points=[[0,0.5],[1,0.5]];portConstraint=eastwest;rotatable=0;whiteSpace=wrap;html=1;" parent="J9Wh1ZANeh-PTkgw2Zvx-26" vertex="1">
          <mxGeometry y="90" width="140" height="30" as="geometry" />
        </mxCell>
        <mxCell id="J9Wh1ZANeh-PTkgw2Zvx-30" value="Step n" style="text;strokeColor=none;fillColor=none;align=left;verticalAlign=middle;spacingLeft=4;spacingRight=4;overflow=hidden;points=[[0,0.5],[1,0.5]];portConstraint=eastwest;rotatable=0;whiteSpace=wrap;html=1;" parent="J9Wh1ZANeh-PTkgw2Zvx-26" vertex="1">
          <mxGeometry y="120" width="140" height="30" as="geometry" />
        </mxCell>
        <mxCell id="J9Wh1ZANeh-PTkgw2Zvx-31" value="Amazon Bedrock&lt;br&gt;Foundation Model" style="sketch=0;outlineConnect=0;fontColor=#232F3E;gradientColor=none;fillColor=#01A88D;strokeColor=none;dashed=0;verticalLabelPosition=bottom;verticalAlign=top;align=center;html=1;fontSize=12;fontStyle=0;aspect=fixed;pointerEvents=1;shape=mxgraph.aws4.sagemaker_model;" parent="1" vertex="1">
          <mxGeometry x="3400" y="406" width="50" height="50" as="geometry" />
        </mxCell>
        <mxCell id="J9Wh1ZANeh-PTkgw2Zvx-32" value="" style="endArrow=classic;html=1;rounded=0;strokeColor=#000000;strokeWidth=1;exitX=1;exitY=0.5;exitDx=0;exitDy=0;entryX=0.009;entryY=0.094;entryDx=0;entryDy=0;entryPerimeter=0;" parent="1" source="J9Wh1ZANeh-PTkgw2Zvx-20" target="J9Wh1ZANeh-PTkgw2Zvx-26" edge="1">
          <mxGeometry width="50" height="50" relative="1" as="geometry">
            <mxPoint x="2964" y="363" as="sourcePoint" />
            <mxPoint x="3413" y="385" as="targetPoint" />
            <Array as="points">
              <mxPoint x="3230" y="385" />
            </Array>
          </mxGeometry>
        </mxCell>
        <mxCell id="J9Wh1ZANeh-PTkgw2Zvx-33" value="" style="endArrow=classic;html=1;rounded=0;strokeColor=#000000;strokeWidth=1;exitX=0;exitY=0.98;exitDx=0;exitDy=0;exitPerimeter=0;" parent="1" source="J9Wh1ZANeh-PTkgw2Zvx-30" edge="1">
          <mxGeometry width="50" height="50" relative="1" as="geometry">
            <mxPoint x="3483" y="523" as="sourcePoint" />
            <mxPoint x="3018" y="446" as="targetPoint" />
            <Array as="points">
              <mxPoint x="3164" y="523" />
              <mxPoint x="3018" y="523" />
            </Array>
          </mxGeometry>
        </mxCell>
        <mxCell id="J9Wh1ZANeh-PTkgw2Zvx-34" value="" style="shape=actor;whiteSpace=wrap;html=1;" parent="1" vertex="1">
          <mxGeometry x="2688" y="346.5" width="40" height="60" as="geometry" />
        </mxCell>
        <mxCell id="J9Wh1ZANeh-PTkgw2Zvx-35" value="" style="endArrow=classic;startArrow=none;html=1;rounded=0;entryX=0;entryY=0.5;entryDx=0;entryDy=0;entryPerimeter=0;strokeWidth=1;startFill=0;" parent="1" edge="1">
          <mxGeometry width="50" height="50" relative="1" as="geometry">
            <mxPoint x="2732" y="377" as="sourcePoint" />
            <mxPoint x="2878" y="376.5" as="targetPoint" />
          </mxGeometry>
        </mxCell>
        <mxCell id="J9Wh1ZANeh-PTkgw2Zvx-36" value="Prompt" style="text;html=1;align=center;verticalAlign=middle;resizable=0;points=[];autosize=1;strokeColor=none;fillColor=none;labelBackgroundColor=default;" parent="1" vertex="1">
          <mxGeometry x="2775" y="363.5" width="57" height="26" as="geometry" />
        </mxCell>
        <mxCell id="J9Wh1ZANeh-PTkgw2Zvx-37" value="Input&lt;br&gt;E.g. what are top items sold per region?" style="rounded=1;whiteSpace=wrap;html=1;" parent="1" vertex="1">
          <mxGeometry x="2743" y="298" width="125" height="61" as="geometry" />
        </mxCell>
        <mxCell id="J9Wh1ZANeh-PTkgw2Zvx-38" value="1" style="ellipse;whiteSpace=wrap;html=1;aspect=fixed;" parent="1" vertex="1">
          <mxGeometry x="2708" y="297.5" width="25" height="25" as="geometry" />
        </mxCell>
        <mxCell id="J9Wh1ZANeh-PTkgw2Zvx-39" value="2" style="ellipse;whiteSpace=wrap;html=1;aspect=fixed;" parent="1" vertex="1">
          <mxGeometry x="3046.5" y="210" width="25" height="25" as="geometry" />
        </mxCell>
        <mxCell id="J9Wh1ZANeh-PTkgw2Zvx-40" value="4" style="ellipse;whiteSpace=wrap;html=1;aspect=fixed;" parent="1" vertex="1">
          <mxGeometry x="3200" y="539.5" width="25" height="25" as="geometry" />
        </mxCell>
        <mxCell id="J9Wh1ZANeh-PTkgw2Zvx-41" value="3" style="ellipse;whiteSpace=wrap;html=1;aspect=fixed;" parent="1" vertex="1">
          <mxGeometry x="3461" y="337.5" width="25" height="25" as="geometry" />
        </mxCell>
        <mxCell id="J9Wh1ZANeh-PTkgw2Zvx-42" value="Chain-of-Thought Reasoning" style="text;html=1;align=center;verticalAlign=middle;resizable=0;points=[];autosize=1;strokeColor=none;fillColor=none;labelBackgroundColor=default;" parent="1" vertex="1">
          <mxGeometry x="3478" y="337.5" width="172" height="26" as="geometry" />
        </mxCell>
        <mxCell id="J9Wh1ZANeh-PTkgw2Zvx-43" value="Executing tasks" style="text;html=1;align=center;verticalAlign=middle;resizable=0;points=[];autosize=1;strokeColor=none;fillColor=none;" parent="1" vertex="1">
          <mxGeometry x="3215" y="536" width="110" height="30" as="geometry" />
        </mxCell>
        <mxCell id="J9Wh1ZANeh-PTkgw2Zvx-46" value="" style="endArrow=classic;html=1;rounded=0;exitX=0;exitY=0.75;exitDx=0;exitDy=0;exitPerimeter=0;entryX=1.013;entryY=0.846;entryDx=0;entryDy=0;entryPerimeter=0;strokeWidth=1;" parent="1" target="J9Wh1ZANeh-PTkgw2Zvx-34" edge="1">
          <mxGeometry width="50" height="50" relative="1" as="geometry">
            <mxPoint x="2878" y="395.99999999999955" as="sourcePoint" />
            <mxPoint x="2748" y="397.5" as="targetPoint" />
          </mxGeometry>
        </mxCell>
        <mxCell id="J9Wh1ZANeh-PTkgw2Zvx-47" value="Final response" style="edgeLabel;html=1;align=center;verticalAlign=middle;resizable=0;points=[];" parent="J9Wh1ZANeh-PTkgw2Zvx-46" vertex="1" connectable="0">
          <mxGeometry x="-0.0842" relative="1" as="geometry">
            <mxPoint as="offset" />
          </mxGeometry>
        </mxCell>
        <mxCell id="J9Wh1ZANeh-PTkgw2Zvx-48" value="5" style="ellipse;whiteSpace=wrap;html=1;aspect=fixed;" parent="1" vertex="1">
          <mxGeometry x="2790.5" y="410" width="25" height="25" as="geometry" />
        </mxCell>
        <mxCell id="J9Wh1ZANeh-PTkgw2Zvx-49" value="Steps 3 and 4 will continue as a loop until the agent returns a response to the user or it cannot answer the question" style="text;html=1;strokeColor=none;fillColor=none;align=center;verticalAlign=middle;whiteSpace=wrap;rounded=0;" parent="1" vertex="1">
          <mxGeometry x="3130" y="435" width="220" height="30" as="geometry" />
        </mxCell>
        <mxCell id="J9Wh1ZANeh-PTkgw2Zvx-51" value="" style="endArrow=classic;html=1;rounded=0;strokeColor=#000000;strokeWidth=1;entryX=0.5;entryY=0;entryDx=0;entryDy=0;" parent="1" target="J9Wh1ZANeh-PTkgw2Zvx-1" edge="1">
          <mxGeometry width="50" height="50" relative="1" as="geometry">
            <mxPoint x="3261" y="578" as="sourcePoint" />
            <mxPoint x="3083" y="656" as="targetPoint" />
            <Array as="points">
              <mxPoint x="3099" y="577" />
            </Array>
          </mxGeometry>
        </mxCell>
        <mxCell id="J9Wh1ZANeh-PTkgw2Zvx-52" value="&lt;span style=&quot;color: rgba(0, 0, 0, 0); font-family: monospace; font-size: 0px; text-align: start;&quot;&gt;%3CmxGraphModel%3E%3Croot%3E%3CmxCell%20id%3D%220%22%2F%3E%3CmxCell%20id%3D%221%22%20parent%3D%220%22%2F%3E%3CmxCell%20id%3D%222%22%20value%3D%22Search%20Knowledge%20Base%22%20style%3D%22edgeLabel%3Bhtml%3D1%3Balign%3Dcenter%3BverticalAlign%3Dmiddle%3Bresizable%3D0%3Bpoints%3D%5B%5D%3B%22%20vertex%3D%221%22%20connectable%3D%220%22%20parent%3D%221%22%3E%3CmxGeometry%20x%3D%222313.9968761052764%22%20y%3D%22511.31651667634446%22%20as%3D%22geometry%22%2F%3E%3C%2FmxCell%3E%3C%2Froot%3E%3C%2FmxGraphModel%3E&lt;/span&gt;" style="edgeLabel;html=1;align=center;verticalAlign=middle;resizable=0;points=[];" parent="J9Wh1ZANeh-PTkgw2Zvx-51" vertex="1" connectable="0">
          <mxGeometry x="-0.0244" y="1" relative="1" as="geometry">
            <mxPoint x="26" y="-2" as="offset" />
          </mxGeometry>
        </mxCell>
        <mxCell id="J9Wh1ZANeh-PTkgw2Zvx-53" value="Query Database" style="edgeLabel;html=1;align=center;verticalAlign=middle;resizable=0;points=[];" parent="J9Wh1ZANeh-PTkgw2Zvx-51" vertex="1" connectable="0">
          <mxGeometry x="-0.0141" y="1" relative="1" as="geometry">
            <mxPoint x="29" y="-1" as="offset" />
          </mxGeometry>
        </mxCell>
        <mxCell id="J9Wh1ZANeh-PTkgw2Zvx-54" value="" style="endArrow=classic;html=1;rounded=0;strokeColor=#000000;strokeWidth=1;entryX=0.532;entryY=0.005;entryDx=0;entryDy=0;entryPerimeter=0;" parent="1" target="J9Wh1ZANeh-PTkgw2Zvx-12" edge="1">
          <mxGeometry width="50" height="50" relative="1" as="geometry">
            <mxPoint x="3260" y="521" as="sourcePoint" />
            <mxPoint x="3445" y="632" as="targetPoint" />
            <Array as="points">
              <mxPoint x="3260" y="578" />
              <mxPoint x="3445" y="578" />
            </Array>
          </mxGeometry>
        </mxCell>
        <mxCell id="J9Wh1ZANeh-PTkgw2Zvx-55" value="Search Knowledge Base" style="edgeLabel;html=1;align=center;verticalAlign=middle;resizable=0;points=[];" parent="J9Wh1ZANeh-PTkgw2Zvx-54" vertex="1" connectable="0">
          <mxGeometry x="-0.301" y="4" relative="1" as="geometry">
            <mxPoint x="42" y="4" as="offset" />
          </mxGeometry>
        </mxCell>
        <mxCell id="J9Wh1ZANeh-PTkgw2Zvx-60" value="&lt;div style=&quot;forced-color-adjust: none; color: rgb(0, 0, 0); font-family: Helvetica; font-size: 12px; font-style: normal; font-variant-ligatures: normal; font-variant-caps: normal; font-weight: 400; letter-spacing: normal; orphans: 2; text-align: center; text-indent: 0px; text-transform: none; widows: 2; word-spacing: 0px; -webkit-text-stroke-width: 0px; white-space: nowrap; background-color: rgb(255, 255, 255); text-decoration-thickness: initial; text-decoration-style: initial; text-decoration-color: initial;&quot;&gt;/query&amp;nbsp;&lt;/div&gt;&lt;div style=&quot;forced-color-adjust: none; color: rgb(0, 0, 0); font-family: Helvetica; font-size: 12px; font-style: normal; font-variant-ligatures: normal; font-variant-caps: normal; font-weight: 400; letter-spacing: normal; orphans: 2; text-align: center; text-indent: 0px; text-transform: none; widows: 2; word-spacing: 0px; -webkit-text-stroke-width: 0px; white-space: nowrap; background-color: rgb(255, 255, 255); text-decoration-thickness: initial; text-decoration-style: initial; text-decoration-color: initial;&quot;&gt;Parameter: sql-query&lt;/div&gt;" style="text;whiteSpace=wrap;html=1;" parent="1" vertex="1">
          <mxGeometry x="3084" y="783" width="121" height="43" as="geometry" />
        </mxCell>
        <mxCell id="J9Wh1ZANeh-PTkgw2Zvx-6" value="AmazonÂ &#xa;API&#xa;Gateway" style="shape=image;verticalLabelPosition=bottom;verticalAlign=top;imageAspect=0;aspect=fixed;image=data:image/svg+xml,PD94bWwgdmVyc2lvbj0iMS4wIiBlbmNvZGluZz0iVVRGLTgiPz4KPHN2ZyB3aWR0aD0iNjRweCIgaGVpZ2h0PSI2NHB4IiB2aWV3Qm94PSIwIDAgNjQgNjQiIHZlcnNpb249IjEuMSIgeG1sbnM9Imh0dHA6Ly93d3cudzMub3JnLzIwMDAvc3ZnIiB4bWxuczp4bGluaz0iaHR0cDovL3d3dy53My5vcmcvMTk5OS94bGluayI+CiAgICA8dGl0bGU+SWNvbi1BcmNoaXRlY3R1cmUvNDgvQXJjaF9BbWF6b24tQVBJLUdhdGV3YXlfNDg8L3RpdGxlPgogICAgPGcgaWQ9Ikljb24tQXJjaGl0ZWN0dXJlLzQ4L0FyY2hfQW1hem9uLUFQSS1HYXRld2F5XzQ4IiBzdHJva2U9Im5vbmUiIHN0cm9rZS13aWR0aD0iMSIgZmlsbD0ibm9uZSIgZmlsbC1ydWxlPSJldmVub2RkIj4KICAgICAgICA8ZyBpZD0iSWNvbi1BcmNoaXRlY3R1cmUtQkcvNDgvQXBwbGljYXRpb24tSW50ZWdyYXRpb24iIGZpbGw9IiNFNzE1N0IiPgogICAgICAgICAgICA8cmVjdCBpZD0iUmVjdGFuZ2xlIiB4PSIwIiB5PSIwIiB3aWR0aD0iNjQiIGhlaWdodD0iNjQiPjwvcmVjdD4KICAgICAgICA8L2c+CiAgICAgICAgPGcgaWQ9Ikljb24tU2VydmljZS80OC9BbWF6b24tQVBJLUdhdGV3YXlfNDgiIHRyYW5zZm9ybT0idHJhbnNsYXRlKDEwLjAwMDAwMCwgMTAuMDAwMDAwKSIgZmlsbD0iI0ZGRkZGRiI+CiAgICAgICAgICAgIDxwYXRoIGQ9Ik0xOCwzMy45OTk5NDQxIEwyMSwzMy45OTk5NDQxIEwyMSwzMS45OTk5MzMgTDE4LDMxLjk5OTkzMyBMMTgsMzMuOTk5OTQ0MSBaIE0yMywzMy45OTk5NDQxIEwyNiwzMy45OTk5NDQxIEwyNiwzMS45OTk5MzMgTDIzLDMxLjk5OTkzMyBMMjMsMzMuOTk5OTQ0MSBaIE0xOCwxMS45OTk4MjEyIEwyMSwxMS45OTk4MjEyIEwyMSw5Ljk5OTgxMDA1IEwxOCw5Ljk5OTgxMDA1IEwxOCwxMS45OTk4MjEyIFogTTIzLDExLjk5OTgyMTIgTDI2LDExLjk5OTgyMTIgTDI2LDkuOTk5ODEwMDUgTDIzLDkuOTk5ODEwMDUgTDIzLDExLjk5OTgyMTIgWiBNMTIsMi43NDA3Njk1IEwyLDguNTczODAyMDkgTDIsMzYuMzgxOTU3NCBMMTIsNDEuMzgxOTg1NCBMMTIsMi43NDA3Njk1IFogTTE0LDkuOTk5ODEwMDUgTDE2LDkuOTk5ODEwMDUgTDE2LDExLjk5OTgyMTIgTDE0LDExLjk5OTgyMTIgTDE0LDMxLjk5OTkzMyBMMTYsMzEuOTk5OTMzIEwxNiwzMy45OTk5NDQxIEwxNCwzMy45OTk5NDQxIEwxNCw0MyBDMTQsNDMuMzQ2OTk2NCAxMy44Miw0My42Njc5OTgxIDEzLjUyNSw0My44NTA5OTkyIEMxMy4zNjUsNDMuOTQ5OTk5NyAxMy4xODMsNDQgMTMsNDQgQzEyLjg0Nyw0NCAxMi42OTQsNDMuOTY0OTk5OCAxMi41NTMsNDMuODk0OTk5NCBMMC41NTMsMzcuODk0OTY1OSBDMC4yMTQsMzcuNzI0OTY0OSAwLDM3LjM3ODk2MyAwLDM2Ljk5OTk2MDkgTDAsNy45OTk3OTg4OCBDMCw3LjY0NDc5NjkgMC4xODgsNy4zMTQ3OTUwNSAwLjQ5Niw3LjEzNTc5NDA1IEwxMi40OTYsMC4xMzU3NTQ5NDggQzEyLjgwNSwtMC4wNDQyNDYwNTcyIDEzLjE4OCwtMC4wNDUyNDYwNjI4IDEzLjQ5OCwwLjEzMjc1NDkzMiBDMTMuODA5LDAuMzEwNzU1OTI2IDE0LDAuNjQxNzU3Nzc1IDE0LDAuOTk5NzU5Nzc1IEwxNCw5Ljk5OTgxMDA1IFogTTQyLDguNTczODAyMDkgTDMyLDIuNzQwNzY5NSBMMzIsNDEuMzgxOTg1NCBMNDIsMzYuMzgxOTU3NCBMNDIsOC41NzM4MDIwOSBaIE00NCw3Ljk5OTc5ODg4IEw0NCwzNi45OTk5NjA5IEM0NCwzNy4zNzg5NjMgNDMuNzg2LDM3LjcyNDk2NDkgNDMuNDQ3LDM3Ljg5NDk2NTkgTDMxLjQ0Nyw0My44OTQ5OTk0IEMzMS4zMDYsNDMuOTY0OTk5OCAzMS4xNTMsNDQgMzEsNDQgQzMwLjgxNyw0NCAzMC42MzUsNDMuOTQ5OTk5NyAzMC40NzUsNDMuODUwOTk5MiBDMzAuMTgsNDMuNjY3OTk4MSAzMCw0My4zNDY5OTY0IDMwLDQyLjk5OTk5NDQgTDMwLDMzLjk5OTk0NDEgTDI4LDMzLjk5OTk0NDEgTDI4LDMxLjk5OTkzMyBMMzAsMzEuOTk5OTMzIEwzMCwxMS45OTk4MjEyIEwyOCwxMS45OTk4MjEyIEwyOCw5Ljk5OTgxMDA1IEwzMCw5Ljk5OTgxMDA1IEwzMCwwLjk5OTc1OTc3NSBDMzAsMC42NDE3NTc3NzUgMzAuMTkxLDAuMzEwNzU1OTI2IDMwLjUwMiwwLjEzMjc1NDkzMiBDMzAuODEyLC0wLjA0NDI0NjA1NzIgMzEuMTk1LC0wLjA0NDI0NjA1NzIgMzEuNTA0LDAuMTM1NzU0OTQ4IEw0My41MDQsNy4xMzU3OTQwNSBDNDMuODEyLDcuMzE0Nzk1MDUgNDQsNy42NDQ3OTY5IDQ0LDcuOTk5Nzk4ODggTDQ0LDcuOTk5Nzk4ODggWiBNMjQuOTM5LDE3LjM0MTg1MTEgTDIzLjA2MSwxNi42NTc4NDczIEwxOS4wNjEsMjcuNjU3OTA4NyBMMjAuOTM5LDI4LjM0MTkxMjUgTDI0LjkzOSwxNy4zNDE4NTExIFogTTI5LjcwNywyMi43MDY4ODEgQzMwLjA5OCwyMi4zMTU4Nzg5IDMwLjA5OCwyMS42ODM4NzUzIDI5LjcwNywyMS4yOTI4NzMxIEwyNi43MDcsMTguMjkyODU2NCBMMjUuMjkzLDE5LjcwNjg2NDMgTDI3LjU4NiwyMS45OTk4NzcxIEwyNS4yOTMsMjQuMjkyODg5OSBMMjYuNzA3LDI1LjcwNjg5NzggTDI5LjcwNywyMi43MDY4ODEgWiBNMTcuMjkzLDI1LjcwNjg5NzggTDE0LjI5MywyMi43MDY4ODEgQzEzLjkwMiwyMi4zMTU4Nzg5IDEzLjkwMiwyMS42ODM4NzUzIDE0LjI5MywyMS4yOTI4NzMxIEwxNy4yOTMsMTguMjkyODU2NCBMMTguNzA3LDE5LjcwNjg2NDMgTDE2LjQxNCwyMS45OTk4NzcxIEwxOC43MDcsMjQuMjkyODg5OSBMMTcuMjkzLDI1LjcwNjg5NzggWiIgaWQ9IkFtYXpvbi1BUEktR2F0ZXdheV9JY29uXzQ4X1NxdWlkIj48L3BhdGg+CiAgICAgICAgPC9nPgogICAgPC9nPgo8L3N2Zz4=;points=[[0,0],[1,0],[1,1],[0,1],[0,0.167],[0.167,0],[1,0.167],[0.167,1],[0,0.333],[0.333,0],[1,0.333],[0.333,1],[0,0.5],[0.5,0],[1,0.5],[0.5,1],[0,0.667],[0.667,0],[1,0.667],[0.667,1],[0,0.833],[0.833,0],[1,0.833],[0.833,1]]" parent="1" vertex="1">
          <mxGeometry x="3017" y="743" width="50" height="50" as="geometry" />
        </mxCell>
        <mxCell id="-6pnClllPr2pGw_arsFi-11" value="Session store" style="swimlane;fontStyle=0;childLayout=stackLayout;horizontal=1;startSize=30;horizontalStack=0;resizeParent=1;resizeParentMax=0;resizeLast=0;collapsible=1;marginBottom=0;whiteSpace=wrap;html=1;" parent="1" vertex="1">
          <mxGeometry x="2743" y="548" width="122" height="62" as="geometry" />
        </mxCell>
        <mxCell id="-6pnClllPr2pGw_arsFi-12" value="Conversation History&lt;br&gt;Session state" style="text;strokeColor=none;fillColor=none;align=center;verticalAlign=middle;spacingLeft=4;spacingRight=4;overflow=hidden;points=[[0,0.5],[1,0.5]];portConstraint=eastwest;rotatable=0;whiteSpace=wrap;html=1;" parent="-6pnClllPr2pGw_arsFi-11" vertex="1">
          <mxGeometry y="30" width="122" height="32" as="geometry" />
        </mxCell>
        <mxCell id="-6pnClllPr2pGw_arsFi-13" value="6" style="ellipse;whiteSpace=wrap;html=1;aspect=fixed;" parent="1" vertex="1">
          <mxGeometry x="2712" y="548" width="25" height="25" as="geometry" />
        </mxCell>
      </root>
    </mxGraphModel>
  </diagram>
  <diagram id="5GSI41NfedAv2MxNL9_A" name="Page-2">
    <mxGraphModel dx="1261" dy="799" grid="0" gridSize="10" guides="1" tooltips="1" connect="1" arrows="1" fold="1" page="1" pageScale="1" pageWidth="850" pageHeight="1100" math="0" shadow="0">
      <root>
        <mxCell id="0" />
        <mxCell id="1" parent="0" />
        <mxCell id="Evyd6iI5Z3ptmyk50GJe-1" value="" style="rounded=0;whiteSpace=wrap;html=1;" vertex="1" parent="1">
          <mxGeometry x="320" y="260" width="290" height="330" as="geometry" />
        </mxCell>
        <mxCell id="Evyd6iI5Z3ptmyk50GJe-2" value="" style="shape=actor;whiteSpace=wrap;html=1;" vertex="1" parent="1">
          <mxGeometry x="50" y="425.40999999999997" width="40" height="60" as="geometry" />
        </mxCell>
        <mxCell id="Evyd6iI5Z3ptmyk50GJe-3" value="Amazon BedrockÂ &#xa;Studio" style="shape=image;verticalLabelPosition=bottom;labelBackgroundColor=default;verticalAlign=top;aspect=fixed;imageAspect=0;image=data:image/png,iVBORw0KGgoAAAANSUhEUgAAAHoAAAB4CAYAAAA9kebvAAAAAXNSR0IArs4c6QAAAIRlWElmTU0AKgAAAAgABQESAAMAAAABAAEAAAEaAAUAAAABAAAASgEbAAUAAAABAAAAUgEoAAMAAAABAAIAAIdpAAQAAAABAAAAWgAAAAAAAACQAAAAAQAAAJAAAAABAAOgAQADAAAAAQABAACgAgAEAAAAAQAAAHqgAwAEAAAAAQAAAHgAAAAAzuYkvAAAAAlwSFlzAAAWJQAAFiUBSVIk8AAAEJNJREFUeAHtXQe4FcUVPtQnRXq30dujIyAKCA9BUEyiWCkhxBg1FgRiYvkUMIl+xqCAosZEbGAjYgldOkYU6YKAVJVepEiH98j5F2adO++W3Xtn785d9nzfe7uzOzt75vw77cw55xYgpgLvDj+NY0jBlMDpWwcXKBjMqoW1UiUQAq1KJKDpEOiAAqtWKwRalUhA0yHQAQVWrVYItCqRgKZDoAMKrFqtEGhVIgFNh0AHFFi1WiHQqkQCmg6BDiiwarVCoFWJBDQdAh1QYNVqhUCrEgloOgQ6oMCq1QqBViUS0HQIdECBVatVWL2QSenelzSgYY3aUtGChejjrRto/A/f0vzdWyg0l8mPYkYC3bJsZRrVohO1rVDNrtE9dZoR/nYcPUwfbFkXgm5L5sxJARwyxWasYlYxerJJO+pfoxEVLGCxrlQnMhmCfkYesBnLCKALs2nbvdxah2S3pdJFs2w0j+eeoue+XUIzdnxHN1xYx/qrUqyEfV8+OZdBzwigu1a5hEY070T1S5WTcaNPeEwetHQObTx8wL6Or7Z9xQvppovqUk8GPhHoI/gj2XBov/18UE+MBrpmidL0XPOOdN0FtSLkv+bgj/TA0tk0nVtxPHIC+qZDB6jWpFfjFROIewDauMlYicJF6NGGbWhg3RaUVSiSPbTgF9Yto1On8xICgJn3PJ6B4+/+JbOitvQaJUsnLCdahkalK9Dgei2pc+WLqVJWcdp1/AjN3Pk9DV+7mFYe2BPtEd+vGTVGY7n0dNP2VK1YyaiCKfjes1Gvu7mICufeMsh+xG2ZmCs816wjFSqYXwWRm5dHA5ed+RjtFxhwYkyLjrZcgnwW7NkWsYTSIbNU1tgY+0e1yInJBsDH/Z3HjljLu5gZfbiR/7NMIxNYLv2rVRda2KVXBKDbjh6ivl9MoStmvptGbuK/CkoZzBkEfbZ7K7WcPpayxo+wjkgLQr4iUVq8uO/HMXIQTCMH99dpzlqty6Mul/72zZd0+NTJNHKT+FWdKl1kDylbjvxE3edNsHlcum+XlV7d/Td0YfHzrXw5lS6maTs2Jy44TTl8adF9eCwewZoteU2M5VL2lDfokRWf2QJMkwwcvSa7dHk73wTWvKkfItK4LkjOL675efSlRdcqWcau8/qf9tG9PCtOtFyyH/DppCBZ81bHb3eX23GxSWf0pUXL3I77bo3xIINfedkELRyWgTIhjeuCVh3YK06NOPoOtBFScMDEzF3f03aeJIIwDk/pcAM1L1vJmnThiDSug5AP+U0iX7pukwTglJeTvEYewAqb9y/vYT3SruIFtLhrn6iPIx/ym0SBABqbHYKGrVogTrUf/8P73fcsnkkjWfdeOMry6ZT1Mcwm5DONggE0Gx8I8hJovOOl9ctpzq4faBCrQG+v2Vi8ll7d+DU9yyrQ1ayLN5HCMToJVADmHV99GvEk0qaCDEZDoCPgCm4iBDq42EbUzPgx2u3uUkTtwoQtgbBF26II9kkIdLDxtWsXAm2LItgnxo/RXotfVrZ4/S4/y0870NdWrUF9qzew64zzRT/uoEnbN9nXnJ7AtvvBepc6zR413xBJ2RI1Q0Aupg3ohqXKWxYaXdh8V6aavGX53w7X06ds1TmQdcTfHHS269OAzX9fa301tS5f1S5urU9aKWy1mk6eA12u6Hn0BFuS3FmrSYRB3f4TxyzZlOH7IHwAy6/uS//csIKGrPyc9p69b92U/olWPJRbomwlunDvdurD5kduaSi/KxU6wfrt979fm0oRaXnWM6DhXQFfqCHZl5EAEzWCpaQAE2mYE4mPAMZ1f+Bnel1Sn55Y9UU+01604tdbd6NW5avgUYvgrTF05QJ6Zu0iyjvt3vQP7zkXyBOgMQ4PZwO5uueXjZBhtO4Z1iUv8kYBDOpEt44P41lO31W7KQ3m7nwK215hLI7WivsvnGa0jjlCAD4mtAIN74qXLr3KBkzU61sewwBYrAkXxuWr535A6geCDwXj985jh6nyeT/7VKXaigVffh5hJdqZDQjhDJDHjr6wSJnNu2In8nI9YUsr0NM79iRMrgRhHI7WBYv76hEfwjSelMFI/nGpy5dBxlic6a34RrYPH8k9VlXFUQFmzpiQws9bN2lVmMggv8iuM7UnjSE4sjlxoREVQ148U4efRRkyPbx8Pl3Ott4mbwfK/EY7v5uHI1ipqCAjLzxU3uN7+NB1k1agZeYw9v4YY+aMiVoFNt6PR5h1owyZnl7zVVITLrkMP88xmYR1iiDYh4/ijxp/OBcElx906TrJM6BjMYlxeGX3fvRGm26xsgT2OqxShAkSPDsaTHmdPUPnWH84F94eWH3AiU8naR2j4zGmKkww0epWpTpN9dmbIU9yuIvHv+57A9j1V3YCwDmuCYNDeGrqJM+BLs9LJXmtLJjHRK1c1hllibh2Lh1lO3FRb/ka3HF1kmdAi3AU8uwZjAuFyeOskYo1huusoKllYQyGz5ZM8rgMn2ud5BnQGIedKEziVaaqtHZGPqS385paJ6XTggWeo8JyFJMy2VEPnh7yRA2O9TrJM6BlkBMpTNQKFeJdqQEc8UDdQlxzTX+COe9InqXmJqHuVN+T7jTMgftVz7YmZHAAgPelcMyDO4/w9ECvh+gJOskzoMEkxuFhrEse7TAcBZ65koPNvNAyh7KjLC/OL1KU/tHsSg4/lU33Lp5FczlsRSYR1v+YcI1u2dliG8Dezx+0SoiaII/X6v1k0p4tr4TCBK3PicIE3fK4y66h2Tk3R4C8imOC3Mk20zgKwkeAfMhfReneRR5Tj3AAuPnzibYfl8wnNGO38D3EadFNnrVoVdkRj/F+1RtaISHQYgX9dPIE70p9TqPWLbW66TGbVhKc54fybpfIdxvvcvWoVtMKRvPG5m/Eo8Yf4bLz8db1+XTds9gxzyufLc+AdiPtPceP2uDhuXfYlXbwsrm0Q5p4YUxG8Lh3eO93OHffABkE0PF8phEAhQ4hXXoEI4DGZsbEbRupRolSCcdegN/7i8n0ChsoYCzfdPhgzF2xTAPfS36NABoV7PflVDp48rjj2TQmYs2mvUWlivwcMjIZQakz+2TKEM8cYyOI935YS5v54zONjAF6X4wNkHgCQ3eezHNymbqNA7EsxAeoW+Eh85zMuWez7mSYCcIziD/6dttrXEY88b7mxrRotaowAizOISIPeRyGKlXjQME3NFuD2dwJfOfwhsRjbDhhkj2aZ0C/wBH0ktVnCyPAzUcOWutKIcxUjyUZDHVM1gkGdqCw/AM9zlEY5vNWJMyDTCCtQG/kkMjCyiSeNWesiqumvLD2HM9mNzpCRdx6cT1LqxYrzmgsntxc/wtrATuwZg8tGnVBF45rvTiuWvMyFa2J5iq2jxu7eTW9snGFZ2vmaDxb4bB0ReBP1jgQjIlWrJryDuL1NLRJyRL2wbEM68iR/6KR7k2NyucVp6Vd+8aMFS54WMY7Vz3mf0TQhnlNCPqqdTKGIOmw5rxu3oeEjQxBwppz2pU9CYKXCV/+n+u3oiUc4UcGGUaALTjWZrIgo5t+pmkHWsZOATLIXgsWAV9hvJiImnHIqontf5W2mKFagRaVgwKkEYd7RHxt4ZGBe8IbA+M3DBLQihd0vo2e4tDNwusCprypGgGim8ZO1+D6l9qmO4gYNHzNIqo/+TXBpmfH2pIl7IncXHpgyWwqN2G09YdzXAMB7N/XbOIZH3LBWsdouWBhzfkW66BlCxPZG6MYz6oFwHg2VVPeWN00ogghbFS6rEdlJ8I/LZ9n6euFbKC7ByEWKqgPOxmOXq9/E8MqXPrnSYuWyrd8qLDB0ZSVCPDUEARvDAFyqq04Xjfda8Ekypk9Pm0go36NpS3WN6NstsjXspWhTMhH99GzFq0yKntjjOSvWczOV+zfTbcxGMm2tmizaXTT2B6FkUKidbhb40B4TnabOyHiR1vUuroxinDvLaa+zVna8xatsoHx+y1eXgj6cMv6pEBGNz2r0028hLnWjqONMtFNN532Jj3IXWYikAUPbo612Xr1Zp4DxCMsoQT9mrdgVZKvOXUTVstwm05bi3bLWKz8QukBnbKwkUZezKb/yEuxd9PgwprF0fjjEdbJbc76bf+dZ/4g0V0DZHEN15E3HZRRQKfaTUcTqNN1NDRqTjdAoAy5vWYja1ZdtFAha+IlJl8yD1hLI286KCOANmU27RQQGBVAGYJ1MpZQ0UgoTLyyKFHfaTTQJnTTqsCcpjGUtJnxtrVOxhJKzK79UoEaDTS6Syg9BLmZTYtn/DyitWKNnI51cqJ6pn3WnYgh+f5TqxfS3rP2YF7PpuX3BvHc6BYNl537zrrOpmM2HUSARZ2MBhpM+g0wfMh+yzNoYXUKnnAO16AxG1c6slnHM36T8UD7KSBsOU5sfz21LFc5gg3sxr3MsVru4Aj8PeZ/aP1EYUQGAxNGj9F+ygsteTL/8o0KsswT7iEP8ppO5nPoQoL4rUvsQeN3JFOlu2o3sX7uCOXE22rETyEhr+kUGKB/x92o2IN+uEHrlOWOn1UUJLYa97PdOf6w1YhrguS84pppR9+B7s0Tm65VIuODuhESjBfm5dxCr7DvcVne+gQ91KAVxyVLLWKA7JQu9NQyX/I1Oa+cx6RzX4DewEaEgrAbNJVNjD5q90uCzZlTwsbCXxtfYZkKwddYELYRr2P1I0x6UiE34SbdbEumwlMqz/oC9NjvVtMANqk5cOK4zfsvLqhFqzhKwpNN2uX73Uc709mTq9jKEhEVHmnYhm2uzozHJzniHn6OuPHUN2mGhmgBJm41qnJwk/YFaDD4PI9zdSePsX4YTLQeWJw8xOPrWrb36i2NkaJCmGyNvaw7Te94I8m/WIuwTXCDeezr/9FxTSEW5e1DbCvCZbcM+3nhD+d+bDUKOSRz1GrumwwDeKYFz1yfZ4PBthWqRRSxYM82SzO2hLfzsO0H4YpxGBnhd4VJ0ausuHBDslVJrG1KxOr88qpeMXefxPuwC4XNi3TtQon3ujnC3NcIhQmAvIJDP6IVP80WocLIHsAv7NKb1vG4W48nXTKN4w37Qcvm0G6XvtHWly0XFOPcxK3GGKw6umwE0ILTcTx2f8SRAB7lsXcgW5CgK4fdtwwyJnJ3L5rhahwGuO3Zg+Im9vroKf3Gs3hvrKNpW42x+HRy3SigwTD8lx5Z8Rn9ewP/qCdHwMUkTSa0NICfiFRw4eWoElyIEpFJW42JeI1335KYLpeceC9K9h7W2CM4Jld9pev+ZOsGy0EA3iGCnICLvDuOHqYPtqyzogjLSz1RTtCOGKONBxpChy75PiuGd1sqXfTnCAewB0dcE9iLI04XuuVoLRdlAFzE9HqfA8XM52gJ6TKzxbv9powBWggKyyuss/vXaOSo+z6XwRUyw9GYWbfMVLxzzLDxO80vr1/B4ao65VuO4VnRLSOK/bnWcuPJzrjJWDxmxb3F+3bayzGoQbHmhSNACK6QUP5jRgItqoHlGP5CSiwB31SgiVkLc+iUQAi0TmkaXFYItMHg6GQtBFqnNA0uKwTaYHB0shYCrVOaBpcVAm0wODpZC4HWKU2DywqBNhgcnayFQOuUpsFlhUAbDI5O1kKgdUrT4LJCoA0GRydrIdA6pWlwWSHQBoOjk7UQaJ3SNLisEGiDwdHJ2v8BpSjY9PomFG4AAAAASUVORK5CYII=;fontStyle=1" vertex="1" parent="1">
          <mxGeometry x="190" y="422.91" width="66.08" height="65" as="geometry" />
        </mxCell>
        <mxCell id="Evyd6iI5Z3ptmyk50GJe-4" value="" style="shape=flexArrow;endArrow=classic;html=1;rounded=0;" edge="1" parent="1">
          <mxGeometry width="50" height="50" relative="1" as="geometry">
            <mxPoint x="363" y="490" as="sourcePoint" />
            <mxPoint x="453" y="540" as="targetPoint" />
          </mxGeometry>
        </mxCell>
        <mxCell id="Evyd6iI5Z3ptmyk50GJe-5" value="&lt;div style=&quot;text-align: center;&quot;&gt;&lt;span style=&quot;background-color: initial;&quot;&gt;&lt;b&gt;Sales transactions&amp;nbsp;&lt;/b&gt;&lt;/span&gt;&lt;/div&gt;" style="text;whiteSpace=wrap;html=1;rotation=30;" vertex="1" parent="1">
          <mxGeometry x="363" y="474.79" width="106.28" height="30.21" as="geometry" />
        </mxCell>
        <mxCell id="Evyd6iI5Z3ptmyk50GJe-6" value="&lt;b&gt;API Call&lt;/b&gt;" style="shape=rect;html=1;rounded=1;whiteSpace=wrap;align=center;" vertex="1" parent="1">
          <mxGeometry x="480" y="520" width="97.12" height="30" as="geometry" />
        </mxCell>
        <mxCell id="Evyd6iI5Z3ptmyk50GJe-7" value="" style="shape=flexArrow;endArrow=classic;html=1;rounded=0;" edge="1" parent="1">
          <mxGeometry width="50" height="50" relative="1" as="geometry">
            <mxPoint x="360" y="390.32" as="sourcePoint" />
            <mxPoint x="467.54" y="360.32" as="targetPoint" />
          </mxGeometry>
        </mxCell>
        <mxCell id="Evyd6iI5Z3ptmyk50GJe-8" value="&lt;div style=&quot;text-align: center;&quot;&gt;&lt;span style=&quot;background-color: initial;&quot;&gt;&lt;b&gt;Products details and reviews&lt;/b&gt;&lt;/span&gt;&lt;/div&gt;" style="text;whiteSpace=wrap;html=1;rotation=-15;" vertex="1" parent="1">
          <mxGeometry x="327.54" y="339.32" width="150" height="21" as="geometry" />
        </mxCell>
        <mxCell id="Evyd6iI5Z3ptmyk50GJe-9" value="Knowledge Base" style="shape=image;verticalLabelPosition=bottom;labelBackgroundColor=default;verticalAlign=top;aspect=fixed;imageAspect=0;image=data:image/png,iVBORw0KGgoAAAANSUhEUgAAAU8AAAE+CAYAAAANs5KWAAAKpGlDQ1BJQ0MgUHJvZmlsZQAASImVlwdQU+kWgP970xstIRQpoTdBOgGkhB5A6VVUQhIglBhDAooNlcUFXAsqImABXQRRcFWKrAURxcKiqIB9QURBXRcLNlTeBYawu2/ee/POzH//756c/5R/7pk5AYCC54hEabACAOlCiTjU14MRHRPLwA0DDFAFREAAmhxuhogVHBwIEJnZ/y4fegE0ud82n/T177//V1Hk8TO4AEDBCCfwMrjpCJ9C1lOuSCwBAFWC6PWyJKJJPoMwTYwkiPDNSU6a5qeTnDDNn6ZswkM9AUCTAcCTORxxEgBkVUTPyOQmIX7ITIQthTyBEOFkhF3T05fxEK5G2BixESE86Z+Z8Bc/SX/zmSDzyeEkyXi6linBewkyRGmclf/ndfxvSU+TzsQwBJMFiP1CJ3fkzu6mLguQsTBhYdAMC3hT9lOcLPWLmGFuhmfsDPM4XgGys2kLA2c4UeDDlvmRsMNnmJ/hHTbD4mWhsliJYk/WDHPEs3GlqREyfTKfLfOfnRweNcOZgsiFM5yRGhYwa+Mp04ulobL8+UJfj9m4PrLa0zP+Uq+ALTsrSQ73k9XOmc2fL2TN+syIluXG43t5z9pEyOxFEg9ZLFFasMyen+Yr02dkhsnOSpAPcvZssOwOUzj+wTMMAoEvYIAQ4Ae8JPwVkskCPJeJVooFSckSBgvpLD6DLeRazGVYW1rbAjDZp9OfwTv6VP9B9GuzOokpAC75SD+QZnXxSC819gGgvGdWp0sDgHQAgJZ8rlScOa1DTz4wSPfLAxpQA1pADxgDc2AN7IEzcAfewB8EgXAQA5YALkgG6UAMssBqsB7kgUKwDewCpWA/OAiqwTFwAjSBM+ACuAyug5ugBzwA/WAIvASj4AMYhyAIB1EgKqQGaUMGkBlkDTEhV8gbCoRCoRgoHkqChJAUWg1thAqhIqgUqoBqoF+g09AF6CrUDd2DBqAR6C30BUbBZJgGa8KG8DyYCbPgADgcXgwnwcvhbDgX3gKXwJXwUbgRvgBfh3vgfvglPIZCbgZFR+mgzFFMlCcqCBWLSkSJUWtRBahiVCWqDtWC6kDdRvWjXqE+o7FoKpqBNkc7o/3QEWguejl6LXozuhRdjW5Et6NvowfQo+jvGApGA2OGccKwMdGYJEwWJg9TjKnCNGAuYXowQ5gPWCyWjjXCOmD9sDHYFOwq7GbsXmw9thXbjR3EjuFwODWcGc4FF4Tj4CS4PNwe3FHcedwt3BDuE56E18Zb433wsXghfgO+GH8Efw5/C/8cP05QIBgQnAhBBB5hJWEr4RChhXCDMEQYJyoSjYguxHBiCnE9sYRYR7xEfEh8RyKRdEmOpBCSgJRDKiEdJ10hDZA+k5XIpmRPchxZSt5CPkxuJd8jv6NQKIYUd0osRULZQqmhXKQ8pnySo8pZyLHleHLr5MrkGuVuyb2WJ8gbyLPkl8hnyxfLn5S/If9KgaBgqOCpwFFYq1CmcFqhT2FMkapopRikmK64WfGI4lXFYSWckqGStxJPKVfpoNJFpUEqiqpH9aRyqRuph6iXqEM0LM2Ixqal0Appx2hdtFFlJWVb5UjlFcplymeV++kouiGdTU+jb6WfoPfSv6hoqrBU+Cr5KnUqt1Q+qs5RdVflqxao1qv2qH5RY6h5q6WqbVdrUnukjlY3VQ9Rz1Lfp35J/dUc2hznOdw5BXNOzLmvAWuYaoRqrNI4qNGpMaappemrKdLco3lR85UWXctdK0Vrp9Y5rRFtqrartkB7p/Z57RcMZQaLkcYoYbQzRnU0dPx0pDoVOl0647pGuhG6G3TrdR/pEfWYeol6O/Xa9Eb1tfUX6K/Wr9W/b0AwYBokG+w26DD4aGhkGGW4ybDJcNhI1YhtlG1Ua/TQmGLsZrzcuNL4jgnWhGmSarLX5KYpbGpnmmxaZnrDDDazNxOY7TXrnouZ6zhXOLdybp852Zxlnmleaz5gQbcItNhg0WTxep7+vNh52+d1zPtuaWeZZnnI8oGVkpW/1QarFqu31qbWXOsy6zs2FBsfm3U2zTZvbM1s+bb7bO/aUe0W2G2ya7P7Zu9gL7avsx9x0HeIdyh36GPSmMHMzcwrjhhHD8d1jmccPzvZO0mcTjj96WzunOp8xHl4vtF8/vxD8wdddF04LhUu/a4M13jXA679bjpuHLdKtyfueu489yr35ywTVgrrKOu1h6WH2KPB46Onk+caz1YvlJevV4FXl7eSd4R3qfdjH12fJJ9an1FfO99Vvq1+GL8Av+1+fWxNNpddwx71d/Bf498eQA4ICygNeBJoGigObFkAL/BfsGPBw4UGC4ULm4JAEDtoR9CjYKPg5cG/hmBDgkPKQp6FWoWuDu0Io4YtDTsS9iHcI3xr+IMI4whpRFukfGRcZE3kxyivqKKo/uh50Wuir8eoxwhimmNxsZGxVbFji7wX7Vo0FGcXlxfXu9ho8YrFV5eoL0lbcnap/FLO0pPxmPio+CPxXzlBnErOWAI7oTxhlOvJ3c19yXPn7eSN8F34RfzniS6JRYnDSS5JO5JGkt2Si5NfCTwFpYI3KX4p+1M+pgalHk6dSItKq0/Hp8ennxYqCVOF7cu0lq1Y1i0yE+WJ+pc7Ld+1fFQcIK7KgDIWZzRLaMhA1Ck1lv4gHch0zSzL/JQVmXVyheIK4YrOlaYr81c+z/bJ/nkVehV3VdtqndXrVw+sYa2pWAutTVjbtk5vXe66oRzfnOr1xPWp63/bYLmhaMP7jVEbW3I1c3NyB3/w/aE2Ty5PnNe3yXnT/h/RPwp+7Mq3yd+T/72AV3Ct0LKwuPDrZu7maz9Z/VTy08SWxC1dW+237tuG3Sbc1rvdbXt1kWJRdtHgjgU7GncydhbsfL9r6a6rxbbF+3cTd0t395cEljTv0d+zbc/X0uTSnjKPsvpyjfL88o97eXtv7XPfV7dfc3/h/i8HBAfuVvhWNFYaVhYfxB7MPPjsUOShjp+ZP9dUqVcVVn07LDzcXx1a3V7jUFNzROPI1lq4Vlo7cjTu6M1jXsea68zrKurp9YXHwXHp8Re/xP/SeyLgRNtJ5sm6UwanyhuoDQWNUOPKxtGm5Kb+5pjm7tP+p9tanFsafrX49fAZnTNlZ5XPbj1HPJd7buJ89vmxVlHrqwtJFwbblrY9uBh98U57SHvXpYBLVy77XL7Yweo4f8XlypmrTldPX2Nea7puf72x066z4Te73xq67LsabzjcaL7peLOle373uVtuty7c9rp9+Q77zvWehT3dvRG9d/vi+vrv8u4O30u79+Z+5v3xBzkPMQ8LHik8Kn6s8bjyd5Pf6/vt+88OeA10Pgl78mCQO/jyacbTr0O5zyjPip9rP68Zth4+M+IzcvPFohdDL0Uvx1/l/aH4R/lr49en/nT/s3M0enTojfjNxNvN79TeHX5v+75tLHjs8Yf0D+MfCz6pfar+zPzc8SXqy/PxrK+4ryXfTL61fA/4/nAifWJCxBFzpkYBFLLgxEQA3h4GgBIDABWZi4mLpufoKYGmZ/8pAv+Jp2ftKbEHoDIHgCh3AAJbAShHlj6yyMj75CgU7g5gGxvZmpl5p+bzSdFC/h9kbQGoLMrDAGkO+IdMz+5/yfufO5B5/dv+L07NAkc113jsAAAAVmVYSWZNTQAqAAAACAABh2kABAAAAAEAAAAaAAAAAAADkoYABwAAABIAAABEoAIABAAAAAEAAAFPoAMABAAAAAEAAAE+AAAAAEFTQ0lJAAAAU2NyZWVuc2hvdK6kQw8AAAHWaVRYdFhNTDpjb20uYWRvYmUueG1wAAAAAAA8eDp4bXBtZXRhIHhtbG5zOng9ImFkb2JlOm5zOm1ldGEvIiB4OnhtcHRrPSJYTVAgQ29yZSA2LjAuMCI+CiAgIDxyZGY6UkRGIHhtbG5zOnJkZj0iaHR0cDovL3d3dy53My5vcmcvMTk5OS8wMi8yMi1yZGYtc3ludGF4LW5zIyI+CiAgICAgIDxyZGY6RGVzY3JpcHRpb24gcmRmOmFib3V0PSIiCiAgICAgICAgICAgIHhtbG5zOmV4aWY9Imh0dHA6Ly9ucy5hZG9iZS5jb20vZXhpZi8xLjAvIj4KICAgICAgICAgPGV4aWY6UGl4ZWxZRGltZW5zaW9uPjMxODwvZXhpZjpQaXhlbFlEaW1lbnNpb24+CiAgICAgICAgIDxleGlmOlBpeGVsWERpbWVuc2lvbj4zMzU8L2V4aWY6UGl4ZWxYRGltZW5zaW9uPgogICAgICAgICA8ZXhpZjpVc2VyQ29tbWVudD5TY3JlZW5zaG90PC9leGlmOlVzZXJDb21tZW50PgogICAgICA8L3JkZjpEZXNjcmlwdGlvbj4KICAgPC9yZGY6UkRGPgo8L3g6eG1wbWV0YT4KqR6N4QAAQABJREFUeAHtveePZNmZ5veGzyyT5b33truqvSObTT9D7szszg61q90VRsBAEAQJELDQH7Cf9UXYDwIWEmQWEEaCtBJnZ4bDGbJJNk2zvanucl3emyyX5TPD6vmdyBsVGZWVlSbMjcj3dN8KkxE3zn3Ouc95/Uls3f9mxbw5Ao6AI+AITAmB5JQ+7R92BBwBR8ARCAg4efpEcAQcAUdgGgg4eU4DNP+KI+AIOAJOnj4HHAFHwBGYBgJOntMAzb8yFoFKKmmVTMosmRj7hzi+Uh8r2bTRZ2+OwEwQ8Bk0E/T8u2aJhJUWzbXC6kVW7svEHhH6WFi10EoL58S+r97BeCOQjnf3vHdxRqDcn7XipmVW3LbSKvP6rHzplqUPXrDUjbuWKMcsAk4SZ2npfCvsXWclkWfy7rBVvrpkqTPXLTlSiDPM3reYIuDkGdOBiXO3KulUIKDCrjVW3rjUKpI8TWpwccUCK+tIfXnesieuWiImpISant++ysrPrLWSJGTLZaxULKuvA5Zce80yRy5a6spQ/Ag/zpPA+2ZOnj4JJo9ApKLvEWluWWFlSXImYqo1qcTlTcutsmCOlUVSmU9OW/rWfbNKh6RQ+rtYJoXnN1pJ/a0snlfrqqVlp102YKWBfqusXmipry5b+qgk0TsPH33GnzkCEyBQN/Mn+JT/adYjgIpekHpegjglXdqc3CNMiqUqQUoixQZaWTLPSvNyVpFkV/r0jGWPXbaEJL22tmTSRnaustILm628XCQvaTM0zAn0F+cW/dX75bVLrLxwrpXWLZHZ4bxlTl+zRL7Y1u76j3UfAglPz+y+QWtnj1HRi2sXW3H/BiuvWWSV+f1jveqyb2Y+O2uJuw/1mY1WXr8kqPC1Pg7dt+TJQcu9d7xtUl1JfRz52naryB5bESnWmkgzKRtn5vOzVpYUWnh+g1n930tlS9x+aIkz1yz72RlLXbvjqnwNPH/SiEBq8coN/6bxTX/tCFS96HNs+I3tVnp5i9TwxZI2s0GyDOg8zFtSzqHsu8csc2pQRHPXUhdvWUUSZkWqck2d78taReo9ttHSw4KlRbatbMOywxa//4yVNyw1m9v36KcejFjyo1PWJxJPy74JMSav3LaKBFDMDEEKRRqVhB0kZ32/JJNE6sY9Sc2SVL05Ag0IuOTZAIi/FJlI2hx+TpLmvg1VYsnVWXdEjonzkt4+OWPpizctKRK1Os968MBL/S28vs0qKxeOlVIlnSZPXrXcO0cs9UDfa2Iryds/8o2dVt683AzpOGpl9ffSkGV/95WlLg9V+zv6txCfSsSAiL3w4maryAvPolFrLBBX71j6o5NhgUhIMvXmCEQIOHlGSPhjQGBE5FOStBmcQZIarY5LTM6f9IcnqzZMkd+TyCSQ0tycDSOxSt2vSaH8QqEk1fi+pd45an2yhTajjexcbcWv7ah6/QnWj5rslskPJW1+dtoS99VfEel4jcWiLMdRfo+88fvWm+l5rWlhSIhEE5ge3hUBywxhHfJ/1frkT2KBgJNnLIah850gaHz4rT2yE0rdxbmCChu1URU9J+95Ut7oyaqxhAgVkEK/rfPKiVST6iAf1GiRZ9+vj1pSz6fTyiLokW/sspIcWWNMCpzs6m3L/fxLqei3J+f80eVWMmkrEgv6ylYrb11hVk/ESNwKvUp8eMLmvH9SH3YGnc6Y9dJ3nDx7aTSncS1IXQ9f22oV1NZG0sSBcva67JpfWfqySKiEV32KPyISLkvtf/jmLqsoZKhGoJyG89+8Z+lfHbHciStTOvGICLMo4gyk3Jhq+f4Jm6s+J/L0d4odJlpAmOS3r7SCJHCrJ316KPtn6PPbhywnx5K32YuAk+fsHXsb3rXaSt/YLY+0HCb1kiZ8c+eBSO2w9Sn+0VB3p8hBj8Gq8+cVEpT/4+ekFjekRiLZHrpgfbJLJp9iCy1J2sxLRS/tXhOcO2N+R86d3F9/YhlJnfV22DGfmewLkSikH0wPWlisMfUUSVT22z5Jtx4bOllQe+tzTp69NZ5PvxqppwUFh4+8tctMAe1kBo1pSIOya875rSS3FniZsYfelzfc9m0ca09VJxKDty39i8OWOzP4OFmr33n1t/BNkT1xpvVNxB76/M7hJ9ph6z8+1ecFqfL57z5jlcYwLE40UrSUSL9fTqUZE/ZUO+af7ygCTp4dhb+NP476jBPnJTlxcIrIy1xrSJVSyRMKDs+9fbCaFVT7YwueIIVChN8TIREmVC/1SgpNHThnORF48n7VFkrAfV79Ds6c+n7jzFGIVEbSX/bCjZaT17BSPEvYbxcQ61q36Mg0kFDoU1pRBDlh2BRJvQWw+ymbi4CTZ3PxjN/ZREw4bkZ2rLLia9vM6lMU6S3eb7zov5INTx7ldraKiPABkqRiMy1bzU4Kv48kKTIkhhReL7yugHekvqhhx5Q9M/nFOeuTbfNpqn70tWY8luVUeqgAfFNCQCWnPteTqLz7CZk5+t4/bslbD1oiuTfjGvwczUHAybM5OMbvLDg+ZLMrKnYxr5ChCkHjcoTUGjY7xV0mlEnT//Ep3ejjh/HUPt+iJzhnCvJsFxpDjQJrjqZI1ufPQ/aDdyxDcL4cNq0wLUzmUgtLByyvuNJA6thD6+NDFZGQFqbZwxcVIjXSElPCZPron2ktAk6ercW3I2dH0izJS5x/Zr2VcayQGdTQEqp6FJwdQw9kX4SpOtsIlRqRZFyRaoxEOkaVp2uo6AppShy5FFT61G31u9NNUuew8ufLr8gUgkQf5c/TL4LzlXGVUVZT5twNSwyPTSbodNf992eOgKdnzhzD2JyhokpBFLjIizDzcghVGmMV63qa+vSMZc7rpo5J1kxyWKmb52+aKbecgPVgk41UYqRNZQdlfnvUcsqjn25caN3lN+epFp00aanHrlgJyVO22SDd44Tjtey5pY3LrDS/T4H2ihGVc+lJgfrN6ZCfpZ0IOHm2E+1W/RbOIKUkFjcutzzZQWT11Od143ghBIibetS7npRjgxzvuJAn0NCXlFRy4ihLeNRH0ywTF25aVmFT2dODsSSfhMg9rT4mVQy6jIkBCZRHCFSB9qSpFteqqEoiKQlUJCp7beyKRbdqbvbweeuSlnv4Knv10nRzVmRvw65ZUIpiWceYeEQkNqUTpg5dtLKelwlSJ+ibpvs6ri2kQ95RpfdV1R4mZEOMPO+x7bOIPy01PalYU2y4JUwmKslXK923ZL4V39opSXSpZVQsOi2pP3lvuOURAnHFqxf65eTZpaOIo6W0XPUytyjkR1tLGNXco0asJoSjG5RtMZCK8vqc6h1Fn4j5o5i9ntylvlfqw5li3HvMDzlhXrpwS+Oy1spUsI+qTHEdqh2QlyRa0hYgaQowS1oNFfe7ZWhijH27u+bk2W7EZ/p7kjapjl5ar0pAujkryh2vNRw/Us+TqnYUbkyFHtXsg6iQYxip9i1/0gIEKCCSVJpoUc6iIgWkNV4hkwuziRx4pec2huLLZfZ8kjkimCtiYn9uARw9eUonzy4aVoLci4p3LO6Qik4xjPrCFcQYKi0xLS962E6C7S+8dRQBwqgy565b6vod2aO1UR6mFRY7jWNoFCF5c6cVNyyxzGE2o7tWTfWMQfRDR4Hrkh938uyCgUJFL+qmK0r1LmHXrC+ZhoouB0vqlG48VSkKaqBLMLEaVYL4iflMqcJTkWSFrdptFHsoTiWSGJRthSof9lFi8SN+1bcBidUYjtcZJ8/xUInRewXdVOVtCiLfJu/JyrqcbqQTedFTUs1TqkiUVvUj7G3e4otASosc1eyTciyVNKaU0gvbhGDPVWxrSVESpXWLrXxskcr1XbGMzC/e4ouAk2dMx6ZEjCDOIJFmqLEZxTzSX7zokk4yx6/IXiaJMw4B4zHFMW7dqlflS6pwX1Dpu/Jm1Q7tV3gTTV75wqvzLLFKoU3HL1uKMSaRwVvsEHDyjN2QiBtl1yw8q1AXbZcbQl0izzPSplS/sM84cZqKiYxDdlAMIYx9l1Dlk9ovPqlKUiVFQxRUHrCyRvtEjQbYVxTSlF85YClt4ZySKp+RSYZ4Um/xQcDJMz5jEXpSkROowC6USvsbk4uumMC04gNT2myNeMJO5XTHDK6u7w4bzCUlWSbl7Ctqt8+i4kPJTAqBEdoGhbqlJAyQcptTHQJv8UHAyTM+YxF6AnkacYGjmUAhp1vOhtxRSSlksZAp5K2nECCzKmQoXb8rh9+Q5cmX135KYfEkxEx58yU5miraU96lz/gMvZNnfMbiUU/qAqYr2qq37/fHLK0by1tvI4DDj91FExpz7KH5b+1+VGxEERcVEWlkweltJLrj6uoqunZHh3u+lxBnHXlSUCLNjo3eZg0COIhI4bS7St+MWoj9rJsY0fv+2DEEnDw7Bv0kfzhkBk3ys/6xnkEgFGzxYPlYj6eTZ6yHxzs3qxHwhTPWw+82z1gPj3cu1ggouJ0khuLaxVaZ1ycHj2QR7JbyoGfk3PP421iP3ow75+Q5Ywj9BLMRgTzpsqqdWlFlK9JnQ+V7JEVVvC/Le15S1fukAtwzn59t/YZ6s3EAYnDNTp4xGIRu7QKV6/MKqSkSVsM+Pjfva0O2Y5bSTpK93B6wIZ223qhQ9PgJpfLYSoQssbIC38uKlsgqPtdbbyHg5Nlb49nWq6lQn1KVgSprVSkoJalLhBH2H2prL9r7Y/dVBany6raqij7RTxNTRBV55arnv74zhBhlnEAnQqzr/ubk2XVDFp8OJ/AGU8GJR20xUSnpsYc9xOzbXnll6yPiJHKIHUjZD+rUVUtqjyI23ivuVp1VBbWHkoGo8msWhayxhEKP0j0ulcdndra+J06erce4x38BEav3W6jc/0adxKlFInH2hvX9+ENLKRY3amnVUUVFLxxWmblv761te1JWrnrp3BKjstJk9o2qzA5YI9i68tFDlbpy2LzT7UZgRPsSVRbPl4Q9ymrYd//qozHEGfWJzd1Q0bOy/1I2MDT2mtqgnTTZQwo76VOO8CtFSfXeYouAS56xHRrvWJwQCBXgseuOtpScQKkJ6gxAoCnV40yKRMvPaI8pNTzzBe1hxE6nlVA9afRkjQ+qQG9p3ZpRmbrGv/vrWCDg5BmLYWhDJ6gHij2SGxP3BRLUIy5oQwe6+CfAKUiMo4paoWg51VN9WkvKHprS9s5l7J9UjdcmfaVv7TEvLPc05Lrj706e3TFOM+5lMmzVMRi2KkZlTKmOZHD2zPjMvX+CSkpec8KSosVG2yIn742q4xNcfkJqdwK1nQr/kKe3nkLAR7SnhvPJF5ORBMThbRoIEFEwIgLEuw6BSp0uaQfMVGTPfMIpUc0rxL9GxClV3tibiPNNpin060lxpJP5un+mtQg4ebYWXz97DyAQQrIkuZu2Dw5kNidnBe2GmTp0YcKrKytls7xqYTWBgE+qoHVSe7Un2NkUEo4k2cazwK36W4l40vlK+/QWSwScPGM5LN6puCGQOq/913H8kL+uVnx+o5XkEHrS/kIUtS5pO5USWw2PtuSlW5ZVNfjJ1ma9p61YnDwj9OL36KFK8RsT71EMEcieu6EixZI+oyQAFQMZfmOHFdkiI6r6T78lMZalbhe0M2bhuQ2hCny4HNk9UyLP1J2Hk7s6HHr1m/5N7lv+qTYi4JJnG8H2n+peBJKyb6Y/OmmF7z6rTflkixS5VSSJjkitzhy9ZAlIEVumHEslbRFd3LnaTKmroen9pLaGZqfTKe3H/iS1vnth7KmeO3n21HD6xbQSgezRy1ZZoRJ0L2xU6qVuHUUtVBS3SYWlisKSwpbQOHkoT0cQPE1OoiQ7nrJ5n2+lUsWkR/518uyRgfTLaD0CpFVm3zse0isLVJJaqF0uabJvJrRJ22NNnnXsnJlPZOc8PTiptMzHzuFvxBYBJ8/YDo13LI4IJB/mq2mX8r6XNy23Et50POLseoqdEtVd9s0EcbUqiJw+cUW2ziEnzjgO5gz75OQ5QwD967MPgYSytHJSw0tyIlXJs18pl33BcZRUPCj2z0CeqqCUrCsaMvuQ6u0rdvLs7fH1q2shAmyzEbbakH2zTCC8JE9U+4TSN+t3QG1hF/zUHUTAybOD4PtP9wgCOIVIwfQ2qxDwOM+4DTcpfGVSTEZbpe559F5cHtVVqgd5awMCSLQUm/YWGwScPGMzFNWOFBUjWJmb04vRUJd5/VZSCbM4trLytsvz1Nf6IPE4drQL+1QhjjTqN88H+q24bCB6xx9jgICr7TEYBLpApkpxzxorqWBuRRuHRdxpC/pt5I+et8Sxy5bTToxxUA/LubQVlecdtpvYoPTD0ZjGBPUu8Th7mzkCQBllGOl5ZeFcy393r5WUG59RTv3TipLMvAN+hqch4OT5NIRa/PeislCKe9dZaZNIU/UeTcQ0hoAk1ZWVCkgtyGGl/CV04+QOXdR+Oe23sVXkFCmw5e5e7dGzepFVCNFh292oURy44NUqIzhm8hjMIZduKr1Tc4KmnPqK5kFRr8sUJTl43rLa2jjheFfx6cC/Tp4dAJ2fLEmSKIiESltXanuHcUiTcmcQE2RKkypfVjUfWzTPhhWgnRSBZg9faIskSpGLAjfuvg1V0kRVrydN+kfRi/dPWOrGXV41t2Hvq7cDN/fs8Tybcuj7f3PURrQglcmRJ6MJqX6uKjVt0i6lqkpf0mKa1uZz2Qs33LvfgVF08mwz6CXZrgpImju1E6MI9DFJU17b5IFzlpNkAVmOvLzZTCmA4cZBIxZxledmrbxkvpVFvskvzln2CJKowmOa3Ch4UdS+4wVVEGIL3bCtcCNpXr1taZkTMqqsnryt+MZQqX6GHeE661plfs4q5JMPPah7t/efUrGpT/sglY5dsRHtE28iy9A0LthA2aGzoCD9kiTQzGdnLU3ZPG9tQyCxdf+bNbt02351Fv4QRJjftdpKKjNWIZUvO5qREmEh8kuowAR2TaS3BGQoEsEpU1y50EZe3WoJqWtjGhV+yGZRtZ+Ubp7ssUvNIVHZMAurFln+Zd2wKqsWCvo2OoWUp51WebXMCW25qzqVgTSbNJOKkqpGvrHLKhFZiJAT5IcrNTJDmuNs2xiNOFLNn6LGIk+NTzkVaw3MwYeMJhZSTDoPnl7lvvZ9fzJtBJw8pw3d5L4I+QXSfE7SG/vgILnVO1WU/5yQZJH95LTqPN5R1R3ZDKOyZ9FP6OapSG0ryM448vo2S2xQUd76xudl+0oooyWl8+R0vilV76k7V1HEPvLmziDtoq4/5klX9gxEnZPtNXFPkibpiE0izagbFBEeeW2blV6S1B01hUQlyN4RQeQ+PGUpCnHMtob9W9jkVbGpIGwSkj5rjTnAth+XtWPAByeCJuD20Bo6LXni5NkSWMUnIp78lhVWFNlVCDHBI11Pmtjx2J5WdsK0JnyVhJ7CQvp+ZH/Mf22HGY6k+sYNpFjAhFTp1IcnLXtSUiHbPkyiFVXkYhjS3KFSakiZ9Le+ac+e1Oeyr8mkkJKkOemtJOrPMdnn+mnCs5B8S/s3PNrGgu9j+5QUmnvniKVVoDjgNtnz9srn5IUvabxGXtxs5WdVoDna5oPri+aAxp6tjzPsVeWxuC0ZeSfPJsOKnTAv9RpyS0hSrIUcRb8DaeqmDyooBXaR3KbRkETz21daXhJaQmruY008mjh33TLcQBOQTElhUcNvbLcKVcsbCZOTqhBGUqaE3MdIeyLNdjYtFiPbVljh6yJ1hXKNaSLR5HsnrE9SVhzCt8b0rV0vNF7BvKK5VlG0xmPjR1WnT08Lo5NGPVJvzUXAybMZeCKkSRrISxLMf2O3JEKRZn1DoERiQqX6/XHLyW7XLMmtIm98fpscB9gnIVGk23qhEXVXzpwg4WrbiGAvRLKTs2pYdtSKnE6Pec6RVKQiB8eVCgC3nTTrsdNzCD4vCb60a40cbHW7WOpvFW1q1/cPX1paj9NdiBp+ruteBi1H9uGCxtOWa5FpXAS16KW1iOYUnRFs6Uin3maMgJPnDCFk4hY1YUckvdnWFWPPxiTFFikHUOqjU3LoXJYa3Zo4SLZ+wBZWJKxFnviw1069mUDknThyyTKHL1pRsZrl/ZI0++TBrm9IxdhgDyqW9EOFHcl7HpdGxk1+9xorQvhUaK93YInsU7/7yvpk702QYz5LyaGscLaR/RvllJQqjz20HiMNZEXhZH2/PmppxY+Oa1uPy2B3ST+cPGcwUOzl/eD7z1alt/rzcPOKJBO35AH9WA4ctmmYpO2x/jTTeV5WSA8kGrz6kGijV3+8k+KtxbsvyQQVb9L77Ix3rha/h8Sc10JVYqEa3Q4j+smKJPv+n32hPenleJvFweNFjTsOpbIwqhCTG2UqRUBpPhICldIunu2al9FP99JjavHKDf+mly6ondfyUBO0IqN9TU1CG8IjTNiI1N3cLw5Z9uKttqqTkAYOKIrwVhSyEmIzw5YRcgLVS6IAhVQsW1hCcaK5v/3M+iSVtiJetJljgn0zrfCoivod0ljZF32UHBLKeCrKdluSlB2IgZhTxmSWNQo2E0JmchxW5qjOKBjVR3mQ1bZPOMl8U3NWzjKMmnG5Tp4zQDGPZ3oNTiHNQt2kVdI8ZX0/P2hZbfiV7GA8ImpZmt0a5XXF6VNhXx3214nsYZCmzAjZtw9a34HzXeV0waSblnSZPHsjLA4VMq8iCVtjUVm/zAoal+QtBdWzmE1mHPgeai4kQ46+DMdhv/YZzI9Of5Vao2mNcUWREiRXYGKqmXM0DyrrllpZC31GWHqbOgJOnlPHrPaNAvGWhAtBnpJ2Mn/7qfWpwnhTsmxqvzKzJ4QqpSX9liVllgmuhkDVkgplmvObr6rFfGf2Ex37NhJWWtk1FRGkqfpUpX9UCoX7BuZYURk4ZeyhLBSYJcaxhVZEliwsJcXglhQdURLplhRaFipbIbGrTYp8wyfj9w858mmFK6WQ1mXTDvUImAPMWbUEeyxpuxBvU0fA0zOnjlntG1q7x2iFCQpjxLQF21ZdWFSC7SHGIZOYdv+J3UI67FMoVfH8TSvgkWdBi4LH2QZYYTwP9V5WiwX7piejMRJ54GApKu2UPdYra1UdikInkZMFlV82weQpRSqwDxGxuG2yWz/xYmfwB0KVsHM+VIxu6XvPVvdc4nx1c2IGp5+VX3XybOawo/LFtaGuj0oboYtBNY1rZ6fer7QiGtKy2w4rqL6s/dSDlB1UcOWBK+52RHa+1KdnLCtnSfLmfSurGEtBhU6oEEXRlcca35UEWtYxLAk2I/IlUqHbUx9ZPEo9sGg+Nl4deMPJswOg+0+2CAGk0M/OSAq9YUXFvRapBRBtD4xqroSCEQXbZ0SgRQWVlyDOyBMNoaDaD0t7YJHBjgqBot3qHIVv7TFianMKOetmCbQSXW+LhmA2ndbJczaN9iy51rSKlqQUspTYq+pVKt9XJtMLZ4mOsjKWRlDtUc8jIlFUQlLbAyelmpucLAn9jToEJVWUqqxQ4gEkqnqaRbK5VISF0DNvjoCTp8+BnkQAJ09ORUSKIkTCl4rEhVJsGsLs0xE1Cp1IHc/qsykRY2QHRkKjilEBMwDVnSBfikHLrkpOvVdyjwCcvY91s2j2guBX3qMI4GlWrGNORYVJi02evhYqD9WuVt76lGJcs+TtS1qNiJO/U3yZGqVZZS4lKDYcOVZUHrBAHrm3WY+Ak2fMpgDFbQuoi6iKXdioxUmMJVt2xKVRyi6r4tIZkaRREWq0Ja7JyaQ9gSbKqMIEkJZUanWe9pKqZXlzBOIzw2f5WISwGVWMLyh/m/in5NtfhiyZMbFQMceIayiobmlZnu2y4gozbBMCWcUgy4eiIaGyUCRBSq0njTOtGqhPa+kz162o6wiZOnImhdx6ohck2XqbvQg4eXZ47JEwKdQRAro3LVfKoQo66KbMy9nRp1qf3eLZJTunoJx67INsEVFQUWXChVIqmpyRutzxikeQHtJ8tCcU+fz3VQEfD/tTWorYUA64Eu+74ke53kS5NUVentId/3NMEHDy7OBAhJ0z2ZqDTeCoFIRTgiapBtWworjEbiHPsIe7vNghDZRrUMB5SVJ02GtJi0OG7UUUdN6xplCksIlcJC3iUVfON4T6tIyw8qizqFbqjwB6FZ32NrsRcPLswPgH9VYSWon0QcJoRlMmQ1coHUdWC2mepB12SSMNlE3ISAEsYxOkGAXSnqTP4qI5kkIXWlJe7dyX50RiHSIeKi0p0yZkICn0CGIvyQP/NNWdPaSM2gDEf6pVCGfSOHmb3Qg4ebZx/IOKrlz4IhkwbKymrSZqhTroh2xwGUJm5OVNEzYT2efa2Mfp/lSo5qR+J4buW1EV8ovs2URxZmyDUnPL8lCXRVQVXXdajpsMMZXtbmyWJ4wrcspBhJgVSpu1Bzql2ZAmx2llOb6KClcK1alG/55ShX5vjoCTZ5vmQEk2wDwxg9RYVGX0morO78v2ltKuhxlVwEldZRM48s7b1LFm/oxUY4gIxwwVnUaUwVPWNYfq7/yOMnVKUufLy1QSTV7u3CdnVM2pffUAksKZ8CO2LwnSPrntWsgSqrSeYdO8BgItU6Vfu1WW2fpZkmpo+mzukAfJV8GY3f86ebZ4/LEFFqSel5RHjRc6qLPRb0qyTMiZksUeqC0yqBLUCx5c7LQpxVf2UYRCpflGXt4atjAOUii2RqnBYe8k2UjTKr7MRnXtaATOpy6rOIg23isr8yiYFTQmBW1zjNOO8n0plbGrYHNWGmcZs4reN6o1jbak0j9n5c6dEQD+WEPAybMGRXOf4I0tKl4z//JmM9k1Q4mzUZtZ+CXFD2a0OVf6xKAltY1ux73Rzb38cDYkUALTU4qnzO9YacU3djyy78rOW16/1AqSwkunVmi73JOWlsrf6pYaehicV3n9boVygsokqqg6fUUSKPvEF4P0KVst9UGxRWsco5aQzZbc+fpg+uhv/jj7EHDybOaYY6Mk/G9unw2/or125G2usFVE3Q1IyEtS4TshHVDVfRKFp4fKNLOLbT+XMEnKwZL7/FwIWXqoEnHGRm40SXgQF1uG4DgraTHJav+kli4kcvSkqV/526NhO4+KCDx40WXbnCiwPyFHV7/qn4ZY0Wrv/d9ZjoCTZxMnQELhKyPs1f6dZ6pFZ6PQI34DFV2OlIy2ys2wiyUbwVHJZ5a0oMpL2p770wOWlwRX+NZe5ZrL9osDWzjhladyUWmzpND3jltGu2G2qkHOGY1F8s4XltdmaSVJncGbPs4PVtAQVI4uq6LL3V6ObpzL87dmgICT5wzAa/xq/h/tlyQlQsgSplP31yFth/C+thwWaYS4zU6E6iAV15M1r9vdtFawu2VORJRRdXu2Pi6/KLMGHnlMGqjysjNSNq70uWpvHjhXtQO3op+6/pS2oOj77VdW1u/kVRS5hBeeUnQan4R2Dk1f1GJHAWUKR7cAr5KSCYqYDAjrkkRMmmhGZN0Ldu9WDFnczunk2awRwRHCntn1pKk4zaS86Ln3tFPhHdIUOydpkvVTy67RNRPjGLJkmnX9UzmPyIm0zf5fHbaiCnMMf3uvJbA/0iBSFSouvrU7JA9kpV5n5HRqSdN44GGHRPsJ4Fds7aMB1FgxXM0eMy0SeTnKCs9vssoGOaPqagBgwBnBlKM8/DmSdltqvmgJoLPrpL6H0QzGu6Biu8HpEDmCIuJEclEcY5Y9jZQl1MkdKcuSpIbf3Gkl2WDHVEyXlJWXnTGNl3+4M3ZXttBIESaksKWynEsh/jIydYApziQyrWQXDtsJN5vIGsc+Ikt+h+dNboRpjXxzjxaGXWaSrkO4GotF/UFVe8XEUiPANDYTFS2ZTvfIakO6j+zwidODQQuYzrlm+3ecPGcwAx4jT0hTJJD61RHr/4cvLS1HSceaJOG8bsLhP5QpAQfNOFWaEjIxEABeYjtfqYudyvwhhAg1nk3KSuwzTt1NyJPFCMlM9uGkQp9CKFfHAJ3ZD5PJlJedtyQba0RcNclW8yZIuFxvtBDrukuqb1BWskRImJjZz9e+7eRZg2LGT1xtnzGEoydAWpFNs/8XBzvrkZUUU1LmUkH7cpPlM0baZJ92mRKCVxkJjxtVpFr6/rN2T9JI/99/IUlHqYcis040amrO+ZvPLK8ohQJhTRRJiRrE0qWtLFtuQbbdEsH5UZO5ICFbuKliU/LWPSMg37QVcJC+sYHStAAWf7DP8rK/ZhWf6i1eCDh5Nms8JD2wQ2PHQllELhVtlVtULU2yYir1BXuRiLG/KvUz+/FpKyjLqfSCbG5IeKNhVAmZIIb/4i1L/fKQ9ckO2andNYNXXupq8cqtaoUpxgcVugVqdLOGfsLzaIEqKkMpVLIfxZq9kpIHzlqfYluJ8X3UjtmIFrHidxWtgY2aJudj4WvbLfPjjzq2qFU74v82IuDk2YjITF5HN8dMzjGd7+p3S5LSClLPi3JEhC10o/Mo24d87vRH1UweQqRSn4hApSYXFHNZxlFDMDiSnaTR0veesfu62ftUQZ1tKUJ0QHSutj3SGY7ub9g5S2xEx0JFk/SfUm5/Tsd4C21O9t/EvRHL/yevVMcFeyjJFopHzSkzylt8EHiUPhGfPnVvT5jo7WySaghzKch7O6zY0qLSDGvEibQpqSYlD3LfTz6z3JFL1djS0f4RR9kvaSalEKoE4TFRKA6qvDJthn/0qo0QvI4ExHvtbh34yVZcYpkkgKXzaqdOqKgIu3eOR5zRh7I48VTLNZK2Kyxq9ZpE9EF/7CgCLnl2FP4Z/Di2TRUbKW5fZYUXNoo06+yDqIVysKQVKxkKXtRtIVH/i4TC9OsmzSsUqCQbY0kqf81GKsdN8ZsKF1IVJLbbTUp6TXZRibz66+zk85Bhpoyz0LSgpSTxk3H1tJZTFtpDbTYXiqqktJIotCx45XWOprZOLIxNvYDOnczJs3PYT/uXkTZD3vzzG0M+du1E1AJV6E+SLTCUg50W4U2mZRVWVZEUOqw8/PLutdXCzJggJPFUdqwOQeuomlmdN9z4zb6BJ9PJLv1MgmpMOOdoWnxSyt+fzCJECJcRG7wM55HIU953ijLPPOxN5Itzkxz+sPVyk8k4XOjs+MfJcybj3Kimt1rV1PmLSwaC17Yg4gxFfaP+Y9tUNkxGueGUtiOTZyotSKHvIYXeUEzoFitRTSgUANa9JntdUbGi5dWLLSNHR0oqf3KK559KX3rqs3BTtNhoQcKpx7bGTwuAJ4GhIuKNplQFsovOMwOAUnj4v7pSNdNoEUaj8DY9BJw8p4db9VvsfyPjfpjUWs2fdkPM5KcqCmUpymmQlx2yQpBz1HRDJRReRIxkWvbN9AyLDGdFwJW/O2Ajzyn+U1InOefBI09B492rLa8CxykRaAYpVFJUp2JDo8uP/SNzBHOHHEdIj6UVwk+B8E8Lfi8qiD7Bd2hjJEWR6AxaRuacjGzgtca5vU0LASfPacFW/VLmpOpCcnOEykgJqWRPt2VN5+fYzpcYwbziNhP1tk3iNs8r/1rxpWlJm82SBglrws5ZlH0uBNFvVOUhfhcHFYWM39ge4hHTknJDHVKXQp84rAmloSaUsx72qNKnkOhLK68Fh9GTFlvicPMvbnqU2ICGs2zA8tI2qAiVHFTCAPNuus0Jc7rIjfmeZxiNgWNqL1K6MaiYnsY5o4OtKJrZKpL2ivJ85wmwVlxmQq9DY/JTuIKdKUVyFBNudmB7NXVS3np5fisKbwqB9aQOciNjCxWJlnVDh/x4FXEOdrwmCTHs8VSCsHGSqLG/OltfdGWGkdRtYjbLK1R0BPunrg0siYTA494ouZNOWyDrKyqYEgAQ5hRNUfGSIpjreUVvYZp5EgEH4PyfliLg5Cl4+/pytnL5Muvv77eRkbwK3HQmw6Y20roxCso9L6r6fJ6cdMX51Yxf8pAnTl+37CfaB0gV6NMtknajvoS4UNnFEsR86k2ILXiA8dLKJgophIBukUTyfr4pN3MvkWdY1GRaKWmxIVefFoovi1AJQcL+iQOwrOiGkmoNFGSWKUKcItjQsHOyKIE3Dh6IWPMhLFwi2oreR1No9uJZ/fEn/5tJp23F8qW2YGB+uGdKpeYKDk/+5fj8Zdar7QPz59tbX3vFvvE1xTXm83bi1Fk7eeqMnT57wa4OXgvvtXu4ynIqFCRplpWmOCYnXdJKWlWaUsoAaucGakjUmfPXg6eYgPuStksOu37ikVex57DFMPu0i8xDDCPbiXirIZCSmo2Jo4jUKZyQ3sOGeCLUxHVt9MeeVZhEIFe2aokckdizZY5Jq+pTQSFp4W+cFdJlI0HMOTIDZJUAQYRFq1tfTkLGimW2acM627p5o23ZvEHTM21vv/M7++3vP7T7D1pjtmr1dU33/LOePNeuWWn/7J/+kb38wv4gcd65e88uXrpi5y9etpOnz9jxk2f0eNbOXbhkDx8Oy3bfJN10ghFDlUvKTlZG6hhtCanmVFlnn51m2Tajc0/qUV2hT1TAL127YwURe0kmhWhLXnKyC8ImTRFjJ88xkCZkn6RyFKRYJC0WgqRJcq/tc199Z8y/bNWcVWFowpuo0lVWplKRYHkImIZ0KokV00krWkKEPnfOHFu/brVt2bTBtm/dZJs3rre1q1fZ2jWrbP68ueL8hC1cMGCHvzru5NmKQYjzOefNnWurV64IXUxKLWIicOzZtV2T4SVJn9ft0uWrdvb8BUml5+zYiVMi1NM2dFtb2LaISKkxiUqOGleRipZRjGVKN18gpg6DSbpmmirsCvTOKzOJje3CFsP0CzVSUtHMm5j60box89PF4AxUoc/IRp1UdEZhlzaW2yASZIsWkc+YxoKJR1wSZ0qZSFFFpax29yxTeUq7f5YUdVHcsjyo8Em9F7YVGXOS6b/gHli8aEGQLLdv3RxIc+P6NbpHVgY1vb9/NAKg7ieWLlmkFPxRe3zd+73+dNZLnhMNMKsuKy0HkunNoSG7evWanb902Y6fOGNHtNp+JTKFXJvdCGXJ/v54KI6RPqEtIKhmHpemRSMpW2tWJoQ8MaBLJAkh/bCYNIP0IJRGUonLtc+gH2gMCbbzuC7Tx3GV35PzpzwgMgqSo2yX2oaZylLsPJq6IgdkfWYYmMtBmRSJhiwlRVlg9wzRDnI8zaRBmGtXr5Rkudl27dhq27ZssjWrVwQ/wMKFC55KjCXZ4Zsz8DO5ivZ/18mzbtiHR0bssy8O2UWp7Lt2bLPNm9Zbf191pc2qug1OJY69e3baG6/ctWvXbti1GzclkZ6xw0ePhwMVv1CcQRhJ3RxIX7hhdkE8Uqe+1/2540/D5nWEzNA/CZwzFsRFmEWRcUH7vYfSbB2/wuZ3IMF2G3K+JbXFcVo7ixK/y1bHNDSOpDYInDBqY5REMyLhijSAxr3mJ9tj5vN2keTO7VuDloVavnTJYlu2dLENzJ8n39TjpoAHDx9KaDhtp86cC/fHti0bLZWqahozHvvJdjxGn3PyrBuMouI1Pztw0P7Df/xpUN03rl9re3ftsGf37rId2zbbvLlzgo0npYm1SCsyx3a9/9y+PXbz5pDduHlLttHL9uWhI/bl4a/sq+Mn7e49be8wzRZX0hxzOQ1a55i/TeFFWfa/vKpClRXPWsYzLRNALzdINCFV3jim0QhRCt+fwncH5BnfLcnymd077Jk9u4K0uXjRQqnpCxVp8rg6jlkKH8DRYyfti4NH7NCRY8F8ldd98l/9xb+Sar9hCr/eex918qwbU1Zb9u0OqrkcRJDf+x9+aqguq1ZK4hwl0mc18ZYsXlhbnecoxGnOmv5gRN+9c5u9+tJzsoneDvbSgyJRpNlDkkwHr11vmZ207jLa/HRm7BkCwpUxFaqmQ5qEQvWgyt7mQQk/hzNn1crlYd7uf2a3CHOnLZVkuWhgwBbIrp8eZ3cBQo4GpVExbw8cPBzm7RWZqoaGbtttEWmhUAhCA+F8icTj0mknrrNTv+nkWYc892ySf0b5IK8QEtRyDlSVA18esb/+u7dt0SI5lKTWP7fvGdv/7B6FbqwNEimnyshwjurDsXnjhiC1/qM/+LZdl1R6VGT82YFDYRU/d0H2QkJUZmnDQ5zftNxKFDdRymKFykOj6usshaQpl53LZm2j5uP+Z/bYPhEmGtMSSZYDA/PkOZ+rBf/xxa4kIjyt+f3p5wft8y8P2RFJmrdElndFlvcfPLTGGE5IuXo0pctdexInz0kOHRPo9p274bh4+UqIB33717/XhOwPHsmXn99nLz7/rGxIWyyneDhaSgSB/Yhj9aoVtkMG+e984w27c+eenTp73j757Av7WMcxee8faJLOllZYpWr3r201I5oASTM4TEavHjWWYhW8L4eIt6cjMFfmpF3btthLcmpiQtqwbk0IXsfhmctlawt7/ZlIBjl09Jh98PFn9qlMVafOnLf79x9oHj6wYf2tVZEk9X3o9udOntMYQSYWMZ8c1+XTwdsOCfb/ZV8Ie8Iz/+Jzz0jq3B3CPvgJTALYlTiWLF5k69autlde2GcPhoft/PlL9snnX4ZzHJBtqZVhUNO43KZ9hU3QRsiLl8QZ6lzWkyY2PMWIptmaQl7l/MtblQLq5Dke+Eh9iyRNPifJ8mXNoef27bU1q1baHM2tnLLl0nLi8JnGhk0ezeejTw/o+CIkgTzU/Hs4PCJzVXOcnI2/2cuvnTybMLp41wtScTCuX7t+U2rPCfu//t+/DoZ4bE2vvfxCmORrFA5CY2JnlEWUycyz+ZJKly5ebHtlxP9Pf/THcjoNSXU6bO9/9Kn9/oNPgt2026WAsuIZh18TaeJFVyriGEkTN632Kk+rKHNOsY2m8ByKPEemkyYMT0+cAiflStkvX3/lBXvtpReC02ex7O54zYmxHM87zoWfPX/RPpR0+a7m0peHvgoLc16ZdHnZLjuehtzlI+Pk2eQBZEIOayXngEzPX7xkP/35OzZvnlQreTrfePWlcAMQGhIFFqPep1K5kGM/f948W7dmtf3hd9+yEZ3joDycpL797r2PQkxpk7vb0tNRvHdYeypVVGS5gve8XtLkl5WJlJKk2aeK9wn2jhd2tfa44FT702x5gv19p+bM1zVnvvb6SyGsiNC5lBw9kOl40iUpxoQTvfv+x/a79z9SUsfpkPlTkiMU22a3L8RxGnsnzxaOBhMV7z0HMaS/e+9jTepPDKM+MaSvSyJ9841XghSB3YrGDYEXlINc4iBpvPy8/Xf/7X+pnPuz9pt3P7Df/P6DIJ1C0HFqhN9EwZ7De9Za8es7zbQ3/GOOIFT0z85Y3++PWUrFRKLvxOlaOtUXzDov7N9rb77+qn1dhEkeOXMiOsbrF46dAwqPY24wx85J2kQbYv45WY6HWHPec/JsDo6TOks0mbEzETPH8T//+/9z1E66z976+qv20vP7g50UNSy6YXgkKATPKcdf/Pk/l631ptT6j8MN89EnBxQRoCLGozdLp24YKvzklX898uauULgilGCLkCHzCBVdKYd97xxueTWo6Gfj+lg/tsuXLpFp53mR5StaLJ9XKNBCjf3jPY/Gtyjn5TUZ2z+W3fLXv3vfPvjk8xBe9Pg3/J1WIuDk2Up0J3nuS1eu2l/95GfhoMTX85I8UO9fffG5EMhM+FOkqnFK1DluuH/8w++H454C8T+Wwwn1HmcARU2waxEhUE2dm2RHZvixhNI0y9quY0yDMIuSNJWDnfnVIWO/pNnYIMNkUuq2nDlZ2bs3KAHjtZdEmK+9ZPue3R0KcIyHC+NXKhVDda/zSsB4X/bL32mcsYvPJAFjvN/y96aGQFeRJ9IYoRfYe7DfYF9kcvHYK8ZvwqF+9Zv3woEzgNCnV198PkgmBOBnpfLzPvUUkV5o81Td5i2V1ONAqsXORXA/EglFTCBXYkojVW5qU2SiT48jHkUfhzRVRDmhCkxp5ejnTin/P6ZpplGXm/3I+OAYZMwGZMveEcZyv72iJAps3phlGhvSZUEZPCx+hAwdPPJVbSxJ2uBvvdC4lzmw94dH7mndy9hsu+Ve7hryZMUmHex733rTVq1YHtSWq1JdBgev2+WrgyH+EoIg5CJIXBAr9kat2hHBjj/pdJNzo8ewcT1fHDwajv/pf/9LOZJWKXvped18++1ZZYsMzB9Q7n0uxJUyCWk4FPYpnZQD9f68MqVQ74jnI66P4OeHD+XQkg12xpMU7iTouj7wOpCmNqO7dd9Sn56xnMqqjSlwEXrZu/8wDpBin8aBkDRSISHLF5RQQbGNKBe8HgHmK0Q5rIVv6M4dO/DFkRBt8aG0CMojxrVFt02jmSgySYAF9T4jrSmtBZ8wKjSphQsHwn28fNkSJZToUF498dO/UOz06bPnuiKBpGvIkzSz//xf/sj+9I/+YExYBgOHtIXERpgQBYxvyB54UyTBa1LLiG8jtWxEhAG5Vp041dU9JVWqPDoLeAjP48mlQR0/f/Enyr3/O1uslNHn9z8TVPz9iiclCH+OAvYJ2mdy0pioOBw4fvRPfhgWHLKkPvrsgFJGD4d0UQKjOaZVzATHDxV9KA5CeTU9shldUnVHcwfOqchFvBxarSIhoibAHg1g1Ypl9tyze0MVLsLPSOMdr7EwUmgD7C8qTphAdeoqEO/LXI5zC5qexl5SR7WbWj9JBFm+bGmQtFk4FiijicymFXoPcqQOBH9frurzlLDDPMVCH2lPnAgh52XZ/P/tv/tfQ0pz9eTx/bdryJNqRpvWrxtDnMAK+CG3XPnlSKQmiay+MdBM0ltDd4JR/cbNm3b7toj2xg27cPFKGMiochJTAamB+Dk82RAKxUKCNKvzxKWxYNy4NWQ//9Vvw8FNS7oo6Xiki1J/kSIQqIoETYeUU3WeSfydb34tHNjLDksShUy5cUkXJbSK7CcWo8k0ilNQnLms4Hd22Uyoyk9WdUhTkjrjKs1P5rom8xnmHIRBjjh4Q5hk9+xUpg9E2tiYh0j7eMaHRI6nldFzQHZL6h5QSJiEizg1VGlMQ0iLUSxpZtRcROox9wifoXHf/Wf/7E8tLRMFW3NAmIskWUKi0Wcmc21IqghJVHfqhtY15AmY9QIhNzgEgOSY08ZorP5IXPUrGd9h8Ch4zIHaO1FjL6Nvvvl6WCUHr1+3m7duh4II5KVDLKS0EVyMBFsNNFZwvF4jRTSqLhP9TrP/hk0T+yYHNmHS8/ZJGoVMMXWgEqEmkdscqfdUAX9FDikOpO0Tqpj/5aGj9smBL1UQ5VS4bm5yJCPUyie1NPUn3z4YVPdQHq1H7Zqo21TVWrhgQYiGoJTbfjl6SILYKMk+WqDqcQK3e8KPohqDMjGxxQu54yxYxP8ybzrVuE/CPTNKiAgNWc0d3oMsWRggsUVaHJboEcLEDEGhcN7HYRnda6jef/SD70zqUrhPuIcKunbsm0ib/Bb3Ho1FplKJj6Ay0UV1DXkCej1B4RT5xTu/E9iVsAoysMs1wGESyEDPYHBgrCeusvr+xNWucURt27IxHBFoSJ0QJ0SKOjWkgsiECSH58T42xMtXtNeRCJXJUA2QH9ZzSDUf3msnuULwYMPx47/9e+05s1xlyLaFijo4n5AMlgor1CikCho3PlsscPzpH/9BsD0dPEwo1VfhPJevDOp6byk75W64pgib6HG6NSWj7z/1cQK/1FO/O4MPsBBBFksWLQoSEfhQyg17Mzg2Nk3RsJgyJ8AL3CjnRoUiwtIg0IkWosbzzeQ1xIYw0adr4DqymeojWhYkyf2wUtdAmueAFtKlIsMqOc6XSj0QFghU62iOTLYv3KMIFNhw64UNhB1ec38gmNy4MaR7aigIN9//zjdU+Wl7+And5V2jtHQNeTYOHvnkqK2s5jQmCIONdMCmboEgpFrwnBtghVZHVkw+hzpBHjATiCIeOF0g2vEmCu9FNQ8b+8BrVHty0ZH+INcbirdkUtyW4Z/XSK3X9d5DmQ5QzR7oYAKN5KtZSKhy2GDrF4bxfmc673HeCwpb4vjZL38T7G94effs2hEmK+mi2KGQTKOVn5su7FGjfWq+/+03ZSu+a8eOnw4qPmmnZ85dCEWgsSNzPfXawHT6OO53AlnWMSZP616O+50mvYnNeInSZZGmqE60SxImUQ7Veq7VPXvqf4pxgxiuy75OKbezctBhDoEsKYzN3GhVY26GuRvmcXVeR/UTMCswb5EYWSgx4VBaMbI3ksm2cMH8mn18Kn3E48+8RWCIHF3MhXCMUO/hVsDitq4d7ZDF5LrMZUMynd27fz+YhhA0aBRkRnqPyHMq/ej0Z7uWPHGGEDcXNVY1Ji/HeA2yxDaIulpVvRaGFZZSXUyyaFIx+Zh4rNAQCjcTr1mtxyu4gF0I8uFobNxY9OuuJgy2rluSXtnKgxsKqZVHJtodkSw7D1JZiQnIxLwvsn1w/6FUnHzTyJW8eY4PFVTPNW3aWCWHHSKIzVI9sStj0GexoUGkCyWFUHyCA9vxmbMXtP3ICUlUJ+QVPW9X5KC7OnhdN8m9oII1YjCd10iyiSHZTdlMTuycGHrQlC2Nx+sL6jhzADsdUvrmjetkt9waUmmJxYScxmtoItRnJdIDkjwmUwdS5ulz58PiON53pvoe5IjWNGeO5qQqJPWLJKtzck6wq2LXjkwykOMCkeFiBdgHaVKqMCnBCAfjmRSe1BfmLEH4ec1bFvowJ7U4EAlAeTrmAD4DhAJq1mIjR0hgXt8a1cbu3VNlJn1+MgtrUnZOwrm6sXVnr6eBdJgImgzjkSt2USblPE1QJiTkgR0mEK1WazbEYvXmfWynNWINtlQRrYgI9ahRcoV8OC9HINeNYzuOfQdyhTiZgKzQTMa790WsWqWRYCHWm6MrdrS6s3rzHV6zgk8n9o+b4NCR4+Hg+smn37ZZJoutGyVlbVHW0/LgwUcKi4rmQrhIYRzYrVBLiSM9LnspNlMkXAL+ubEwd0y3sUla5svzVjk1GBxPSXn0OZrVUGdZLNn4j+pWbKOLuQa1fMWyZePezFwP0RuXFE5zSYTJAkK6LNePt5yxnGoL5Kh5w3xCYyJFl+fgPHduf019Zu5xMB8pJMNztCxKzjG3puKUoY9oJEiNVFMKc0l2WTQjKnxBfGhNYf5pPmKvZaEPi7/I8rbmJ3ZwFvjpXPNUMYrz52cNeU40CEwCVlgO7FKNLYrdY+JiBpg/OtHxtDKJg3FdJLNIJMsNgJTLxEbS5abATICJICKh6PxM+kjNGs/DGMhV5Hj3LiYBTAMPNNmRWGV7RSXSpCYkC4n23oP7of9MbFQlHBWs/pFZIPrN8R75HXYH5fjFb96tqvcq5LxFpILDCYfIejnbkEq5uWk4FnBMcXxLTjYk6DOSRE+qqC5SGOci0wnJjAViKo240Iw2QWtWC4uY8MeTi9MQiRKi3KJrJIwLSW28IsEsTvSfRQEpm0Xi5KkzoRYrC9vTGlItiypjzHxAVQ4EGV5LrRYJYmecL8kXCX8hhKjPYINkEWfu8N0pk6Mkx6BSQ46aM2gFzAvIkUWX+YLZhXnCPIrUazQkFmve5/s4c7w9GQEnzydjU/sLkwiVhYO40cbGzcnNMTBfZKnJP09SAxIqNwA3DGoh5IjkCrGG90TEfIeb40k3SSBXkRWEhQ2useEsQ2JgsnPcxzygR6RYbhgeUdN5ZGEIdlnZMHlE8gw3lAii3t7Kc4iQgyBt+rhBoTio9RANUtp6ESb7drNocO30k/5xvPzi/iA9402GcFBpqcJ/VrZS9neiX+1o9Avc10uihizZAXWr7L0sBNGe44394NohExIL6Dv9Pi0zxRmp4mfPXZSk9nCMM4PfiMYPaZEQpbC4ivxQtRdge5fNEQcMUiMLLWM/R/NjvuYHizFmoamSI4sddnMWSMafeRlIT+PPOBNoXzUHVSVGxj8QqD7L2CNJMgbG9pkAACFhSURBVPb1496Ihb9+OgJOnk/H6KmfYBKi/nCoDPpjn0c94yapSqXVYGpsVNxskCk21yVSI8MNNSqFhBtLNyTSKySA5NrYkJY4J8dKBWc3NlTNYKfSDYXZgv5xk1VvuuFgFiDelRvuLuqaiOMO5KobK3xWNxmPURETnG2rV1RVXdRdSBUHFNIpoSuR2YL+7hnYHnZlROpElYeQzulg3/sqqZ4LQfuNfZ7pa+y2Ybto9Wvblg22fu2aoJoTvE7kRWNDMieLhy2ksefS1wsi+TOSnAcHr1tCGEN6eNcjckRCZGHkNeYYAuEx3YS/s3hCnhrXMDZafKZj06NfEB1jAdExLtgaebyr19GGg1W7JH+vjtWDB1Xpku9MK/GhESB//UQEnDyfCE3z/gCJsfpzjNeIq0O6xH7FDRfUO92YvMfryGPK+0ivxN7Nk5TLayQablYcC40NMuPG5xivEUKFpxgpBkk0kl65Ibn52LuJm5TnQ9y8sr0iwZxVQP1nilfEgYbHfr2IlEckU8iUR34TiQrC5TUHiwx2Q8iKoHzCqU6eORtshxf03nTspGBHdAASMSTOnuNIlrwHqSEdRo3fJ4wGux2ZaJA5UiW2S36fhYIFjLCdN19/OeC6SHGdSNSMA84jYmWrmMscowUN0qQPU20QW9AERIioy/dkmhm6Ixsj5hiRJqo1tuOadKkxqI6PpM3RMcPu7NLjVJFv3uedPJuH5bTPBIlxjEeu3PwQIyQU2c4idZ/X3OzYWsnoIIqAx/lSF1EfeY5qjdQ7XgIBNz3HeOTKTYkzioLMSEGR2SJSE3Fu4UzAHoud+IzUcqr+EGiPHRTJFPviWqnNEA8eX64FIuIgwBxpCZviZTlc2NMJqRR76RnVo4RYntS4JtRv7JaEEmFGwPmDTRNie1LDUXJV0RhImEQJ8BvYo1/U/lNvvfmacJoTVO1gb5SnOlrQwL+ehJ90/uh9vMwsBEj0jGnVEVhVncl0C6917TdFjmDAYlX1ZlelTGyTSOwcTo4RqvF7dPKM35iM6RE3D+TFMR65It2hFuayOamNVU8tEhFSLGokhACJYhYgjCVIopJcQ+yqHBbzIFdJT42qJWQRzqNzLRjTo+oL7G5RvB8kFEhAZFEoFoKjAfJAakKSwmmSlIOpvnH+0BdJqGyMR8ETJN3Ba9cDCUfhUJcHB4N3mJAwCJJq/BxIulHeNAvLZJp+MpDrJoUjrVu7Klxz8GwLo6lKjwS7B1ujyI8QHRxIXCs4YP5AauQ9sIEcI2kxPJeUH6IktGBSHcxbdyLg5Nmd41brdfDIj0op2MMaGySFZxwy5SDuL6ib4XXVWUXYzjKpqlH0AAUdSMnDtodJAAIeL1IA0uKABNfU/TDEidQEMeBx5pio0UekaNR/DlJL33j1RTk9biqKQI4NnYdFAqkycrxF9tWJztv4N/pBXzF9PK2BK2p8NXSn6niDJIMkKfX6xvVbdlWZMpAjIT8hbEwLHKSIGYQDtZrzeOtNBJw8e3Nca1dVU791Uz9JckXqglCDGq80vr6+avoeRIvjapnIlXAeyJTQGmyChNlARMQcIuHWe4whtumQW9RppODlo+p99F4zHiHpqEWRCkiL4MIj1dnxUhMWhmp9dfB6kCQDIUKMWhCqJhYR5OhrJ8cI0dn36OQ5+8Z8zBVz80eS0pg/jL5AWqPyOTZTjhx2Uog2SLPZYAqAUMluISWWdE8eSQUkuYC/jeflHu+3mv0eEjCqM3UICPomthGzAAQJOfKav5NiiCOJ2EZqEvA8vEatlnruzREYDwEnz/FQ8fdqCEAeDzmkhjY2JLlQ8HZU0sQuWZVeM0HyRBUnlAfplPTWF1V/9J+oHiuN8xKydPjocUm61cD7xvNP9DpI1CK9jYrh3LVjSyB2Pk8x3V8p0B9pkbAsvPvYJvFuQ4hIjoEc9RoHEv1wp8xESPvfnoSAk+eTkPH3n4oApAMBcagS8mOfh1yPBZuntlpIJENIUESeOJt+qe1G/rf/4/+eUu519CN4tPn976o+6b/+b/4L2TGrDqmf//LX9nc/e0dl9rQ1i5IbyNN2coxQ88dmIuDk2Uw0/VxjEKiSKxJe9W3U6KhRegwpEKfQTFpjXj8qOJ5tb45AqxGoloJu9a/4+R0BIVDvsAGQ8fLJpwrUVCoGTfXc/nlHYCIEnDwnQsf/5gg4Ao7AExBw8nwCMP62I+AIOAITIeDkORE6/jdHwBFwBJ6AgJPnE4Dxtx0BR8ARmAgBJ8+J0PG/OQKOgCPwBAScPJ8AjL/tCDgCjsBECDh5ToSO/80RcAQcgScg4OT5BGD8bUfAEXAEJkLAyXMidPxvjoAj4Ag8AQEnzycA42+3HoFmlHMrKb/dmyPQCQScPDuBuv+maVOOsL0IdURnUvszVVej02F1BNqJgBcGaSfa/ls1BCDMF5971v75n/1x2H+eAiHsCnlX1fDZyoJN56gzSlUkSt1R3o6iy1STZ+M7qtuzZfPrqjgPAXtzBNqNgJNnuxH33wsIsK3Hc/v22D5tBAdR3lCBYgoTsxUyNTjZA+jqVW3Spq0w2DaDLYXZ6C5Usl+sLUK0LxP7MFHNvr6KvcPrCLQLASfPdiHtvzMuAlRFqkqTc7Uj5traZ5A472iLYMrLIWHO0y6hFF725gjEBQEnz7iMxCzrB84i9gxCRV+5YllQw+slSPaEZxsPG3fvTgsbq7GPOTVD2Yq4/ruzDEq/3A4h4OTZIeBn+8+yLca7H3xiP/vFb8KWwsuXL9UOntUtOxZJTWf3zrB9h/ZKQvpkg7abN9ne97bdCpu13bTLV67ajm1b7E9++N1AvrMdU7/+9iLg5NlevP3XRhFA8rx46Yr2HHo3bE3M/ukLBuaF3TpR49kGmS2Q+7W/ERLmLZHmXanxPL97T3uj6/l9bUv8Jz/8nv3gu2+ZzXFoHYH2IuDk2V68/dfqEIj2c2cTNgiRo76huvMZtu9gD/jxWkr7uatE/Xh/8vccgZYi4OTZUnj95DNBAKcRx0TNt+GYCB3/WysRcPdlK9H1czsCjkDPIuDk2bND6xfmCDgCrUTAybOV6Pq5HQFHoGcRcPLs2aH1C3MEHIFWIuDk2Up0/dyOgCPQswg4efbs0PqFOQKOQCsRcPJsJbp+bkfAEehZBJw8e3Zo/cIcAUeglQg4ebYSXT+3I+AI9CwCTp49O7R+YY6AI9BKBJw8W4mun9sRcAR6FgEnz54dWr8wR8ARaCUCTp6tRNfP7Qg4Aj2LgJNnzw6tX5gj4Ai0EgEnz1ai6+d2BByBnkXAybNnh9YvzBFwBFqJgJNnK9H1czsCjkDPIuDk2bND6xfmCDgCrUTAybOV6Pq5HQFHoGcRcPLs2aH1C3MEHIFWIuDk2Up0/dyOgCPQswg4efbs0PqFOQKOQCsRcPJsJbp+bkfAEehZBJw8e3Zo/cIcAUeglQg4ebYSXT+3I+AI9CwCTp49O7R+YY6AI9BKBJw8W4mun9sRcAR6FgEnz54dWr8wR8ARaCUCTp6tRNfP7Qg4Aj2LgJNnzw6tX5gj4Ai0EgEnz1ai6+d2BByBnkXAybNnh9YvzBFwBFqJgJNnK9H1czsCjkDPIuDk2bND6xfmCDgCrUTAybOV6Pq5HQFHoGcRcPLs2aH1C3MEHIFWIuDk2Up0/dyOgCPQswg4efbs0PqFOQKOQCsR6BryTCQSxhG1ZDKp19Erf3QEHAFHoL0IpNv7c9P/tYq+OjwyYreGboeT8NybI+AIOAKdQqBryPPCxUv2V3/7D/bBR58FrE6fO2+D1250Cjf/XUfAEZjlCHQNeV4dvG7/8Sc/m+XD5ZfvCDgCcUGga2yecQHM++EIOAKOAAg4efo8cAQcAUdgGgg4eU4DNP+KI+AIOAJOnj4HHAFHwBGYBgJOntMAzb/iCDgCjkDXeNtz2awtXLjA+nJZI+bz4cOHNnT7jhUKRR9FR8ARcATajkDXkOe6tavsT374Pdu8cX0A6YtDR+1vfvq2Xbp8te2g+Q86Ao6AI9A15Llo4UJ7+YX99vy+vWHUUqmUvfPb9/XcydOnsSPgCLQfga6xeVYqFSuXyzWEKmUp73rPmyPgCDgCnUCgq8iznishU6fOTkwZ/01HwBEAga4hTx8uR8ARcATihICTZ5xGw/viCDgCXYOAk2fXDJV31BFwBOKEgJNnnEbD++IIOAJdg4CTZ9cMlXfUEXAE4oSAk2ecRsP74gg4Al2DgJNn1wyVd9QRcATihICTZ5xGw/viCDgCXYOAk2fXDJV31BFwBOKEgJNnnEbD++IIOAJdg4CTZ9cMlXfUEXAE4oSAk2ecRsP74gg4Al2DgJNn1wyVd9QRcATihICTZ5xGw/viCMwyBBKm/xKJ2lWH53Wva3+I4ZOuKYYcQ+y8S46AIzBDBIqlkg3duVvbEeL6jVuWHxmZ4Vnb83Unz/bg7L/iCDgC4yAweO26/fhvfmrvffBxqG1+9959O3Hq7DifjN9bTp7xGxPvkSMwaxC4Lanzt7//qCuv122eXTls3mlHwBHoNAJOnp0eAf99R8AR6EoEnDy7cti8046AI9BpBJw8Oz0C/vuOgCPQlQg4eXblsHmnHQFHoNMIOHl2egT89x0BR6ArEXDy7Mph8047Ao5ApxFw8uz0CPjvOwKOQFci4EHyXTls3mlHoDcQ6O/rszWrV9rAwDyzitnISN4uXLpsBM/HvTl5xn2EvH+OQA8jsGrlcvvzf/Fn9tyze3SVFRHnFfv3f/kf7L0PP439VTt5xn6IvIOOQO8ikMtlba0kzx3bNoeLTKXSNnfunK644O6yeVYk149pja/H/NFfOAKOQMwRqOieLpfLtV7yulLujvu6a8gzk8lYVqtU1Fix0mkXnCM8/NER6A0EuoM4wbpr2OfGzVv2xcEj9uDBQ5lGKvbl4a/sThcYlXtjQvtVOAKOQCMCXUOeJ0+ftf/+3/47SyVT4RpKKqKaLxQar8dfOwKOgCPQFgS6hjyxiwwPd0eF6baMnP+II+AIdBSBrrF5dhQl/3FHwBFwBBoQcPJsAMRfOgKOgCMwGQScPCeDkn/GEXAEHIEGBJw8GwDxl46AI+AITAYBJ8/JoOSfcQQcAUegAQEnzwZA/KUj4Ag4ApNBwMlzMij5ZxwBR8ARaEDAybMBEH/pCDgCjsBkEOiaIHnq/i1butj6+/vCdd27d9+u3bhl+Xx+Mtfpn3EEHAFHoKkIdA15rlu72n70j39gmzduEAAVO6A89//vb/7eLly83FRA/GSOgCPgCEwGga4hz0ULB2y/Cqbuf2Z3uC7SNX/+q99O5hr9M46AI+AINB2BrrF5FoslKxSKNQB4Xio9qgNY+4M/cQQcAUegDQh0DXm2AQv/CUfAEXAEJo2Ak+ekofIPOgKOgCPwCAEnz0dY+DNHwBFoMwLJZNJSqWqNXn6a14lkos29mN7PdY3DaHqX599yBByBOCNAyOGho8dCF9m/6MrVa3ZDIYjd0Jw8u2GUvI+OQI8iMHjthv0/P/6J/XTuO+EKRxS3feXqYFdcrZNnVwyTd9IR6E0EhkdG7My5C115cW7z7Mph8047Ao5ApxFw8uz0CPjvOwKOQFci4OTZlcPmnXYEHIFOI+Dk2ekR8N93BByBrkTAybMrh8077Qg4Ap1GwMmz0yPgv+8IOAJdiYCHKnXlsHmnHYHeQCCdTtuCgXmWy+WMIHmK/dy5c9cIYYp7c/KM+wh5/xyBHkZg04Z19q//67+w1199SeRZttNnz9v/8D/+L/abdz+I/VU7ecZ+iLyDjkDvIpCR5Nnf329zRneImKPnfblsV1yw2zy7Ypi8k45AbyJQlrRZKpVqF8fzbqnT6+RZGzZ/4gg4Ao7A5BFw8pw8Vv5JR8ARcARqCDh51qDwJ46AI+AITB4BJ8/JY+WfdAQcAUeghoCTZw0Kf+IIOAKOwOQRcPKcPFb+SUfAEXAEagg4edag8CeOgCPgCEwege4mT6VzeXMEHIEuRkC3cEX/dWPrWvIsl8shF7YbQfc+OwKOQBWBsgSgcqk7ybN70jMTCavfkHTZ0sW2Z9f2sG3pzaHbNnT7jhUKBSdUvysdgZgjkMlkbPGihbZo4YDt3rHNlixeVNfj+ru87u0YPu0a8kyKPNnTOWrbt22xP/8XP7Kr167ZdW1VeunKVbs6WH1+8+Ytu67j5q0hGxnJR1/xR0fAEWgzAjnlqUOUS0WQPC5ftlTHEluzaqVIc6GtXLHcNqo4SNSS2rPd922P0GjS4/0HD+z23bu1s82bO8f27t5ue217eA+SvHX7tt28ORRIE/KETC9dvmrXrt/Ue7fssvaERkJ98OBh7Tz+pHMIUIJspg21z1s8EKC4BwS5YtkyWyxiXLZ0ia1euVwEuSxIl4sWLgjvLVww37LZ8Yt/sPVwIV+IxwU9pRddI3mev3jZ/uEXv7ZFCwZs08b1NndOv1ELMGqscCuXLwtH9B5qPGSJWn/n9l27dgMSHbJzFy5JWr1pg4PX7YoIlvfui1Cxo3prHwLNwDucw/mzfYOmX0pIC5wr4QV1e+XypSLLpbZURLl29UqR42JbsmiRLRBBLhKRLhgQUUpNn6gViyW7f/++nTpz3n7ys1/aVydOTfTx2PztEfvEpkvjd+Tu3Xv29jvv2rnzF23N6lXVFQ2ylNjPysagsbKlUqnaCbCtsPpxRI2qLUMi0jt379ptEeutoTtS8W/aeRHqVZHp5SuDMgVcl7R6Q4T6QITqd2aEXTMf06m07X92j/3Zn/wgjMXgtRsaCy1yGmeO+ko70e/29/VVb0qN89LFi4N088arL6qQ7vhSTPQ9f5w+AqjRc+fMsaVLFtsK3W9IkjyuXQNRLgnCzEIJNAMiyYH58yXQPLr/xvtVKibdGhqyQd1f4V7jnrs6aFd03124dMWOnzxtt1UMuRta15AnYEJ2H336hX36+UGbI8lz3ry5tkADNqBK1AsXLBCprgir4Lo1q4NdZYVIlVWx3lYKuWJr4YhasVi0u/fuh4Mq1ty8qPqXr161K1L1L1y6XCPWu/fuOaFGwM3gkZvshX17beP6tTY8PBywx5wC9ixet27dDtrBg4cPw6LIzbtcN+uSJYsMk828uXPDHEBN7OvLzaAn/tUIASRKcI3uo9WrVogsV9hKESbYz5/P/TYQHvlcJjMxfaAVDGosr1ytanjRfXRRJMm9jBmO8b57974xzs3QRKJracfjxFffjh5M4zdKGpSI7Fi9aBAkNxHqPCsgj/PnzbP161bbKkmnG9avCVIqEwKjNQ6oqKH+I7VyRA1Cffhw2O5J+kTqvXf/QZVQ5ZjChHBBR0SsTABvU0OAG5UFkKO+IZmMaAuGYdmwuaGKMr30SeLEnsYjNyzf9TZzBFC9N6xbI0lyqVTuVYbQsQqilEMnLFASTuaLJPuEPUWLJ2poCpjCIEZ8C9wf5y9ekuBxVffP3XD/cJ+wQD7UYtkMe/dE/WnH3yZGpB09aNJvsGoxMBxIjTRusk8OfKkbDyKdGypW88jKirdv/do1BpmuXbMqrKzZ7CPbDIQ6f/68cEC+tKImyMjwSJgIqPTc3Kj9F6Tyn9NkuagDr/9ZmRaYKN22koaLbOM/3HCM0VjNIFkj1cWLHi1m43WLGxCjSv1CON7nZvt7YLxQavXatauDXRJpctPGdbJXLg+SPAsTqjlkigCSrjN9jYcdTp0binDBd3Dp8pUgTGD2Qv2+gxSpe5D7A4Ejr8/2AlGOh0PPkOd4F8egDYvsOHAK0ZhIXxzMhNV0LiX/+3NBQsXwzSoMkUKq6/UcO2qfNqaKGpMqrQnGJIsaBDm8/xlJqSJuSapIq7fv3AkrMPux4O3HTntOqj+q6Hi2vOhcs+kxL4/qz3/12+AE3L1zW7BhLsf5oIOwlgEtXNiso4Zqf1P4odKDKeogjoV9e3fbH//gu0HTiD47mx+rG6rNlxRZncdhPkv7QqrEy82WF/1oaJrDOXm86xeuRty4fyBKhJEwh0WQF0WWZzSvr8hWiQlrWPOdec8x2+Kse5o8GycDr6MJwaTA7kKDUA9L0mTvFFZeCJNJxo2MTa56rNNjVcUhzILv0Jh8rNwckVuK33h2z06pJyNVFVSPSKIYxM+cu6CJeEEbXV0Iag2EWpCJYLY1FpFTZ87ZL+QEfP+jz4I6ns1kFcKSCUSII3Dd2lVBayD87JxUQNTCKqb5INEg+SN6/uF33jJ9cLZBGJwzi2TrhyA3rtf83LDW2FBtjbzeLD7M42g+M2dx/kzUCPdjcYIoT5w6E2z9zNMrkigRCtjREnMKwghmLeb5bG6zjjzHG2wmAasmB7bUqJ06c9Y++fzLsEIz+SBXVB7sp0inW7dsDGoQUiqreNQgVrZS5Ygav7FDgf2oMRA3j6g42IggVIjkrEgVO9HVwRthckbf7clH3ccsPHlhnpeXvb6B39Hjp0KICzc85hJi/7B1N96wQWWfmBPqT921z3F0ogmtk+q9WQS5acP6MA8JD8LGT8QBc5R5OBm7MARYtUtetpMiyrOad2c1Dy9Kqs9DkCLKMDbCHaL09jgCTp6PY1J7h/izYrFqR43eRHr87ItDlpbjgvg1vMYrZDvasG61bd20wTbrIGNivSY5TquoQQhIVRzzbG54e+WKij6/3l57+fkqeWuSIk1BqGfPXVTYxhk7KQKHXHmvkTiic3frYyS9N/a/fjFr/Fvj6yedo/Fz3fSaayL8brPimTeuW2vbt20ORImdHps9zhtMGqjozL+nYYC0jjTJPDp5WnPqtOYUEqVinJnjkGSxUAwakJuVJj9TnDwnj1X4JJMrTDCtzFEjPfToseP2NjZRHVF8KUb5HVs32xZIVTfCehEszquoMenDjaCboF9qP21xZWGQbp/f90z4naqTatguKqrg+InTdkx2vlOyOXEDEGngkz1CszsfI6LcvmVTUL0hyq2bNwSbJSo3EicxsalUMkjqTyNKkj1w3qDJMEeImyT4nLhltB3mU3UOl92hOcMp4+Q5QwD5Ok4jjoJW76iR2cQq/0vZ9BJSTyFJQqG26MbgRoFQd+hGwZ6K8T66KXjkhuEwqzpMkDaWKM5xrwqhVH+rImkhH8jzmAiVG+TEqbPBgYJ9yvP5o1GI1yNaBwHmO7ZWx3/7ls2SKjeFrDjCgVKaJ5gyEgkeJ7ZFIJ3j0T53/lJYULFRMhcgTJyjzMUwV7S1L4kevaa1xGFknTxbNApM1pJKbZWsmvLJqs9kJ1D4N+9+EH4VoiTddJtupq2bNtrO7VuCXRSJFYN/RKh8eCypWrBxzd86z7aJiKOG44nY069kLzwhQj1y7KSk1VPBQ4rq5q19CGB/XCXVmwVy57atYYwZX8LeINGo1Y9x9F7jI3PpntIXCYE7cvSEtJyTdkILM4smWk/UnCAjJNrz6OTZHpzH/Eo0yXm8ISnhhrzNeJyjtmjhQkmo623rxg22c8fWQKjYUCnhxc2GZKKH0eePJBRssHyO47vf/Fo4HSoa6n0klRw+eiyo/RcuXLaHMj1U6iSTqF9RP/xxfASqY6D4VMZCEiJmGjzc2zdrAZRTcIscidtlrlmjGGLskhM1MNf/QTJkLHhNeiKq97ETZ+zw0a9kqxRpHjsR0lcnOpf/rb0ITDyy7e2L/9ooAuT+fvwpxxc1TFDdt+mGXKsA/727d8pBRVjK2uCBTSVR81H1qo/10gzqP6EsHN/6xuvhfNygwSl14aI8rWfl2T4ZpJrTp8/ZA8VT1tvEyiLf2RyQElRpzChSp8ESrzYhQXi8t22p2id5TRTGZIiSiIGysqgCxnpO+BXB5ozDsZOnQgwlJhjMPt7ijYCTZ7zHp9Y7Qqg+VdgUx1//3dtB6oRQCV0htg/HFF5+VH6CzLGxVr2xVY9sfTA05BoR6huvvFj7DUr4nZdEyk2MSnhW9jQcD9U0yWLwzBZL1cdek1LBBHLEew1u4EchkhAaJEzBGC2ARApU7/oFqgZg3RPsjFWsRnGTSYXCJyRO4MDBnILjj/AgYoB7Dc86KHr2qZNnlw4tNxs33aEjx8Lxt/aL4GwIhR2kLuLdr3r41+hxXSgfFmIBpWJij8vI7oY0Vd9wZnC8+Pyz4W3yzG+oLiqxpzgkCHUhhOqcJFZUS7KEqrGA8uKKHLqlAhXEB0HmhAEqdwgfUw43WTmUO4QgcejxSOUgCHWiVnUWFhS/KzzCUa0te+p0lRxPnz0XSJOaCJ62OxGS3fU3J8/uGq8Je8tNTKk9DmxkUcObTykxslAI6EeKQu2kQhHSFeRB0Q0CrOuJAlMARSI4XlAKKg11s2qTuyxCILD/Yo0YyNgiuBpvfwiyFpHQp6jVP4/ea/UjEjdSJGE/1cSFbAgqx/wRAs2FBxI72WOUVnua6s31Q5Kki5LsQLA5CwxebzzdJDqEYHPZme9JW3CJstUj3LnzO3l2Dvu2/fJ9FWg4roB7jqghhWKnw163VsHXEAh2VFJSiTkltY+KR2RVpSWdRW4pVFvKwHHse2ZXOF0kBePkCDnQo9kqSFrko5Pad0d50I3hN0i2M22QWX2D/FksIEKugUeKv2wJcbaqXaDqQWSIETb2NNWbcB8IkroFRCtAmASWX7h41U7LnHHhkq5X18x1co3eZhcCTp6za7xrV4t0iP2NI2qosBDNeuWUr1qBZFbNkybbJVTdEZmGMnIK9EdajciHRyqGL9i9Q86sHdHpQik/yAXn1MEjX4UyZ9Ef+Q5VkwjlqbfHRn+fzCNmgqVKWaz//ovP7QuE+eJzz4YShEjai+tKDY53Xsif1FwIkoWmWjFLRKmwL+JmycYhxIyKWZguUM29OQKJrfvfnM3OVJ8BT0EAkqSgNE4SnEyE5JBPvUpSK7GoOK3myl44by6E+qhgylNOG9R5qolfUr3HTHZ6a3ihUFKF80UhJAiJeDINosROS9k0Sqbdk0RMjQFIktRbSBJJ8irEKSkTtdybIzAeAk6e46Hi702IALZDPPoEgUOmECmPkCxlz+arUAWkSuVxbKqRhDrhSVvwx0CUUrshR8qn4azBXks5O4iSrR+Qii8PDoaya656t2AQeviUTp49PLjtvDQkVLZCgVApJ0dtzjWjpIp6TlV/7I8c2FshVMitGS0iZ0wRkCMxklT/ZzdVVO8gSUqKhCypQ3lTcbQuUTYD+dl9DifP2T3+Lb16iqTgmGEvqWXKzcd2isNmjTYPy6QzUt3HOnum25mkMq6oKY8UCVFCmASf80ieN2q6N0eg2QhMz9jU7F74+XoSASr4sN0zR9QIG1qm0Ccey0pHbEYjXbWikCgqnhMi5c0RaAcCTp7tQNl/o4YAxUvYRsObI9DtCIxNMen2q/H+OwKOgCPQJgScPNsEtP+MI+AI9BYCTp69NZ5+NY6AI9AmBJw82wS0/4wj4Aj0FgL/P2Ozdp6KijWlAAAAAElFTkSuQmCC;fontStyle=1" vertex="1" parent="1">
          <mxGeometry x="480" y="320" width="84.28" height="80" as="geometry" />
        </mxCell>
        <mxCell id="Evyd6iI5Z3ptmyk50GJe-10" value="&lt;b&gt;Product Docs&lt;/b&gt;" style="sketch=0;outlineConnect=0;fontColor=#232F3E;gradientColor=none;fillColor=#232F3D;strokeColor=none;dashed=0;verticalLabelPosition=bottom;verticalAlign=top;align=center;html=1;fontSize=12;fontStyle=0;aspect=fixed;pointerEvents=1;shape=mxgraph.aws4.documents3;" vertex="1" parent="1">
          <mxGeometry x="680" y="282.32" width="57" height="78" as="geometry" />
        </mxCell>
        <mxCell id="Evyd6iI5Z3ptmyk50GJe-11" value="" style="endArrow=classic;html=1;rounded=0;" edge="1" parent="1">
          <mxGeometry width="50" height="50" relative="1" as="geometry">
            <mxPoint x="587.12" y="530" as="sourcePoint" />
            <mxPoint x="657.12" y="530" as="targetPoint" />
          </mxGeometry>
        </mxCell>
        <mxCell id="Evyd6iI5Z3ptmyk50GJe-12" value="" style="endArrow=classic;html=1;rounded=0;" edge="1" parent="1">
          <mxGeometry width="50" height="50" relative="1" as="geometry">
            <mxPoint x="657.12" y="540" as="sourcePoint" />
            <mxPoint x="587.12" y="540" as="targetPoint" />
          </mxGeometry>
        </mxCell>
        <mxCell id="Evyd6iI5Z3ptmyk50GJe-13" value="" style="endArrow=classic;html=1;rounded=0;" edge="1" parent="1">
          <mxGeometry width="50" height="50" relative="1" as="geometry">
            <mxPoint x="580" y="359" as="sourcePoint" />
            <mxPoint x="650" y="359" as="targetPoint" />
          </mxGeometry>
        </mxCell>
        <mxCell id="Evyd6iI5Z3ptmyk50GJe-14" value="" style="endArrow=classic;html=1;rounded=0;" edge="1" parent="1">
          <mxGeometry width="50" height="50" relative="1" as="geometry">
            <mxPoint x="650" y="369" as="sourcePoint" />
            <mxPoint x="580" y="369" as="targetPoint" />
          </mxGeometry>
        </mxCell>
        <mxCell id="Evyd6iI5Z3ptmyk50GJe-15" value="" style="endArrow=classic;html=1;rounded=0;" edge="1" parent="1">
          <mxGeometry width="50" height="50" relative="1" as="geometry">
            <mxPoint x="270" y="448.59000000000003" as="sourcePoint" />
            <mxPoint x="340" y="448.59000000000003" as="targetPoint" />
          </mxGeometry>
        </mxCell>
        <mxCell id="Evyd6iI5Z3ptmyk50GJe-16" value="" style="endArrow=classic;html=1;rounded=0;" edge="1" parent="1">
          <mxGeometry width="50" height="50" relative="1" as="geometry">
            <mxPoint x="340" y="458.59000000000003" as="sourcePoint" />
            <mxPoint x="270" y="458.59000000000003" as="targetPoint" />
          </mxGeometry>
        </mxCell>
        <mxCell id="Evyd6iI5Z3ptmyk50GJe-17" value="" style="endArrow=classic;html=1;rounded=0;" edge="1" parent="1">
          <mxGeometry width="50" height="50" relative="1" as="geometry">
            <mxPoint x="100" y="448.18" as="sourcePoint" />
            <mxPoint x="170" y="448.18" as="targetPoint" />
          </mxGeometry>
        </mxCell>
        <mxCell id="Evyd6iI5Z3ptmyk50GJe-18" value="" style="endArrow=classic;html=1;rounded=0;" edge="1" parent="1">
          <mxGeometry width="50" height="50" relative="1" as="geometry">
            <mxPoint x="170" y="458.18" as="sourcePoint" />
            <mxPoint x="100" y="458.18" as="targetPoint" />
          </mxGeometry>
        </mxCell>
        <mxCell id="Evyd6iI5Z3ptmyk50GJe-19" value="" style="shape=image;verticalLabelPosition=bottom;labelBackgroundColor=default;verticalAlign=top;aspect=fixed;imageAspect=0;image=data:image/png,iVBORw0KGgoAAAANSUhEUgAAARkAAAD0CAYAAACvvVL/AAAKpGlDQ1BJQ0MgUHJvZmlsZQAASImVlwdQU+kWgP970xstIRQpoTdBOgGkhB5A6VVUQhIglBhDAooNlcUFXAsqImABXQRRcFWKrAURxcKiqIB9QURBXRcLNlTeBYawu2/ee/POzH//756c/5R/7pk5AYCC54hEabACAOlCiTjU14MRHRPLwA0DDFAFREAAmhxuhogVHBwIEJnZ/y4fegE0ud82n/T177//V1Hk8TO4AEDBCCfwMrjpCJ9C1lOuSCwBAFWC6PWyJKJJPoMwTYwkiPDNSU6a5qeTnDDNn6ZswkM9AUCTAcCTORxxEgBkVUTPyOQmIX7ITIQthTyBEOFkhF3T05fxEK5G2BixESE86Z+Z8Bc/SX/zmSDzyeEkyXi6linBewkyRGmclf/ndfxvSU+TzsQwBJMFiP1CJ3fkzu6mLguQsTBhYdAMC3hT9lOcLPWLmGFuhmfsDPM4XgGys2kLA2c4UeDDlvmRsMNnmJ/hHTbD4mWhsliJYk/WDHPEs3GlqREyfTKfLfOfnRweNcOZgsiFM5yRGhYwa+Mp04ulobL8+UJfj9m4PrLa0zP+Uq+ALTsrSQ73k9XOmc2fL2TN+syIluXG43t5z9pEyOxFEg9ZLFFasMyen+Yr02dkhsnOSpAPcvZssOwOUzj+wTMMAoEvYIAQ4Ae8JPwVkskCPJeJVooFSckSBgvpLD6DLeRazGVYW1rbAjDZp9OfwTv6VP9B9GuzOokpAC75SD+QZnXxSC819gGgvGdWp0sDgHQAgJZ8rlScOa1DTz4wSPfLAxpQA1pADxgDc2AN7IEzcAfewB8EgXAQA5YALkgG6UAMssBqsB7kgUKwDewCpWA/OAiqwTFwAjSBM+ACuAyug5ugBzwA/WAIvASj4AMYhyAIB1EgKqQGaUMGkBlkDTEhV8gbCoRCoRgoHkqChJAUWg1thAqhIqgUqoBqoF+g09AF6CrUDd2DBqAR6C30BUbBZJgGa8KG8DyYCbPgADgcXgwnwcvhbDgX3gKXwJXwUbgRvgBfh3vgfvglPIZCbgZFR+mgzFFMlCcqCBWLSkSJUWtRBahiVCWqDtWC6kDdRvWjXqE+o7FoKpqBNkc7o/3QEWguejl6LXozuhRdjW5Et6NvowfQo+jvGApGA2OGccKwMdGYJEwWJg9TjKnCNGAuYXowQ5gPWCyWjjXCOmD9sDHYFOwq7GbsXmw9thXbjR3EjuFwODWcGc4FF4Tj4CS4PNwe3FHcedwt3BDuE56E18Zb433wsXghfgO+GH8Efw5/C/8cP05QIBgQnAhBBB5hJWEr4RChhXCDMEQYJyoSjYguxHBiCnE9sYRYR7xEfEh8RyKRdEmOpBCSgJRDKiEdJ10hDZA+k5XIpmRPchxZSt5CPkxuJd8jv6NQKIYUd0osRULZQqmhXKQ8pnySo8pZyLHleHLr5MrkGuVuyb2WJ8gbyLPkl8hnyxfLn5S/If9KgaBgqOCpwFFYq1CmcFqhT2FMkapopRikmK64WfGI4lXFYSWckqGStxJPKVfpoNJFpUEqiqpH9aRyqRuph6iXqEM0LM2Ixqal0Appx2hdtFFlJWVb5UjlFcplymeV++kouiGdTU+jb6WfoPfSv6hoqrBU+Cr5KnUqt1Q+qs5RdVflqxao1qv2qH5RY6h5q6WqbVdrUnukjlY3VQ9Rz1Lfp35J/dUc2hznOdw5BXNOzLmvAWuYaoRqrNI4qNGpMaappemrKdLco3lR85UWXctdK0Vrp9Y5rRFtqrartkB7p/Z57RcMZQaLkcYoYbQzRnU0dPx0pDoVOl0647pGuhG6G3TrdR/pEfWYeol6O/Xa9Eb1tfUX6K/Wr9W/b0AwYBokG+w26DD4aGhkGGW4ybDJcNhI1YhtlG1Ua/TQmGLsZrzcuNL4jgnWhGmSarLX5KYpbGpnmmxaZnrDDDazNxOY7TXrnouZ6zhXOLdybp852Zxlnmleaz5gQbcItNhg0WTxep7+vNh52+d1zPtuaWeZZnnI8oGVkpW/1QarFqu31qbWXOsy6zs2FBsfm3U2zTZvbM1s+bb7bO/aUe0W2G2ya7P7Zu9gL7avsx9x0HeIdyh36GPSmMHMzcwrjhhHD8d1jmccPzvZO0mcTjj96WzunOp8xHl4vtF8/vxD8wdddF04LhUu/a4M13jXA679bjpuHLdKtyfueu489yr35ywTVgrrKOu1h6WH2KPB46Onk+caz1YvlJevV4FXl7eSd4R3qfdjH12fJJ9an1FfO99Vvq1+GL8Av+1+fWxNNpddwx71d/Bf498eQA4ICygNeBJoGigObFkAL/BfsGPBw4UGC4ULm4JAEDtoR9CjYKPg5cG/hmBDgkPKQp6FWoWuDu0Io4YtDTsS9iHcI3xr+IMI4whpRFukfGRcZE3kxyivqKKo/uh50Wuir8eoxwhimmNxsZGxVbFji7wX7Vo0FGcXlxfXu9ho8YrFV5eoL0lbcnap/FLO0pPxmPio+CPxXzlBnErOWAI7oTxhlOvJ3c19yXPn7eSN8F34RfzniS6JRYnDSS5JO5JGkt2Si5NfCTwFpYI3KX4p+1M+pgalHk6dSItKq0/Hp8ennxYqCVOF7cu0lq1Y1i0yE+WJ+pc7Ld+1fFQcIK7KgDIWZzRLaMhA1Ck1lv4gHch0zSzL/JQVmXVyheIK4YrOlaYr81c+z/bJ/nkVehV3VdtqndXrVw+sYa2pWAutTVjbtk5vXe66oRzfnOr1xPWp63/bYLmhaMP7jVEbW3I1c3NyB3/w/aE2Ty5PnNe3yXnT/h/RPwp+7Mq3yd+T/72AV3Ct0LKwuPDrZu7maz9Z/VTy08SWxC1dW+237tuG3Sbc1rvdbXt1kWJRdtHgjgU7GncydhbsfL9r6a6rxbbF+3cTd0t395cEljTv0d+zbc/X0uTSnjKPsvpyjfL88o97eXtv7XPfV7dfc3/h/i8HBAfuVvhWNFYaVhYfxB7MPPjsUOShjp+ZP9dUqVcVVn07LDzcXx1a3V7jUFNzROPI1lq4Vlo7cjTu6M1jXsea68zrKurp9YXHwXHp8Re/xP/SeyLgRNtJ5sm6UwanyhuoDQWNUOPKxtGm5Kb+5pjm7tP+p9tanFsafrX49fAZnTNlZ5XPbj1HPJd7buJ89vmxVlHrqwtJFwbblrY9uBh98U57SHvXpYBLVy77XL7Yweo4f8XlypmrTldPX2Nea7puf72x066z4Te73xq67LsabzjcaL7peLOle373uVtuty7c9rp9+Q77zvWehT3dvRG9d/vi+vrv8u4O30u79+Z+5v3xBzkPMQ8LHik8Kn6s8bjyd5Pf6/vt+88OeA10Pgl78mCQO/jyacbTr0O5zyjPip9rP68Zth4+M+IzcvPFohdDL0Uvx1/l/aH4R/lr49en/nT/s3M0enTojfjNxNvN79TeHX5v+75tLHjs8Yf0D+MfCz6pfar+zPzc8SXqy/PxrK+4ryXfTL61fA/4/nAifWJCxBFzpkYBFLLgxEQA3h4GgBIDABWZi4mLpufoKYGmZ/8pAv+Jp2ftKbEHoDIHgCh3AAJbAShHlj6yyMj75CgU7g5gGxvZmpl5p+bzSdFC/h9kbQGoLMrDAGkO+IdMz+5/yfufO5B5/dv+L07NAkc113jsAAAAVmVYSWZNTQAqAAAACAABh2kABAAAAAEAAAAaAAAAAAADkoYABwAAABIAAABEoAIABAAAAAEAAAEZoAMABAAAAAEAAAD0AAAAAEFTQ0lJAAAAU2NyZWVuc2hvdKtFtOIAAAHWaVRYdFhNTDpjb20uYWRvYmUueG1wAAAAAAA8eDp4bXBtZXRhIHhtbG5zOng9ImFkb2JlOm5zOm1ldGEvIiB4OnhtcHRrPSJYTVAgQ29yZSA2LjAuMCI+CiAgIDxyZGY6UkRGIHhtbG5zOnJkZj0iaHR0cDovL3d3dy53My5vcmcvMTk5OS8wMi8yMi1yZGYtc3ludGF4LW5zIyI+CiAgICAgIDxyZGY6RGVzY3JpcHRpb24gcmRmOmFib3V0PSIiCiAgICAgICAgICAgIHhtbG5zOmV4aWY9Imh0dHA6Ly9ucy5hZG9iZS5jb20vZXhpZi8xLjAvIj4KICAgICAgICAgPGV4aWY6UGl4ZWxZRGltZW5zaW9uPjI0NDwvZXhpZjpQaXhlbFlEaW1lbnNpb24+CiAgICAgICAgIDxleGlmOlBpeGVsWERpbWVuc2lvbj4yODE8L2V4aWY6UGl4ZWxYRGltZW5zaW9uPgogICAgICAgICA8ZXhpZjpVc2VyQ29tbWVudD5TY3JlZW5zaG90PC9leGlmOlVzZXJDb21tZW50PgogICAgICA8L3JkZjpEZXNjcmlwdGlvbj4KICAgPC9yZGY6UkRGPgo8L3g6eG1wbWV0YT4K9g5PvwAAQABJREFUeAHtvQeYHFV6Nvp19/QE5ZxzzlkoJwSSkBBIgMhLDgu7eFnv2r/te//rta9/+67tjWaXhSUjggQIIRAKKKAcUc4a5ZyzJnW473tGNaruCZqe6VDT8x0e0WGqT516q+qtL3+udr2GB0WHIqAIKAIxQsAdo3l1WkVAEVAEDAJKMnohKAKKQEwRUJKJKbw6uSKgCCjJ6DWgCCgCMUVASSam8OrkioAioCSj14AioAjEFAElmZjCq5MrAoqAkoxeA4qAIhBTBJRkYgqvTq4IKAJKMnoNKAKKQEwRUJKJKbw6uSKgCCjJ6DWgCCgCMUVASSam8OrkioAioCSj14AioAjEFAElmZjCq5MrAoqAkoxeA4qAIhBTBJRkYgqvTq4IKAJKMnoNKAKKQEwRUJKJKbw6uSKgCCjJ6DWgCCgCMUVASSam8OrkioAioCSj14AioAjEFAElmZjCq5MrAoqAkoxeA4qAIhBTBJRkYgqvTq4IKAIpCoHzEPB4PNKnR1cZMqi/VK1SRX7YtFUWLlkueXk+5y22iBWlpnplQN/eMqBfL/GkeGTt+k2ycu0GycnJKWJr/SrZEVCScdgZbtWiudx150gZMWSAdOrYVtJS02TooH7Sq0cX+Xj6TDl89LjDVhy6nBbNmsiEsaPljpFDpEO7NuJ2u2TowH4y5IfN8vW338nmbTtDf6Cfkh4Bl/bCdsY5rlmzutw+fLCMGz3SEEqtmjVwg97UZq9dvy4bN2+Xz2d+K/MWLRWfz1lSTXo6yHBgf7l3wp3Sv09PqV2rliEYC92srGzZvXe/LFu1Vr6YNUeOHT9p/UlfkxwBJZkEn2Cv1yt9e3WXSXePkdtwczZq1EC8KUULmMFgUA4ePipLlq+WDz79Qo4cPZHg1efvvk2r5lj/WBk9Yqi0bNEU0ldqseu6eOkyyGafzJ6/WGbPXSSXr1wpdlv9Q3IgoCSTwPPYplULQy4jhw6SVi2aSUZGeshqSCoul6vQd9euXZetO3bJx599JQu+Xw6pxh+yTbw+VKmSAbVuoDxw713So1tnqVmjesh6A1i/O2z9XBuP69Tps7Jj1175bOZsQ5p5DpPM4oVhZdiPkkwCznLtWjXlzlFD5d7xY6Rjh7ZSvXq1QjfjocPHZOq0GZKblyfPP/WoNGvSKGSlPr9fjh47IQtBMh98MkOOnzwV8vdYfiDxkSAfun+isb00alBfKJHZB9UhSluXLl2RKZMnSK/uXYQGbfsgsRw/cUrWb9gsn3w+S7Zs32UIyL6Nvq/4CCjJxPEc0uvSu0c3eezBScZuQbtLCrwv9nHl6jX5avZ8Y7c4cPAIbrqAtGjeVF54+jGZOG60fVNzQ+ZLNbvl/Y8/l++hRvlBPrEc1apWkVGwHT02ZZIhyKqQZuzSFonju0XL5KNpX8qO3XuFZFivTh2oUoPl6R89JE0bNwxZHqWanJxcOXLsuJHKps+YLUePO0MNDFmofigzAkoyZYau9D/kTdi8aWNzY469c4TUr1tHUsPsFoFAQFasXi/vffS5UYUuXb4i/I6DvychjRw2UP7+Zz+Wevi9fdAIfOLUGZkDO8eHn86Qk6fP2P8clfdcQ+uWzeXpx6dAChtm1hMumdBe9O5Hn8niJSvlzNlzhmCsnVMVbFC/rjxy3z3yKEg2XDWkapV1PUv2HTwM4/ZsmT2P9pqr1s/1tQIjoCQT45NXA6oQXdI/evh+aQmJJC0tNeTJz93vP3BY3v/kc1m0dKWcPXe+WBsLJaGWzZrJqy8/I2NGDw9ZOSWCbMShbNqyQ956/xNZsWY9pJp8kgrZsAwfKK2QWJ576hFjOwo37HK/8xcuNdLU7sz9kpubV6TaQ6IiudD+9ONnHpexOAa7B41LI7FSOtu8dae8B+ls1dofjMpYhmXrTxyCgJJMjE4EPUQ0hr78/BMITOsFycVbiFworVA1+vgzxL8cOW6e/CSLkgZv1OrVqsr4MaNANs9K3Tq1QzbnTXoaUsRnX86WjzDvuXMXQv4eyQcSQItmTeWVF5+UMbcPL5Ig9+0/JG9/+Kl8t3i5kTws6auk/fAYqmRkQGXsIT998Wnp2a1Toc1JkPQ8fb9slbw79TPZBY/UrbApNIl+4QgElGSifBp4A1Ed+vGzj8sDkyZIehGSC9Wb1es2yl/emSobEPvi8/HJH9lCqKrQ+PrLV16Q22HvCB+0zaxClO1rb74vG7dsL1C9wrcr7jMlronj7jBSU4P69QoRZFZWlsxdsETefO8TSGKHhOpOpMMizHvG3wmb06PSuGGDQlOQWE6fOSvTQZrTZnxtvFKFNtIvHI2AkkyUTg9vGEorkyaMkb956RlpUK9uoZn5lD946Ki889F0xIgslKtQC8o7qlerJpMnjpWXoH7UrVu7EBlQqnl36nSZMWuuXLh46ZbSAKWXZrAf/dPf/kRGI2o3fJBMMvcdlDfe/UjmgWRycnPDN4n4M7FrCA/Vsz96UO675y4jqfG78MFgvr9CFVwMtZIGcpVswhFy5mclmXKeF4tcunbuIP/r1ZekT89uhWakVHHu/EWZ891i2F4YRBfd1ABKNV07dZCfvvCkDEEIv9ebEkI2JLfvl62W19+eCo/PHpMDFX6D8jgYtXvfxHHytz99XmhLsg/OQfXuu8XLIL18LHSxR3vQ08bjeP7JR2TY4NvMeoqy2dBAzjVshcv7OiKJw48l2uvS+cqHgJJMOfBLT0uTRg3xBH7iYRML4rGlAXBa3ph84jId4K0PPpV1P2wqk1pR2iXS6zRl0nh5GPErVHFSwiKHT5w6bdYx77slxsDsx/o4SC5tWraQf/jbl2XQbX1CdscbmNLKXkgvb+MY5sHAG+uUBhqahyN360cP32dIh+sLJxumKcya/Z1Mnf6lHDp6TLKzc5RsQs6ccz4oyZThXDDwrB4MruPuGCHPPfmwuaHt0/DG5E2w/9Bh+eSzWfINVKPrsGHEY9Dg3A8G1WcQk9Kvd3eTxW1XPUh8jGN564NpknngIP6eYVS8F59+HEGBVUOWSAns9JlzJn7l7Q+nxT3fqD5UznvG34F8qDHwzCEiGmRjPxYulutj0CJd3qdgu2HMjQ5nIaAkE8H58HjcJvGvNzKiX3nhaenQvg2iWG8mMXIqum+PnTgpixAr8iEiXo8hojURg0ZURtoygK9J40bGXmRfxxFEC8/8ep4MHthXeiIaN8UWjUuSpL1o9559xp6zYMmKiA3H9n2V5z1JpV3bVvLQ5IkmM70xcrtolA4fO3dnyjsgwjWQFk2MToJSLcLXpZ8R56VZ2Le+DHih16xeXdq2aYk8nfEyDnEvjHy1D96YpxAEZ+I7EPPyw8atCRffUyFxDR7QVx6Zcq/0ha2oOo6BpRdKGpReaDP6DukKdB3zhnXCoOrH7O6X4LXrCwmNxxY+eA6WLF+DdIbPQZD7jUpYFq9X+Lz6uXwIeOo0avmr8k2R3L+uguAxk8gIkf1n8BqxEFNRT9JriFb99e9el/958z3HZEfT5sIo3E1bd4g/4Jc6tWtJNcTYWJG6tLXQjmSpIPQ+rd+0Rf74l3dNLhHLSzhlUM1jrhbX36Vje/MavjYeR6uWzRDkN8IkazJiOCs729hrwrfVz/FDQEmmGKzpoWmKpMRRCOVndOrdiBmpU6dWwQ0Z/jPaX/6f//ObqEXZhs9fns+82Rgrw9QDSmB1UOuFkgG9NAzso1dnz74Dxs393398Uxi169TRpVN7Y2ui656DRmhWDKTaapElj43eviFQBWk/u349W0iYeUg21RF/BJRkwjDnhUovzW19e8rjD01CMuNkademVUgiI6NRs7KzTN0X68I+efqsTPvi67DZnPORatA+BM1t37kHUk0ANpdrRmLJxQ1Ku9EbCAz88pt5JjXBOasuvJJuXTqaSGGLZEigTMfw4Thq1axZIKXxvHCbvr26CX/Dz/RAXYW3j1joiB8CRVdHit/+HbUnPuVZemEU6rswr6YlcmwsErEWyjoom6F+UPXo2b1zoRIH1nZOfT1w6Ij8CVHATFZkIuUJEEwOjNXXs5yjGkWCHUth8Hho6J4w9nZjr6F6aw1KNd27djL2tNWIgGaUMmsm0zgfrdwua1/6WjQCSjLAhUZEllMYisLdJBdelOFJgHwCboMUwGhTXqgvPfe42a5oWJ39LRMarVrB53MvOXuxpVgdi3YxIXTTth1QbweZZE667xkrZA3mSrFERfeunU2RLEo/tFU5xbBtrTMZXys1yTDAqx5C8Qf274PiS0Px2hsu6poh55n1URhGv2zlWgSiLTGJenRTBwKR5+qETKwfoo4As7cZk7QORcvvvH2YjBg60JQ2pd2Jg1Jp/Xp1ZBLSMPpAjeID43t4o6hCXrmqZSWifkJuTFhpSYZPNl5oo0cMkWGQYCjJ2FUjukOPnzwtq9b8gHYkK2QdqrcxrF6H8xFgUB4z29dv3ALJZrCJr+mOTG/L7c2YIKpUTRo1xDXQ3WR6L12xRvbuP6jBfDE4vZWOZHiBtUVw15iRfNINkC7IlaEnyT4uX74qP2zeaiJd6YE5AbKhC1VHxUGAkuYuBBMeQELqhs3bDNEwVaFDu9YFDxOmK/RGfyumVLCYO/O7lq5cg8p8tNeocThaZzv07orWrA6ch1IKjbW0udwO6YUXV3gSINUgVtKfj7B7Xmz0xmiYugNPZgRLYkO5tYgC3gO3PMlmJGw2w5F8ychha7AdDRMy2SeKgX601yxfta5UWevWHPpaPAKVgmQYB8Kq+iz01K93D4TZF64zy4LWrPzPC4w6uqpGxV80Fe0vVH0ZaLgYBbCYfkA1ioXcaYuzHjR8CDHZdSzy0Tp3bGfa08yFDY6eKOah6Sg7AklPMrxgmAowoF9vxLu0LIijsCBjljQ9E9/OW4zSldtNkp2qRhY6yfVKFYiu67Pzz5sHycD+G1EadRQqGN70JtrtNd26dpSVsMnNQufLTNhrEtV6pqKfhaQmGdZGefC+u00YenjhakaJ7tqTKTO+nmsqyDFfhzEXOpIfgfzSFQdgazslW9A2l6oSY2xoDLZKStBew9o2zZs2kd5IIP0vREKzxa7aaiK/PpKWZOiaZp2X9jDyhnuNGBtBcmFtlIMITotGhbrIoddfJBoBnnf2emLMENWisahjzALtLDFhDapTfaFis6wH0y3oJtcRGQJJSzJsOEbjnp1gcpEQOH/RcnQt/Mb0ZT5/4WLCM6UjO126dbQRsOw1jK1h1wiqzvdNvMsU76p6I9Oe11Bj2PGsxNJoryHZ50takmFinL2oAdWjP7/1IZqmzTVRnir2JvulHdnxsQkd42uWIF5mx65M+adf/tQkx/I64nC7QusGRTZ75d46aUkm/LTSmEvPwkmUoNShCBSHgFV07OKlyxrVXRxIEX5fqehZE+IivDp0c0UgCghUKpKJAl46hSKgCESIgJJMhIDp5oqAIhAZAkoykeGlWysCikCECCjJRAiYbq4IKAKRIaAkExleurUioAhEiICSTISA6eaKgCIQGQJKMpHhpVsrAopAhAgoyUQImG6uCCgCkSGgJBMZXrq1IqAIRIiAkkyEgOnmioAiEBkClSZ3KTJYbr01yzqyQZpVg+Z6Vtatf6RblBsBdoFkuQUWG+Pg+0Aw+vWXTSM42/nNRrtbpOyXe/2VcQIlmTKe9XUbtqCLZE5BZ8lTp86WcSb9WSQIsD3NV6hUZ5XNvHr1uukKGckcpdmWdYH5EGHpVo69mQeEyZM6IkdASSZyzMwvvlu8TPhPR3wRYHU6/ov1YI8t/tNRfgTUJlN+DHUGRUARKAEBJZkSwNE/KQKKQPkRUJIpP4Y6gyKgCJSAgJJMCeDonxQBRaD8CKjht/wYRnWGQLpX/PVrSKBKKjvEl31ueFtdOXmScvaKuK9qc7LSAulxu03zv+bNmkg1FBJ3ObC2rzclRdj1knWrN23dYbpjlvb4ErGdkkwiUC9mn4FUj+T1ayO+Ng0kmIYC1uXgGCHJ5PnFf+iMpG46JJ4L+XElxexavwYC9erWQWfJYTJ0UD9p3LCBpKWlhXS7cApIHo9bqlbJMM3m2NLl489myup1G52yvELrUJIpBEnivvDXqS6+Do0k2LBW+QjmxiEwdMxfNVUCxy8oydzitNauVVOmTB4vD06eaAiGN3JFGHXr1DYSFx8qq9c7k2iUZBx0JQWqpYmk4pSUR4IJP54qmBMqmI6SERh0Wx+5d/wYaYr+SvZeXSX/KvF/ZafL/n16mv5hfnTkWLdhc+IXFbYCJZkwQBL6EfaAQgzj80cWzk47Dp/Clj2HhGW9T+jBOXfn1dElsnePbtKiedMQgmE7W6d1uHC7XZKKXlBWO12iSqK5rW8vCDNB8Qf8smHTNkeBrSTjqNNReDGpc7eI59wVEE3hvxX1DY3GuX1bizSqWdSf9bsiEKhTu5Y0bFhPaFC1xhdfzZHZ8xbJ5SvA3kGDBulXX3pGWrZoFrIqEs2Afr3xnUtee/N92bRle8jfE/nhJqqJXIXuu1gE3GeuiOfkxVJLMwFKLrm+YufTPxRGIAMG3nT8s4+9+w/Ixq3bY5IXZd9PpO+ZiMucuaIGj2EgiIatd//4+ruydceuojaL+3cVw7oVd1h0h5UJAdpgwu0wbGPMm7WijbS0VBkM+9Lf/Pgp6dyhnSOWryTjiNOgi1AEyobAVZS6OHf+Alrq3ix3kZqaKkMG9pNfvPK8dGgH1TnBIynVpRTo1j27dUaafujhuWEQbdSovpw8eSbBsCdm9zldmoqvaZ18w3A8lwDjtefAGUnfjz7kFVA6iCdUke6LdW5mofQF42amTL67wCDshXF4yKD+8neY8N//+zU5cOhIpFNHbfvQuzBq0yZmIlrcRwwZKD9+9nHp2rm9pIHRrUFxuG2r5vIf//z38g0Mem+8PVXOnDtv/blSvAab15Vg9+Yi3vwaKXE7aGgdPhijc75YK2mZp+K228qwI3L28ZOnZcH3y8WL633y3WMLVL8Uj0eGD75N5Bc/lX/59e/l6LETCYEkKUiGoeC39eslLz79mPTr0yOEXCxUGVx1152jhMFLTzx8n4waNkj+BCv813MXIjy7khQjolEYLtC4u7S5X3g98lojilZJxroko/galGPHT8of//Kukd7vHjcap9mAbiSbkcMG4pS/Kv/7334jJ05BmozzqLA2GcYLUFLp17uH/OHXv5K//O7fjR5ql16IJQ14169nyaIlK6UHVCgOSjUt4Ar81//rF/L6b/9N+vbqLl5vSsETwGyUjP+jHTOe/8IxJMHpiBkCJJrf/ekt+Xb+YvHhurePEUMHyj//48+lUYP6cb/OK5wkQ5WIrrqO7dvIQ/dPlDtGDpWaNarb8TTvmTxGd9+Cxcvlzfc+lpefe8KQTUZGegHItMQT/K6dO8oXX30r07/8Bkx/JmklG9flLHGduiSSEp9nS7BuNahmFe4SK3QtVaQvqBL94fW3AbtHbh8+GA/Pm9Heo0cMliAMxL/6/34np8+ci5v3rMJcASSXKhkZ0rZ1C7l3whi5646RUq8ejJhhg3VYr1y9KivWrJd3p34m23fuMWD+47/8WtZv3CxPPTZFmjRqKCQba9SrW1uef+oRJMb1l/c//lyWrlwrly5fNglo1jbJ8Jq2aq/wX7zG9ceHSAB2ILB6vHap+wECBw8dld+89hZUJrcMHzogxHxwx6ihJjL4X/7j93LqTHzqUjueZEguVZFy3woRjuNGjxDqm02QXxI+SC4XLl0yIdUfTf/SvOb5bgal0e4ybcY3smzlOnn68SkyZvRwqQf7jMX03E/Xzh3kn//hVVm8bJVM++Jr2b57b341fJt7MHy/+lkRcCICBw4elv/+nzfFBRV12KDbkFF+0wnCTHOmS/y///lHSDSxJxrHkkwBuSCfZCSMtPfcdYe0agnPSNhgSxLGCWxFyvvnUHlWr92IiMii66cwuOrYiZPyn394wxDJEw/fLz26d5Y6yMDl/jhIaCSyXt27yIyv58r8RUvl8JHjxc4Zthz9qAg4BoH9IJrf//ltpLK5ZfCAfiFEM+6OEWad//6b1+QEvFOxHI4jGRplLcll8IC+IJc7TUBReEQmbS5n4YLevmuPfD1nASSUtQW9eG4FWC4S31asXi87d2caQiGBtWnVQpgoZ41mTRvLT55/Qgb17yOfzZwtbJFxCnqszyYdWdvG8jVQpyqS3hBoVcr4kkBt2kHi7KKOJQA6d7kQ2L13v/wWxmDeP4Nu61uIaPjg/c/f/0WOHo+de9sxJEO1PQM2l9aQVpi6zhu/a5eOBa44C2ne5IxvIUHMX7jUSCTnLyC3pwyDv/t4+kxZu36TPDBpvAxDTEHTJo0KdFgP4gz69+0pHTu0le8g0Xwzd5Fs27kb9porcTOa5QzvJILiU6UdLhJMtZv2ptL+TrdLXgR27dknv33tr/LLv3HLQKQcMIvbGmNhNqBZ4Q+vvwOJ/Zj1dVRfHUEyrEDWtnVL6dOrm0wYc7v06dm1QH2xjpauaEouO3ZlGmJZvHSlMVyVN7+Err5de/dBrHzHFP2h5NSnZzepD6OypUKxkdj9947H991l5uz5MAyvkb37DkhOTq61vOi8GmmFPuabw1W76s0PZX0XOmVZZ9HfVWAEdoJofg8i+TlsNJTOrWh4XuN33TnSSMrM3o5FZHBCSYYiXId2bRCn0k3GwVtECcbq2GedT+Zk0OZCL9HyVetkEcjlKOIByksu1vzWK7sFLvx+hewEidEofMeIIdK5Y7sQFao1IoZfefEpGQDpZhZUtDVQoY5jLYFSqjLWvop7dWWBtGCQi+rIgfEbqqUORYB2S8bRyE+eQxJlX6GkzsESF2Nho+Fl/Oe3PhDacqI5EkoyzBJ99eVnjOvY8vJYB8cb9+LFSzDo7paVa3+Q7+HxOXj4aEgimLVttF4tw/DUaV/Kxs3bZBwYnmHZLZs3k9TUfBGTJDgYyWeMraFRmF0k123cEpWSACnnrkrg0FnxsTVqNKrZoeSDG/O5z16NFkQ6j8MQYFBqtapVpUF9hAqUYpw6fVamfvolnB21jDfV+gmDWMfcTq+TX/76/ieSuf+g9adyvyaUZO675y4ZhYAh++CNzmbqm1GFfRWKIy9bAdUEB8yDj9egu5tV4A+A1Fj8hy6/gRAxGU9jqVCsFj9l8gSj4tFwRgmrvMMNSca7br+4jsPGxFKc5QkvoYqUnSce1Pd1o2OBjuREoAoSI5lxzXSZSAazt3mv2R0qjB0be8dwE0fz1vufRo1oEkoyrVo2C8ElKytbNuKmpuSyYtV62EoyExoQd+nSZfRDXirUZ7eg//LokUOkJ1zbDAq0Bp8g9jR76/uyvrKrgHYWKCt6le93GenpxsxAU0M0RtUqVYxEQ6cIH57RGAklGQ9EPWvwRt2Tud/ojDt27RXGvzhhkO0PQaL55MQpVBrbbUK1GTXJ4EDqtN/OW2xI0Qlr1TUkPwKBQFAYghHLUb1atagWvEooydiBIskwUI5qihMHSW8D7DT7UZdjM6QaqlA0BH84bYZpsuXENeuakg8B1hymtN+5U/uQmsTRPlK7GlXeuR1DMuU9kHj9nsZo1u6gC7tB/Xqy78ChqHu64nUsup/IEaDt4wGEM7AAWizHHgTRLVyyotAuLly8jETe2XLy9Bmpj2Z0TBso72DdmT6oRNC1U4fyTlXk75VkioSl5C+pQtHTxX86KhcCbAL3FHLf7J0NYoEAOyUURTIMRuUD7sjR40KjbzQkDuY1eVO8SjKxOJE6pyIQKQL0LtasXt3UH4r0t5FsX8VWJSD8d3zIMT+vuBy98O1v9ZmlU+h0idWIrcwXq1XrvIqAIlBhEEhKdYkiJNlehyIQbQQoPWzYsk1ox4jlSCZVPKlIhuTC/Kf7Jo6TN975SI6gSpiSTSxvhco39ylUTvy///W/Yl6I6xoCUpNlJA3JNG7YQB6Zcg8CiYabolY5OXnyX3/4S9T01mQ54Xoc5UOAoQzJJGWUD43S/brCkwwt4ySWxx+6z9SdYf8ZSjT33zNO5i34XtZu2KzSTOmuBd1KEYgJAhWWZEgk3VAu85kfPYSqX31RTLwGInBv2rHp3nvlpafl6Zd+ocFyMbl0dFJFoHQIVEiSqYcgpAeRnMhCU41RFLwoIxyjIn+PtHYfuhfqUAQUgcQhUKFIhhW92FGAHSJ7dO1UUA/DDh9rz/z5rQ/li1lzTAsUNfza0dH3ikD8EagQJMMAKNbgffaJh2T8mFEhWdCEjETCmr/foBvkn/76vnqV4n8d6R4VgWIRcDTJsMp6HeSKjEfxqCfRL6k5invbh0UuLCb++tsfyqo1GyQ7J8e+ScV8j+M2gwXEdTgKAdoCY51SEKsDDqJSDM0H8ZbuHUkyVrUvtpV97slHUGW9T6GC4uyzdApJYp/N/BatUGbLmbPnY3Vu4jcvct38NTIkr1UDCYJnUg+cEfeVbHFFuyRn/I4o6fZUp3YteWjy3WgzEttgvFgAdy3rmrlfWBQunsNRJMOnBIvwtGjeBIbdu+U+uKFZWtA+yMTs7sh6v+z2uAMN2NioKhmGPyNNcsb2lECb+oISfHL94jVJXbZbvAdOi/saaohoFHPCTzOzsH/64lMxz12KxYGyNe3cBUtL3TooWmtwEMmgVmm1qjIJLWiZ5UobjH2w3gxLBu4EqTDVnd0K4s3I9vXE4r2/YU0JsjvBDXXJVauq5E3sI3m7j0v6qkxxowawG0GGOhSBioSAY0iGMS7du3RCvdL+hVQj5ouwiyPruMyA1+gw0tyTcQTZMwnSXKHRsYlkt6gvnjWZkrrruLgvXVcVqhBI+oVTEXAMyVBVqlWzRghOrJ1BEY9Ru5+ji+MPm7ZW3riXDK/4R3SWrHYNJHXtfkk5dl7cV5Ger3mgIddMrD/wgcfrMLx1T6z3G435WfAqJ8alO4tap2NIxr44Wr/ZpZE1defMX2zajlxEUe9KPyjkNKsrufVrim/bEUndflQ8Zy6Li72VdMQFgWNIun3xZ/+AfRUhccZlBWXfCe+rRHhfHUcyZNq9mQdMl8ZZ3y4w5S3LDmvF/6ULLU2CNauIVEWLFGukpUigdyvJbl5XvJsOSQq9UBeuigtFpnXEFgH2A7sewwJPsV19YmZ3FMlcuXJV5qNZGoPqVqPnUryb2yfmFJS815QVeyRYr7r42zeUYGP01rHys1jbtUENyRvZWfzN64h3+zHxUIW6lgRxQiVDon+tYAg4hmRMSxTULv31716XCyjWrSMfAc/VHEnJPCV5h8+Kv3tz8bVuIGLvj50KqaZTE8ltVEvcO4+Jd8/JfBUqT3O29BpyBgKOIhkG1ynBFH1heI9dAHlcEVfHC+KHtynQEm1J0/Jb59IjRde3v18bCTSpLd6dx8WD2BoPvFBqGC4aT/02fgg4hmTid8gVd09u9LZO23ZUfCcuih/SS177RiKNat50e0OqCbasL7l1qomncS1JgbvbA3LS2JqKe86TYeVKMhXtLMLwmILe1p41+8RFsunYWPxtG4pUT88/Ejo9kJrg79ZcAgjuS9lyWLyMrVFbTUU700mzXiWZCnoqXcg6T91/WvxwYVOy8UGyCbaACmUZhlPcMBTXEh8+u9Ff241tg/wbg/3i5X0NDyxEJLMJOEwU5vC+lTcPzI1jSk1NTdQRlGu/dGGzfKgmSJYLxkr2Y1w0nitZIofOiK8pPE9FjCBd3xn5N4WvS1N4omxEVMT20fwqCLUtJIIZJJgzLjqN4cuyTqZlpK7cU5afFvymQYN68rOXnqmQCZKX4b197c33JN4xZyrJFFw+Fe9NMMUjeSANf4/mEiyKPPDkdsMm44J6xeEHEfm6NROUEkzMwdatJj78S9TwHD4nUk6SqYHGbveOH1NhEyTf+XCakkyiLsAKtV+I7H7YYHJ7tZRAh8ZiJAaoRyEDKQce2GK8MBR78ATXoQgkCgGVZBKFfFn3iyC8HBp7EfEbaADPUpUw+wBKYbiOnhfv5sOSgie3+xrymzQSuKxo6++igICSTBRAjNcUPsTC5A1sL/7WqDdTMyPU3sFFXM4SD7xJJlMbxl5XWECe+9BZcftQe8cyDsd44ZSypBq8XjcMzcHTl8VzBCpLgobrfPkluouXLsnH02cCwjDJMUHHFMlur1y7JteuI3YqzkNJJs6Al2V3QY9LsrtDNerbCkF3sGmwJIR9gExcMP561x+QFHia3NkscGXfIP+9d99pI90U/ktsvsmGCz1QjTlX+SzjOnlR0pfvjs3OSjNrFIqbnTt/UV5/Z6rFm6XZq2O2CQQDCanBlFCS2bk7Ex0H8pfg9/tNYqRjzohDFuKDGzp3aAcJ0HtUxZYkyfWRSBDVm7Juv6SisJULsTAluWhdCObjv7iN8BrFIMOKHq/D65QdMXSUHoGEksxf0K/aizYn+QM+fNTt1RGKgA8JkEZyCVdxaHvZcyK/Yh7UgHDVKHQW/aQIJA6BhJIM/fY6boFAukXCN7aj9ILav94luyQ182Q+uSBeRoci4FQEEkoyTgXFsesCmbg2HJSMFbvFfR12F/UaOfZU6cJuIqAkcxMLZ79DQF3qt5skFTVjijLqOnvxurrKjICSjIPOvisbNim7B4RqED1HKCBeZWUmjLpaI8ZBp0uXUkoElGRKCVQ8NvOi1Kb/6DnxV0WAnccjLkgtaYt2SAqSILXnUjzOwK33wZbJ6elpFdKFzcTIrOwcTZC89WlO3i1c8Bilz98qeQio4/CevFSiSzp5kXDukTVu1EB+9Y+vFoReOHelhVd2Ed0K/u2//ijnL1ws/McYfqOSTAzBLcvUjHNJRVKjDmciULVKFRkyoH+FTZBMTwuLtYoDzBUvNjoOoOguFAFFIHoIqCRTHJbIdDZFnuDKcflhgNVYlOKQqlTfBxGazwZvPl/Fu3Voj2FLl3iPiodUjBAioQRZI5fBbyjQHUTHxkB1JCEiNN4D2wiry5UUsh+jZem0DkPg8pVr8vWcBbDJVDwlgGvPykKRsziPykkyyNcLetFKhISCqnEklgCyhf2o5BZAUSX2OZJaaKgG0mHAmxs9jdKW7xIPiEZH5UaAHTV+9R+/q9wgRHj0lYNkUIMlkJ4qAdZeIamgJGWAxbZJKiwRWadqfkkCNkwLH/jO36KOBLG9KMmEo6OfFYFbIpCUJEO1h4QSrJouQRILqsj50erVDzIJ1gKh8B9avZZ2MLtZULhbhyKgCESOQOnvtMjnjssvggiOCsB+EoS6Y4pm49VIKVB3AoZQoPawXUh45fzSrg7qUspBFHu6FH9dtrRL1O0UAScjUOFIJkAphYRC4jCvUHtQJS5Qowoa00Ol4b9U2FqK0HyKPBFMMsxCsiFq4rpQNS5IW4y9uT0ynj1HQDJMSNShCCgCESPgbJKhLQU2FD/sIcYmgldKKfT68JVNzAwhRGLpR1StXAahoJWIG+Uq+Y/vWbqSRl9fn9Y3SQb84zl4RtxoD6su7IivLf2BImAQcBTJsMWHkUpgPyGBBPEagMTCf0G6kyG5GFtKJKrPddhToOq4UEGOvaE9IBghqVzJFjekF1ZqYzg/ySwXVegKOjESHmzHYtwebKdDEVAEyoZAQkkmALXEb7OdUFqhKsR/RkJhucnwVh8lHaeRUkAoF6+LG/88lxDbQlIhkRhCAalkFV19j14mf+sGIT2J3Ch67UaMjNZtKQn0yvW3tLRUadWieZlNfIlEy+fzyaHDx+DDiK8TI24kw/akfqo5dBvXriIuVN43hAKiMQZbEkp4FbiSzggjF2lLAZm44FpmDIsH7w2hkFQgwRgpxV46oZj56I3yN6ktwQY1bm6BOUxLEUg/OhQBC4H69erK/3r1x5KSqAZ51kLK8HoBCZL/+us/xL1GcWxIhs3HaEuhyxikYv5BYgmCSOhSNm5l/B19JUoPlSWlnEdfZ9S09eCVthQXDLIukI0hlRwwdBnCpgNYm68NpBgG390YbGbvRukFjfK1ENFXIlAlI0MG9u9TYRMk0xLQx/vmXVWOa8iypfgZLVsX0bKUViC1BKvAtYwgOCOhMC6ltLYUEgULOJFIzl0RD6rCUUox1fjR7sMFlYcFnmhLKe8IQh3zo3VHsFmdm1OBrIwtJgp9em5Oqu8UgcqJQJlIhqqPr34N8UO9COJVoPqYKFoSCfJ+zL9IbCkkFao68OJ4LFKhmkKiwQ1PQnEzGC4GNW1JhnltG4YE57lOIVcJXRi1A0DlvCn0qKOLQMQkQ2Nt9oB2EmzXUIKGUDAF9dOiQvKLWytII4j+zG52FETVtxRIKlR7BC1R8nsDoeRkFKSU4nZvfR+ki7x+dQmyI6M1sN8UVKdLOQ2Dr0MGc6xyscZgI3q/4GXz2tRM2pyuwgYFLFNgqE4hWZdBZXTIoTp+GSdPnZF/+pdfi6sCdpDMRhY2O2DGe0RGMlB3AjTY9m6ZL62UZrWQPoKMRcFN4MaN66WUQNWH9hNIJ5QWjMSQgBuDaQdGiqF9yBokvCOQYuLZBM3ad9gr1dDsni0k2L25ceMbmxHKcoYEGkIIZKa4YL1+eNB8e0+JF5X16K7XEX0Erly9KnMXLIn+xHGYEXdiQnqbRUYyBIISi81AWiQ2JAzGl+w+Id4TF/K7BpJM2IcZkoIjjKmGMBGH077RzUNgCsHxi5LCjgAJHn648XNGd5NA63omqbNkexYkG5wTqqzslx2Ajcm7eq94ofLpiC4CrJObnYPYKx2lRiAykgHApq7KtqMS7NaseEMuDbxNaokfojzdyO6zUI1yio5PKfVKo7wh851yaYuBNFMw2ImRTelpC0rgYHJnztgeEqDHK7zvdUnrIu5QYQNtG0guPXfoO+11AGGWtGT9W/IjEBnJAA839P+MBdskb9dxyesJtYn2jKJuBNRrkVb1Ja95HfHRS7TzuKRtOyIeRNo6wmbAoL/OTUNUDw/VucNnE37Wswej93UrSDDhuIK0g3Srg7iNEZykwixzePVMNLS1chAM7Ux5cPG78c8DdVWHIpAoBCImGRKEG3EpaZmnJPXAaVOTJadHCwl0aiIu5hLZB1UrN8T4BnARwwuVNbCdCPo3p244KKknUTE9Bt4i++6Lex+EFyyHUgKTIa3B1INDiPDlDZzAkduirgSNtwteOvtYv1+qrNiTL2XRDmMNQGwMw12bi29g25tkQ6N2h8YSQFFyz+ZD1tb6qgjEHYHIScZaIsjG5YMNg14NSDb+lXslFxe1v1cLkUY1QS42DwhuBGNTYEQvCCkX/3LwRE754YCkQ8IxTcvsN461jxi9BhkoCGOqfbjh5fLuP2X/KiHv/V2aIRnUpsJhFe6F26TK2v3FSoAkxjSQkOfydckZ0/0m0UDKoSTpRpKnGoITcjp1p0Cg7CQTBp8HYfwZmw5KcNthyWtWV/J6tZRgS4j8JBYSDonGNlwI42co/7Xbu4oL3pB0ekTofi1FGoBtmojf0mOT1wLrYnyPNZiCAPevJ8E1YwKMiGZqA1XNGyOIWjYZkPxupWK6WIsY9qSUzYfFB3XLwpsueqZxKMlYiOprvBG4eTVHac/0IKXiycl/PtgK8vBkDnRukl+qoah4GuYuDWovWf3biAsG5YxF22NqeGWB8DxIUgUDEhQN0x6of4kePpAB86jsw7v9SKm9cVRjPUiH8MEOY8pgcCLG1TAvDMPMHUmQpPlVOf5nl2bLMY3+tGIjEHpFR/lYUhBwl7JslwTW7TOenABUFNpmTEeAcKMmCCgIQ2wOfpOB3s8xGbBT+BjQBrtHwYDXyw0PjBfxMYkeJgUjLJ/Lw9SGSFRJpF0wOK+AZEhaJHeMnGGdxEevYDj2sTpw7ofGaR2VGoGYkoyFLF3C6dvh9t6BNHPkCOXeBgMlIoYLJUjiejRRxNYPo/zKJ3ku1Dj7MBnce07eUh2x/yZm70kwYTcl7V4RDaqb9mhpY3y/caMzUpipHzdIJ6J5dWNFoIwI2KyzZZwhkp/hgvcwXgZG40IDniYXpBjvPtzwsRi4eX2wTwi9StZAgKAbXq4UqBjOGEXgEvHCnCs5uFlAzIGDkbCFr0nn4hgTCMMebtHcR1wkGS6YbmNfU0gxwzvB+wSVhU9Ya+DJ64arNcUEj8WmDzSbt+X2ahUiPbkQP8KoZBpNHTGMSz+UaJhfFdHg9h7bbzidReoMMmScUrwlGXoiYS/yOsDuVRSWPlx/Pn9oRn/9enWkWeNGcvUanBFJPtJRKaFendoFR8mo5kAU74m4kAyLU+UifN+POBlTqNvOmjRW7jst3qW7kNwXu+ZpfmaKd7ClEMBA7ULwHZMKnTKYbR7uXWM5UqZmlNouQ2/eDUOvOS7mYEFi4yDOzHZnh4d4DoYoeJCu4QS7V1HHffnKFbl0+Qq4GGR449ocd8dIaY0KeNezQMpJPlJReH9g/94FR5mXlyfnL0RPuo8tyeCEsXAV42L8SPQLufh5SKhmlwI7TerqzNimHWAdudw/s8ZvDBa58iBq2X3jBrS+T+Qro6F9IAW7LOMHOQf3ncpPKL3F4mjPCrD7pT0oksGFN9IkvCBU/tMRisC58xdlT+YBZChfltq1EOOF0aJZE/MvdMvK8enchUuyZv2mqB1szB5pjEfxwchLj4afHQDsT1faXxiMt3yPpEOCiXVeE7sdBOBKLxgQBV3wJnnhZnfS8LDSH1Iw7IbbIEgmry2IJszrFL7u/PgfxCd1bByiErpxnG7NyA6HK+SzH5LWitXrZPmqdZBcKncKBo9/1dofZMny1SEYleeDp06jlr8qzwRF/ZaV/31I0ssb2B5ZxDC0pua7UM22NLYistYL+wtTEwrsBUVNFKXvsvu1CVWVqKL9cBBPdYdlKUOECcCmYqr0Ue3hALn4kFXNchhBeo6oK1PUoe2F2wLbALo6+ICzr3crCTaHe94yyeA4U+DVS0GQnitBKRzmGCrA/6ge8F+qN1WqVMmQjPQ08aCshqU+VYBDKNcSWWvm8NHjsnDJSvnw0y/k0JFj5ZrP/uOoq0sB2BDyOjYRH+ugUHS3219Q7ySF5R8YAs8ntmWQtK8oyu9NR4QezQvuO+ZLUVrwZsbIi1XO9VO68uNfkJLXjXgWFl3PZWQ0vmflQDdr8XCATIIpKIKOIL5AUxju2DHTGiAjN8iFUcBa4c8CpfhX2mPWb9wip06fkT69ukvrls1NPV/75Vv8ryv2X/jMugYDd+b+g7Jm3UY5cy66D9/okQyeqn6QirG/IFkyxC7Ac8DcIET0sqCScWXaDQ+lOEdUF0gYJC3ThcAeC1LC73OgPvAmLRiQCDx7T+Zngxd86Zw3jCnyQsrKrYYayczEttQkeOeCOBafQB261SCRnkBG+VZkvSMsQEfpECDR8GnOfzqih0BUSCbf/lLbiOumd5El6nOduOCZF5Sy6ZCRHkxFvAjXz/oqvjYNxc+bDmTm2X9aUqBq3aruCw2hfqgQBYPeA9g9vDD4Onl4maG+CgmnqBzIMqcRuZwZDnAj+dSoSTHOBXMyjro2ZyBQbpJhmQEfShPQHhBAwmNIMzaI9R6oJSkbD6HiHOqglFL6KIAG6gB7XOciHcHfFdnJ6IJAFYE2CMa4uFF9r6SRy8A7qmzWwA3nBjmxR5PTB+vauBC46IPh1rRrCY8tCj8Akgl7Tx04I16U0/AQbwd5zsKXq58rDwLlIhlW+s9FLoy/G3KS6pEALIsjAIQ7lkZH71ZkV5/DTR1pcA/VL+Q55fZtLX4+zdlV8sZgpnKQhZroji1G7TLSFaUYzGMNExCG9VSUkcJ6yPAM0a7CnC+GAzBT235MtGuxK6YbMUbs2W2Ks7OtLr7XoQg4AYGykQwJAFKFIQDUkAnpH82jQo0ZL9Wj3YhDYbJehBe8IQgkMeYhMztAb0lYZjJcAEaaCUAdKk5lym2J4k+sa2MRH70rVLMqmI2Cx0cDbhCE6gHBMHK64JiINQ7LBbWKGdgquRAQHU5DIGKSoQGW8S95SHIMMJvZFuDGaFUXbgYv6p/QS2IiWCM8YiYx5nRpitiaVqaiXshT25qLKhMLZqM+b1Ekw1B8P0uD2skJqloq1LZEVeOzll7WV7qgPZRQ1I5bVgj1dwlCICKSYVO3XHo4QDCmqZvl+eDiEanqQTazF9XuWCu3LE9V09OJ5MXau/bSmEWAE6iNbpXVoDrApRs+8prUkSBdunZVCbYKqh86FAFFIL4IlJpkaODNofrSHfEvMLzeDDzBgvGE9cBdmoqqbB7mH1E1iWRAMvGDNHJGdBZTQNveB4keIdgaBMRlAs24bw6SkM1Ok/9l/v/9iIthic2CgeUwNscRrVgKFqVvFIHKgUCpSIY2kuwhqKDPinL2m5cYQZJIQf3ZVATZubNof4kcuFyUw/SN7GL6BYV4p+gNovqF+sGMYchl+xKLZGCbCIBoaKOwu8XzYBQ2ahyboFkD/Ye0NYgFhr4qAvFFoFQkwxs/QBtHWPwL84+YHsAmYmXtuJhF1/fg9vnlOS0jLTGA+uUGcaUhXoS9nuhVoevZb7WUxbY0PpvvrQhY/MxHVzclnJtOJfGiMp9pLBdfbHVvioAiAARKRzKEysS43MxippHXDU9NCurAlIVgAsi5yRrVNT98HnV3QwZzi9btl3QYkOl2pneKUcJUxfz0VN0gowBIJkiX7o24Fx+kHJMrZSvELYgzSXVoHZOQY9YPjkLgJ88/KaOGDRKWQeBYuXaDvPbGu5Wivky0T0SpSIZG3JRlu8U3tjuMqTcSt6FC+RHslou+2GlrISlEYIfxQ83JGdtTgvRO2evNUtVCW4+URTuQPHkyxHhs7ClsUsaiS1YpA8bKMNXgxsizCpbbpBgPbTGRBgFaE+prpUWgcaMG0qF9G0lPy7ftMdXAbVfBKy0ykR946Uo9QGpJ23lM3LCNFAzeyFBLfL1aISAvtIdRwTZFvMlFm5TsKQMhcdQPIxgYeBFOn/bFWklHfE1R3ikXCcZetgDqmx/SC71eTD0ItkfMjl0qQgpBGurVVKTRtEkjSUcGcDIPZjbXqllD6tSu5djD5Brd+MdX659jF+vwhZWOZHAQjHlJX39AXAiyKxgkGkSh+lBKIZdRuSUNnKwsxL7kTuoH9zdC/W3uZapDLthfMj5dJd6TcDMXIxWZVAL2ZrINPyKNWVoih90Sa6H9B/ZjDTfiYtysDFcBRq1aNeSnLzwp09/7s0y+eywygG9GOFeA5Ue0xBRkjv/TL1+RGVPfMMfqtqTjiGbRjSsKAqVSl6yDoV0kA4be6zSs2kiFkbV5A9rl13GFjSZ8MDI3e0Qn4/421fLtG4BQ3JiTLVhJNiUNBqOxSVnAbpepi+Zl9DixWJPdpY28nzRkfBdHWCXtJ15/4xOSN9zIoQPl5ed+JJ07tUfStVteeOpRlB3YalLv6VVLttG/Tw+QyxhzWP/2v/9OJt51h/z2T2/Jjl17o1pbtiy48ZywjkwKzAF8r6P8CERctIpGXg/KNrCQkkknsE4E3clQXxjTwhB3MyCt+GCczRnXMz/Azl68ijfPdRSXnvUDOk/apKMSjsmF39Btzc6TBdG8uBgCuCiCjSF629zrro0HjcE3EltRCbuO6p948XphnO7Qro387U+flx8/+5g0a9rYiOfcUY0a1YV1Vjdt3SE5uTewjOoKEjeZF6T659/+H6l7o3A1b+iWzZvKmNHDpXq1qnLg4BHJzskB2cSXXK1z0rZ1K/n5T56VMbcPN8WrLKT2HTiEgk4rJCcnuc6HdXyxfI1IkjELwbn3wGOTvngnjLfdQwpTscF7HtQqFxvDQ+rJQ95RHroTGAKwyIiTMP0A0bdpszdJCggrosFWsvxnSS3sQIk0hJD4GuTypG1B50UUC3fa4E1WD5Xwx985Sh6dcq+0wA1mH5RcsrKzQUBtJY1Gx8IBzfbNK9z7VigGVRWV50ieaak3AybroLbuC089IiOGDJC3P/hUvl+xxhRSYmnMWA8Sfr26+efksQcnSXPU97UPnpOLFy8nXMqyr6kivY9YkjEHB6JxQXWhITaAEH6Tv0TJEkQShPrCVx+yhn1DO4qwt7OdYKDGuHaflIzZG/N7X0eIFvOSAo1r59t1rN+y9arNxuOCkZoGXyd5lTxIwahZo4YMuq2P/PKVF2TKfXcXFK22DoNP8OMnTskHH38uv/mfN4UFrpNtsMTl3IVLpFrVqtK4YX3jIrZsMnytX6+uDBnYH50Cmsnps+fk8pWr4vPFxq5GKYqFw4dif3/3sxfl/nvvKnROSIYnTp2RN979CCUpj8ZdwkqG8+9q12t4meXSABIQ8yBFUFopkCyIClUhDju54DsXKue7kduUjhiYssTWcEpGH+fCvsMEzZD5+UcOuNvTPl8jXmQuO8EeQzGcRtx2bVrJJNgh7h53h/Gs5C82//+8ic6jQjwLWb8PgtmTub9QHyD79snwnjaPAf16y/NPPiJdYIuityncBnL02An5/KtvZe6CJXLs+EmjRkXj2ElmVatUkY5wUd9/z11QjYYZFdU+N3sxXbh4Udau3yzvTJ0mO3bvBdnFXqqyryFZ3peLZAgCXcds/eqD4dduEwkBiOoRVKwUuMBTw+JfQrYr5Yfcfq0ll1ISA/HCB0prVpmzGSUm4O5O8Ej1eoUu6WGD+8tD990DFah1yIqMGI42HDt3Z8r0L7+RJVARrl51fkGtkIMo5wdKd/dNHGcImKpjtao3ctNuzEsC3rB5m0z74mtZ+8NmOXv+QpklGz7z0tPSjYo6avggeeCe8dKyRWF1la1Rdu/dL5/NnC2LYIepDA3eynkaS/x5uUmGs7PlSC6SJ015BXvqAf8I9cjN3CHYadgONhpJinSX5yKZUmh8tg88abxQw5hHVVZ7DO0EfKJSdSnr4JOSHfl6dO8iD04aL0MH3ya0xdjH9etZRvyev2iZzJw93zypk9GTZD/m4t5TbWnXpqU8fP89IOTbhIFwJGj74I3/3eJl8vWchfBC7ZErUKOMl9G+UQnv6cVrBPWsf+8e8sC9E6Rv7+7wIoVGcLCYNqv0z1+41JyT4ydPQSgvs6Bfwmoq15+iQjKEzAdbTC46RAYQdVvg+YE04UYpyFSoRylR7E7gY8HyUUioRE8i+2Atm4yvNwqrxJVlpKelSZ+e3WAXqGM8OydOnkad3byIpqJRs3PHdsY7cc/4Owu8KNYkeTBKn0RF/NXrNsiXX8+Tzdt2SG5uZPuw5kq216qQYgYP6Av39jjp2a0zjLG1EWAeSgSZ8PJ89c18WQqpb9/Bw/D2lPwwYEBdLdhdenTtJBPG3i53jBpWSFoi/iSUVUgd+PKbubJ9x56Iz3uynYtoHk/ZDL9FrMBUZgOpBJg3BLHUhaC5FMSppCGAj7Et0RyUUtgCJMC6t5SBOaCSpazZh1wqJGvifaSD0kunDm3lJcSrPDj5bvM0zYOofuXqVWFPmls90Xgz0O5CV+yPn3k83wWageDAG4O/v3DxkqyDyP/RZzPl4+kzhW5RfxnWas2ZbK9029OFvRHq0bWr140LuXq1aqFeKEQJM86Gbm8/SrpeuXLNNGQr6vxkpKdLd5DLpAlj5IWnH5Pb+vUqyEUiduz3fAbG5VVoA8JeQ9NmfC0HDx818yYbtok8nqiRDA+CdhDWmKV7mv2VUlHusiBmJopHSRIxGdgkmRvV74xLHBKTG6kEZRk0PNIoy8CwGtWrGaNg184dpDre80l3Gb2Si5NqGsAjMmzwAHnykfvl8YcmG7Hcvga6pBloNuvb74xhl09MfqejaASuwC61bddu2Z0JAzhU4GrVqhhvFNUqDr7SftMPKk9tkA4fBjSck6Q4+MAwhA+D7jM/esic05qIPbIPPjw2bdkhMyBNfgCC2bBpW7lUZPvc+j4UgaiSDKdmy1mWZGB0blkkitDllfDJj8A85L6WICYAAAvESURBVCkFITm5EDeTguA7kxFeRsmgfdvW8tDkCdKmNWrm3Bgknh5dO0tbfEdVigZA3gB8AnJkwGvEp+qUe8fL84jS7d61o7kBbvzceIiOwivyHewuH077Ur6ZtxBPzug2zrL2lWyvlPBOwnW8dfsu49bn8dFIXAXSoeWFIv7dunQ0EmhVfE/ipkQ5ErE2jz00SR5/cLKJebG25xx0SWfuOyjfzl8M6WWGLPx+uZEw+TcdsUEg6iQTm2UWntU0eIPtxYWiWR40pKfUxBYiZR0kEUba8qlZC683n5puadKoofTs3tl4imhAPI/4lSyoUJ06tJF/+PnLMvaOESbAzNo3RXc+KZevXGe8IvQc0VsRj8Ayaw3J8koDPNVKeuCobtIwX7t2zRDDMI3sNOTyPHXu2F6eeOQBnK8uJmXDwoEPBtrCFoBUPvl8lnwFY/thGHmtB4a1nb5GH4EKSzKEgkSTAvWMLW/L6k2yIL0EdWjXnn3mwsuBekQpphrC3K2nYBpIiCI4jboN69cztpSc3ByoWKNNAJe1HcX7rTt2yeczv5VP4XZdsWa90JOko3wI8PyQaPbD2EuJshakGqq1lmHYUqFo4KUB2T64/YrV62X6jG/MeaGxPdnSNezH67T3FZpkog0m81IOHz1myIaeJXommGNDKcca1O0ZPNa2dUsQkBtSzQXpAtsNL3b+hk/Ijz/7SuZ8972cOoOAQB1RQ4CSIDHeuSfTnCdGDTdsUN/kgXEnFtFbO+T223buMTFIn305W5auXCskKx3xRSA0eCO++3bk3piYd+zESZk15zvZjngMxm2MhceoU/u28Ezk59rwqUmvRRsQzW5IP5cu4SkLw+4XX8+Ba3qjnI1yw3JHApXARflh6OUDgKqT25ZOYl8SVaO5IPrFy1aZcASVJu3oxPe9kkwxeNOjRPGc4exbtu2U24cPBtmMMJ4jS0RnTEyfXt1MIl+tmojdwW8YJOb0QZJsWL+unDl3QXrAcJqLm5beL6fbjBjQSHIfBxsY85tatWwWYpsh7tmQRhfB7jJnwffyw6atamh3wMWo6tItTgJ192NIWtybeUD2witBkbxJ44YhFzfrwDKzmqUbeOFfQHTq6TPnbjFz/P/MtdOL9vADE+U+5OwwGfOFpx9FgNpQ4xKmBMYERqcNrpvh/4zUffTBe2XE0EEmjskyznO9NLYz/eCv730Ct/RcU4/nmtrCHHEqoxbx64ijifEi6FlqgTIADOp6cNIEY5uxX+jc/fWsbEhAe2Xx0pWIi1mADN7TMV5V6aZv1qSx3Im4EZZSoE2J8T/LYaPo16eniYBltvPefQdMJO1Xs78zKmPpZo7tVjVhgOea77pzpPEY1UVcjCVJWns+euwkoqfnmNyvXfDi3SoK2PqdvsYHASWZMuDMWI3WrZrLnZAAHpw80aQh2KehW5Tu1i2I8aAhePHSVSYq1b5NvN7zphxFVQ8qRleQC+vqWsRI97CVq2Wth5IMJbZ5i5bI7HmLjLve+ls8Xykd0lNEiWsgsrUbsixEWD4TvUbzFn5fkM90EbaxoiJ/47lu3VdhBJRkCmNS6m/qIF6jfZs28iBqw0wYO6rg5rUmYCTqCagkzB5mrAwr3cXrJmA286Db+grzp/LzgOoUeGGs9RX3ysTDswgaZMmJr76dj8TE5cbuVNz20fyeqhGrBN6HOsdGjWvWNKRCHfdFEl/7wyZgOtuoSAzac7o9KZoYVbS5lGTKecYoujOtoHfPrvLcEw9LDyT22QdJhblPBw8fEWZc015AW0isBiUTBg4+AHXutr49TcU3fhc+GBPEXB3e1MzVoj0p3FPjgwv4LHJ7tu/ca27o5avXxjSZk3Evo0cOge1lvHTEehgcyfXZx8FDRw1hf798FdzYJ1Q1soPj0PdKMlE6MRTvGyFmYxxsB08/OsUYgu1T8+lL8Z5enOm4uRdBhbp2PXqJo1SBGCz48P0TjQ2DFeaKaq1C9zxjRlg2gbYMjrrIdr4T2clPPz7FHIN93XzPnCCmQ6zftEU+RbTshs3boyo5sPwl0wOIG+1dtMOk4Hjsg/EtdEl/MWuOsR3RJR1JqQf7XPo+vggoyUQZb7q1W6J0JJMl70ayZbgdgRHBly5flpWIBP7g4xmydefuct2wfNI3atgARbHuNtHHDeCaZvBguARAG9GsOQtkxqy5cgiZxllZoTcp84AYeEiD9mNI8qRUYR+UyEg29JqxzAJD85nAWB71j2vkep9EGgATU2kvIlnbB4tWMXP9A+QZkeSYda2qkR0h579XkonBOaIKxcr7rE3z4jOPSd9e3QvthTfsKdywM7+ZZ8Ldy+KFYvQxyxg88sC90rRpo0JGXO6UbtxF8HRNxU26a+8+o7qVlK/D8giNGzcwUsVkVKwzxcxtq7fIhnVvZyPhk3YRxhJFOhjYOPGu0fLCk4+anLDw/XA+ll2YisTSuYh5Yb3jWNX6jXTtun1kCCjJRIZXRFuTbCgdML+JqkhjSBz2wRuWdg8mT771/icmOrU0kamUjmi7eOnZH0FFamkSAcMlF96Qa9dvkrc/nAYJYOstycW+Ls5FO077tq1MHRZ60SyPlLWdtfZDh49BqvlKvpm7sNQxNt26dJC/f/Vl6QsSpqoUvnaW1WCW9PuffJFf38Xvg8Rk7VlfKxoCSjJxOGMkm9ZoBfI8Wn5MGHN7kbYSqgDs6/PaG+/Lnn3M2C5ceIs3IyOMf/GT5xHf0qPQzclDoZRCo+5f3//U1Ke9DrWoPIMSRt+e3VHM6wkZ2L9XkVORcLYjR4j7XLJ8dbG2JkpeP//Jc8ZuFE5anJjeuE1btsuf/vqBqVJXksRV5EL0S0cioCQTx9NCFWFQ/95QoR6X3j26GOmg0FMcQXFUbaaict45JF/yBmYtWtp5fv7ycyaPKnzJfMgHQFJHUN2f6gXdzuwTFM3BzGamVrAIFCsIstNl+NppiGXu1hvvfGTIgvVd6BvicbNTw6svP1uoHCnXSII9hvKX73443diMykuM0Txunav8CCjJlB/DiGeggXPyxLEw1k4URuIW1RI1c/8hee3N94xUwmp7NOx6w4LRjMoCQ/Lps2ehrixC9vfMmLrHeaBU/+6BkZZu7xbNm5g1hZMN6xjPX7RU3p06HeUyqskr6PHd6wap2sEiubBA+DwU7n7zvY9g24mda9++X30fXwSUZOKLd8je2PfnCXihRqAXNiNzmbZgHyQRlvwsKs6FNzIlnWUr15iSnruRWxXP0RwBc1PgibprzCiTNMo1hpNNbi7aEIMYw7/ncTGNYRs8a6+/9aGsge1IR/IioCST4HPLm3A4+jJRWunWpVNIIaailkYX+PkLF2Qj6tN+8Mnnsm7DlnK5kYvaR2m/I3lQdaJExpIYLOZFF3Q4qdjno7eL3qgPYdRlYGJxdZPtv9H3FRsBJRmHnD+qUPfCHc14kTatWpiuk/ablUZQSi57ILF8NP1LeKJWO8alSwmM7voHUSOZZTAb1MsnGzu0lGpOnT4r8xEE+M4H00wLWvvf9X3yIqAk47Bzyy6TjHth/yF2n2QNlfMIpDuEcPovZn2LgLqFjg2lZ4Qx+0pPRt5RNxRVZ9SxC/+x7Qjztt79aDranWx3GOK6nFgjoCQTa4TLMD/du8MG9ZcJiK+h23f1jaZjF6LsMSrD0kr1EysHadSwQciH8sgCSC/sZ12erpyl2rFu5EgElGQceVp0UYpA8iAQ2gM0eY5Lj0QRUAQcgoCSjENOhC5DEUhWBJRkkvXM6nEpAg5BQEnGISdCl6EIJCsCSjLJemb1uBQBhyCgJOOQE6HLUASSFQElmWQ9s3pcioBDEFCScciJ0GUoAsmKgJJMsp5ZPS5FwCEIKMk45EToMhSBZEVASSZZz6welyLgEASUZBxyInQZikCyIqAkk6xnVo9LEXAIAkoyDjkRugxFIFkRUJJJ1jOrx6UIOAQBJRmHnAhdhiKQrAgoySTrmdXjUgQcgoCSjENOhC5DEUhWBJRkkvXM6nEpAg5B4P8HBdLpY2bgEfAAAAAASUVORK5CYII=;" vertex="1" parent="1">
          <mxGeometry x="320" y="260" width="80.62" height="70" as="geometry" />
        </mxCell>
        <mxCell id="Evyd6iI5Z3ptmyk50GJe-20" value="&lt;b&gt;Amazon Bedrock&amp;nbsp;&lt;/b&gt;&lt;div&gt;&lt;b&gt;Agent&amp;nbsp;&lt;/b&gt;&lt;/div&gt;" style="text;html=1;align=center;verticalAlign=middle;whiteSpace=wrap;rounded=0;" vertex="1" parent="1">
          <mxGeometry x="400.62" y="268" width="155" height="30" as="geometry" />
        </mxCell>
        <mxCell id="Evyd6iI5Z3ptmyk50GJe-21" value="Sales Database" style="shape=datastore;whiteSpace=wrap;html=1;" vertex="1" parent="1">
          <mxGeometry x="677" y="505" width="60" height="60" as="geometry" />
        </mxCell>
        <mxCell id="Evyd6iI5Z3ptmyk50GJe-24" value="&lt;b&gt;Scraped Websites&lt;/b&gt;" style="sketch=0;aspect=fixed;pointerEvents=1;shadow=0;dashed=0;html=1;strokeColor=none;labelPosition=center;verticalLabelPosition=bottom;verticalAlign=top;align=center;shape=mxgraph.mscae.enterprise.website_generic;fillColor=#7D7D7D;" vertex="1" parent="1">
          <mxGeometry x="687" y="403" width="50" height="44" as="geometry" />
        </mxCell>
      </root>
    </mxGraphModel>
  </diagram>
</mxfile>
